<?xml version="1.0" encoding="utf-8"?>
<!-- Generator: Adobe Illustrator 21.0.2, SVG Export Plug-In . SVG Version: 6.00 Build 0)  -->
<svg version="1.1" id="Layer_1" xmlns="http://www.w3.org/2000/svg" xmlns:xlink="http://www.w3.org/1999/xlink" x="0px" y="0px"
	 viewBox="0 0 25 25" style="enable-background:new 0 0 25 25;" xml:space="preserve">
<style type="text/css">
	.st0{fill:#EC4F8C;}
</style>
<path class="st0" d="M12.5,0.5c-4.4,0-8,3.5-8,7.7c0,7.7,8,17,8,17s8-9.2,8-17C20.5,4,16.9,0.5,12.5,0.5z M12.5,12.9
	c-2.7,0-4.9-2.1-4.9-4.7c0-2.6,2.2-4.7,4.9-4.7c2.7,0,4.9,2.1,4.9,4.7C17.4,10.8,15.2,12.9,12.5,12.9z M9.4,8.2c0,1.6,1.4,3,3.1,3
	c1.7,0,3.1-1.3,3.1-3c0-1.6-1.4-3-3.1-3C10.8,5.2,9.4,6.6,9.4,8.2z"/>
</svg>
