<?xml version="1.0" encoding="utf-8"?>
<!-- Generator: Adobe Illustrator 21.0.2, SVG Export Plug-In . SVG Version: 6.00 Build 0)  -->
<svg version="1.1" id="Layer_1" xmlns="http://www.w3.org/2000/svg" xmlns:xlink="http://www.w3.org/1999/xlink" x="0px" y="0px"
	 viewBox="0 0 48 48" style="enable-background:new 0 0 48 48;" xml:space="preserve">
<style type="text/css">
	.st0{fill:#FFFFFF;}
</style>
<g>
	<g>
		<path class="st0" d="M46.7,38l-5.2-3.5l-4.7-3.1c-0.9-0.6-2.1-0.4-2.8,0.5l-2.9,3.7c-0.6,0.8-1.7,1-2.6,0.5
			c-2-1.1-4.3-2.1-9.4-7.2s-6.1-7.4-7.2-9.4c-0.5-0.9-0.3-2,0.5-2.6l3.7-2.9c0.9-0.7,1-1.9,0.5-2.8l-3-4.5L10,1.3
			C9.4,0.4,8.2,0.1,7.3,0.6L3.1,3.1C2,3.8,1.2,4.9,0.8,6.1c-1.1,4.1-1.4,13.2,13.2,27.8s23.7,14.4,27.8,13.2c1.2-0.4,2.3-1.2,3-2.3
			l2.5-4.1C47.9,39.8,47.6,38.6,46.7,38z"/>
		<path class="st0" d="M27.3,7.7c7.7,0,13.9,6.2,13.9,13.9c0,0.5,0.4,0.8,0.8,0.8c0.5,0,0.8-0.4,0.8-0.8c0-8.6-6.9-15.5-15.5-15.5
			c-0.5,0-0.8,0.4-0.8,0.8C26.4,7.3,26.8,7.7,27.3,7.7z"/>
		<path class="st0" d="M27.3,12.6c5,0,9,4,9,9c0,0.5,0.4,0.8,0.8,0.8c0.5,0,0.8-0.4,0.8-0.8c0-5.9-4.7-10.6-10.6-10.6
			c-0.5,0-0.8,0.4-0.8,0.8C26.4,12.2,26.8,12.6,27.3,12.6z"/>
		<path class="st0" d="M27.3,17.5c2.3,0,4.1,1.8,4.1,4.1c0,0.5,0.4,0.8,0.8,0.8c0.5,0,0.8-0.4,0.8-0.8c0-3.2-2.6-5.7-5.7-5.7
			c-0.5,0-0.8,0.4-0.8,0.8C26.4,17.1,26.8,17.5,27.3,17.5z"/>
	</g>
</g>
</svg>
