<?xml version="1.0" encoding="utf-8"?>
<!-- Generator: Adobe Illustrator 21.0.2, SVG Export Plug-In . SVG Version: 6.00 Build 0)  -->
<svg version="1.1" id="Layer_1" xmlns="http://www.w3.org/2000/svg" xmlns:xlink="http://www.w3.org/1999/xlink" x="0px" y="0px"
	 viewBox="0 0 18 18" style="enable-background:new 0 0 18 18;" xml:space="preserve">
<style type="text/css">
	.st0{fill:#59ABDF;}
</style>
<path class="st0" d="M18,14.2c0,0.3-0.1,0.5-0.3,0.8l-2.5,2.5c-0.1,0.1-0.3,0.2-0.4,0.3c-0.2,0.1-0.4,0.1-0.5,0.2c0,0-0.1,0-0.1,0
	c-0.1,0-0.1,0-0.2,0c-0.2,0-0.6,0-1.2-0.1c-0.5-0.1-1.2-0.3-2-0.6C9.9,16.9,9,16.5,8,15.8c-1-0.6-2-1.5-3.2-2.7
	c-0.9-0.9-1.6-1.7-2.2-2.5C2.1,9.8,1.6,9.1,1.2,8.4C0.9,7.7,0.6,7.1,0.4,6.6C0.3,6,0.1,5.5,0.1,5.1C0,4.7,0,4.4,0,4.2
	C0,4,0,3.8,0,3.8c0-0.2,0.1-0.4,0.2-0.5c0.1-0.2,0.2-0.3,0.3-0.4l2.5-2.5C3.2,0.1,3.4,0,3.7,0c0.2,0,0.3,0,0.4,0.1
	c0.1,0.1,0.2,0.2,0.3,0.4l2,3.9C6.6,4.6,6.6,4.8,6.6,5C6.5,5.3,6.4,5.5,6.2,5.7L5.3,6.6c0,0,0,0.1-0.1,0.1c0,0.1,0,0.1,0,0.1
	c0.1,0.3,0.2,0.6,0.3,0.9c0.2,0.3,0.4,0.7,0.7,1.1C6.6,9.3,7,9.8,7.6,10.4c0.6,0.6,1.1,1,1.5,1.4c0.4,0.3,0.8,0.6,1.1,0.7
	c0.3,0.2,0.5,0.2,0.7,0.3l0.2,0c0,0,0.1,0,0.1,0c0.1,0,0.1,0,0.1-0.1l1.1-1.1c0.2-0.2,0.5-0.3,0.8-0.3c0.2,0,0.4,0,0.5,0.1h0
	l3.7,2.2C17.8,13.7,17.9,14,18,14.2z"/>
</svg>
