<?xml version="1.0" encoding="utf-8"?>
<!-- Generator: Adobe Illustrator 21.0.2, SVG Export Plug-In . SVG Version: 6.00 Build 0)  -->
<svg version="1.1" id="Layer_1" xmlns="http://www.w3.org/2000/svg" xmlns:xlink="http://www.w3.org/1999/xlink" x="0px" y="0px"
	 viewBox="0 0 12 18" style="enable-background:new 0 0 12 18;" xml:space="preserve">
<style type="text/css">
	.st0{fill:#59ABDF;}
</style>
<path class="st0" d="M6,0C2.8,0,0.2,2.6,0.2,5.6C0.2,11.2,6,18,6,18s5.8-6.7,5.8-12.4C11.8,2.6,9.2,0,6,0z M6,9C4,9,2.4,7.5,2.4,5.6
	S4,2.2,6,2.2s3.6,1.5,3.6,3.4S8,9,6,9z M3.7,5.6c0,1.2,1,2.2,2.3,2.2s2.3-0.9,2.3-2.2c0-1.2-1-2.2-2.3-2.2S3.7,4.4,3.7,5.6z"/>
</svg>
