<?xml version="1.0" encoding="utf-8"?>
<!-- Generator: Adobe Illustrator 21.0.2, SVG Export Plug-In . SVG Version: 6.00 Build 0)  -->
<svg version="1.1" id="Layer_1" xmlns="http://www.w3.org/2000/svg" xmlns:xlink="http://www.w3.org/1999/xlink" x="0px" y="0px"
	 viewBox="0 0 25 25" style="enable-background:new 0 0 25 25;" xml:space="preserve">
<style type="text/css">
	.st0{fill:#FFFFFF;}
</style>
<path class="st0" d="M12.5,0C7.2,0,2.9,4.3,2.9,9.6c0,3.8,1.6,7.6,4.6,11.1c2.2,2.6,4.5,4,4.5,4.1c0.1,0.1,0.3,0.1,0.5,0.1
	c0.2,0,0.3,0,0.5-0.1c0.1-0.1,2.3-1.5,4.5-4.1c3-3.5,4.6-7.3,4.6-11.1C22.1,4.3,17.8,0,12.5,0z M12.5,13.2c-2,0-3.7-1.7-3.7-3.7
	s1.7-3.7,3.7-3.7s3.7,1.7,3.7,3.7S14.5,13.2,12.5,13.2z"/>
</svg>
