<?xml version="1.0" encoding="utf-8"?>
<!-- Generator: Adobe Illustrator 21.0.2, SVG Export Plug-In . SVG Version: 6.00 Build 0)  -->
<svg version="1.1" id="Layer_1" xmlns="http://www.w3.org/2000/svg" xmlns:xlink="http://www.w3.org/1999/xlink" x="0px" y="0px"
	 viewBox="0 0 45 50" style="enable-background:new 0 0 45 50;" xml:space="preserve">
<style type="text/css">
	.st0{fill:#59ABDF;}
</style>
<g>
	<path class="st0" d="M42.7,12.4c-0.4-3.9-1-7-2.1-8.2C36.5-0.7,7.3-1,4,4.3c-0.8,1.3-1.4,4.3-1.8,8.2C1,12.6,0,13.6,0,14.9v4.8
		c0,1.1,0.7,2,1.6,2.3c-0.2,7.6,0,15.5,0.3,19.4c0,3,2,2.5,2,2.5h1.9v3.3c0,1.3,1.3,2.3,3,2.3c1.7,0,3-1.1,3-2.3V44h22.2v3.3
		c0,1.3,1.3,2.3,3,2.3c1.6,0,3-1.1,3-2.3V44h0.6c0,0,2.4,0.3,2.6-1.1c0-3.9,0.2-12.6,0-20.8c1-0.3,1.7-1.2,1.7-2.4v-4.8
		C45,13.6,44,12.5,42.7,12.4z M11.1,5h22.4v3.4H11.1V5z M11.4,40.1c-1.8,0-3.2-1.4-3.2-3.2c0-1.8,1.4-3.2,3.2-3.2s3.2,1.4,3.2,3.2
		C14.6,38.7,13.2,40.1,11.4,40.1z M33.4,40.1c-1.8,0-3.2-1.4-3.2-3.2c0-1.8,1.4-3.2,3.2-3.2c1.8,0,3.2,1.4,3.2,3.2
		C36.6,38.7,35.2,40.1,33.4,40.1z M37.5,26.1H7.2V10.2h30.3V26.1z"/>
</g>
</svg>
