<?xml version="1.0" encoding="utf-8"?>
<!-- Generator: Adobe Illustrator 21.0.2, SVG Export Plug-In . SVG Version: 6.00 Build 0)  -->
<svg version="1.1" id="Layer_1" xmlns="http://www.w3.org/2000/svg" xmlns:xlink="http://www.w3.org/1999/xlink" x="0px" y="0px"
	 viewBox="0 0 50 36" style="enable-background:new 0 0 50 36;" xml:space="preserve">
<style type="text/css">
	.st0{fill:#59ABDF;}
</style>
<path class="st0" d="M49,10.5h-4.8l-3.1-7.1C39.2,0.8,37.8,0,35.6,0H14.5C12.2,0,10.8,0.8,9,3.4l-3.1,7.1H1.1c-0.8,0-2.1,3.9,2.9,4
	l-1.7,4.1c0.1,5.2,0.1,10.3,0.1,15.5c0,1.1,0.9,1.9,1.9,1.9h6.5c1.1,0,1.9-0.9,1.9-1.9v-4.3h24.7v4.3c0,1.1,0.9,1.9,1.9,1.9h6.5
	c1.1,0,1.9-0.9,1.9-1.9c0-5.1,0.1-10.3,0.1-15.5L46,14.5C51.1,14.4,49.7,10.5,49,10.5z M9.4,25.2c-1.8,0-3.1-1.4-3.1-3.1
	c0-1.8,1.4-3.1,3.1-3.1c1.7,0,3.1,1.4,3.1,3.1C12.5,23.8,11.1,25.2,9.4,25.2z M31.6,24.7H18.3c-0.8,0-1.4-0.7-1.4-1.4
	c0-0.8,0.7-1.5,1.4-1.5h13.3c0.8,0,1.4,0.7,1.4,1.5C33.1,24,32.4,24.7,31.6,24.7z M8.5,12.7c1-2.2,1.9-4.4,3.2-6.9
	c0.7-1.2,1.4-2.3,2.8-2.4h21.1c1.4,0.1,2.1,1.2,2.8,2.4c1.3,2.5,2.2,4.8,3.2,6.9H8.5z M40.6,25.2c-1.7,0-3.1-1.4-3.1-3.1
	c0-1.8,1.4-3.1,3.1-3.1c1.8,0,3.1,1.4,3.1,3.1C43.8,23.8,42.4,25.2,40.6,25.2z"/>
</svg>
