<?xml version="1.0" encoding="utf-8"?>
<!-- Generator: Adobe Illustrator 21.0.2, SVG Export Plug-In . SVG Version: 6.00 Build 0)  -->
<svg version="1.1" id="Layer_1" xmlns="http://www.w3.org/2000/svg" xmlns:xlink="http://www.w3.org/1999/xlink" x="0px" y="0px"
	 viewBox="0 0 77 80" style="enable-background:new 0 0 77 80;" xml:space="preserve">
<style type="text/css">
	.st0{fill:#FFFFFF;}
</style>
<g>
	<path class="st0" d="M74.7,40.2c-0.9,0-1.7,0.7-1.7,1.7C73,61,57.5,76.5,38.4,76.5S3.9,61,3.9,41.9c0-18.3,14.2-33.2,32.1-34.5
		l-1.6,1.1c-0.7,0.6-0.9,1.6-0.3,2.4c0.3,0.4,0.8,0.7,1.3,0.7c0.3,0,0.7-0.1,1-0.3L42,6.9c0.4-0.3,0.7-0.8,0.7-1.4s-0.3-1.1-0.7-1.3
		l-5.5-3.8c-0.7-0.6-1.6-0.3-2.2,0.5c-0.5,0.7-0.3,1.8,0.5,2.4l1.1,0.7C16.1,5.4,0.6,21.9,0.6,41.9c0,20.9,17.1,37.9,37.9,37.9
		s37.9-17.1,37.9-37.9C76.4,40.9,75.7,40.2,74.7,40.2z"/>
	<circle class="st0" cx="73.5" cy="33.1" r="2"/>
	<circle class="st0" cx="70.8" cy="25.5" r="2"/>
	<circle class="st0" cx="65.9" cy="18.3" r="2"/>
	<circle class="st0" cx="59.1" cy="12.2" r="2"/>
	<circle class="st0" cx="51" cy="7.9" r="2"/>
	<ellipse class="st0" cx="30.9" cy="27.4" rx="7.3" ry="7.1"/>
	<ellipse class="st0" cx="53.1" cy="29.6" rx="4.1" ry="4"/>
	<path class="st0" d="M58.2,43.1c-0.8-1.6-2.8-2.2-4.4-1.4l-10.5,5.5c-1.1-1.7-10.4-14.4-19-9.5C18.8,40.7,21,54.3,22.6,61h18.7
		l0.6-4.7c-0.3-0.2-14.5-11-14.3-11.3c0.2-0.3,0.8-0.4,1.1-0.2L42.3,55l14.5-7.5C58.3,46.6,59,44.6,58.2,43.1z"/>
	<path class="st0" d="M44.7,44.5c-1,0-1.9-0.5-2.4-1.4c-0.7-1.3-0.2-2.9,1.1-3.6l8.4-4.6c1.3-0.7,2.9-0.2,3.6,1.1
		c0.7,1.3,0.2,2.9-1.1,3.6l-8.4,4.6C45.5,44.4,45.1,44.5,44.7,44.5z"/>
</g>
</svg>
