<?xml version="1.0" encoding="utf-8"?>
<!-- Generator: Adobe Illustrator 21.0.2, SVG Export Plug-In . SVG Version: 6.00 Build 0)  -->
<svg version="1.1" id="Layer_1" xmlns="http://www.w3.org/2000/svg" xmlns:xlink="http://www.w3.org/1999/xlink" x="0px" y="0px"
	 viewBox="0 0 49 80" style="enable-background:new 0 0 49 80;" xml:space="preserve">
<style type="text/css">
	.st0{fill:#FFFFFF;}
</style>
<g>
	<g id="icons_20_">
		<path class="st0" d="M45.2,10.1c-2,0-3.6,1.6-3.6,3.6v15.6c0,0.7-0.5,1.2-1.2,1.2c-0.7,0-1.2-0.5-1.2-1.2V6.5c0-2-1.6-3.6-3.6-3.6
			c-2,0-3.6,1.6-3.6,3.6v20.4c0,0.7-0.5,1.2-1.2,1.2c-0.7,0-1.2-0.5-1.2-1.2V4.1c0-2-1.6-3.6-3.6-3.6c-2,0-3.6,1.6-3.6,3.6v22.8
			c0,0.7-0.5,1.2-1.2,1.2c-0.7,0-0.8-0.5-0.8-1.2v-18c0-2-1.6-3.6-3.6-3.6s-3.6,1.6-3.6,3.6c0,0,0,13.2,0,14.6
			c0,1.4,0.4,1.9,0.7,2.2c2.7,3.6,5.3,6.9,5.6,7.4c2,2.6,2.2,1.5,7.3,2.7c0,0,0,0,0,0c0,0,0,0,0,0c0,0,0,0,0,0
			c0.3,0.1,0.6,0.2,1,0.3c2.5,0.9,8.2,3,8.2,3c1.1,0.4,1.7,1.5,1.3,2.5c-0.4,1-1.5,1.5-2.6,1.1c0,0-2.3-0.7-2.5-0.7
			c-0.2-0.1-0.9-0.2-0.3,0.5c0.6,0.7,7.4,9.6,7.4,9.6c0.5,0.7,0.4,1.7-0.3,2.2c-0.7,0.5-1.7,0.4-2.2-0.3l-4.8-6.2
			c-0.2-0.2-0.4-0.4-0.6-0.2c-0.2,0.2-0.3,0.5-0.1,0.7l6.1,7.9c0.5,0.7,0.4,1.7-0.3,2.2c-0.7,0.5-1.7,0.4-2.2-0.3l-6.1-7.9
			c-0.2-0.2-0.5-0.3-0.7-0.1c-0.2,0.2-0.3,0.5-0.1,0.7l5.5,7.1c0.5,0.7,0.4,1.7-0.3,2.2c-0.7,0.5-1.7,0.4-2.2-0.3l-6.1-7.9
			c-0.2-0.2-0.5-0.3-0.7-0.1c-0.2,0.2-0.3,0.5-0.1,0.7l4.2,5.4c0.5,0.7,0.4,1.7-0.3,2.2c-0.7,0.5-1.7,0.4-2.2-0.3
			c0,0-7.6-9.9-8.7-11.2c0,0,0-0.1-0.1-0.1c-3.4-4.5-1.4-6.6-3.7-9.8L13,38.3c-0.7-0.9-1.8-2.4-3-4.1l-1.6-2.1
			c-1.4-2.2-4.2-3-6.3-1.7c-2.1,1.3-2.6,4.1-1.1,6.3c0,0,7.4,11.9,10.7,16.9c0.4,0.6,0.9,1.2,1.3,1.8c0,0,0,0,0,0c0,0,0,0,0,0
			c0,0,0,0,0,0c4,5.1,6.6,9.7,6.6,14.2c0,1.5,0,4.9-0.1,7c0,1.2-0.3,2.7,1.9,2.7s17,0,18.4,0c1.9,0,1.8-1.4,1.8-2
			c0.2-7.6,0-1.9,0-7.7c0-9.6,6.9-10.3,6.9-23.6c0-0.1,0-0.2,0-0.2c0-3.9,0-32.4,0-32.4C48.8,11.7,47.2,10.1,45.2,10.1z"/>
	</g>
</g>
</svg>
