<?xml version="1.0" encoding="utf-8"?>
<!-- Generator: Adobe Illustrator 21.0.2, SVG Export Plug-In . SVG Version: 6.00 Build 0)  -->
<svg version="1.1" id="Layer_1" xmlns="http://www.w3.org/2000/svg" xmlns:xlink="http://www.w3.org/1999/xlink" x="0px" y="0px"
	 viewBox="0 0 25 25" style="enable-background:new 0 0 25 25;" xml:space="preserve">
<style type="text/css">
	.st0{fill:#59ABDF;}
</style>
<path class="st0" d="M24.6,19.5c0,0.4-0.1,0.7-0.4,1.1L20.9,24c-0.1,0.1-0.4,0.3-0.5,0.4c-0.3,0.1-0.5,0.1-0.7,0.3h-0.1
	c-0.1,0-0.1,0-0.3,0c-0.3,0-0.8,0-1.6-0.1c-0.7-0.1-1.6-0.4-2.7-0.8c-1.2-0.5-2.4-1.1-3.8-2c-1.3-0.8-2.7-2-4.3-3.6
	c-1.2-1.2-2.2-2.3-3-3.4c-0.7-1.1-1.3-2-1.9-3c-0.4-0.9-0.8-1.8-1.1-2.4c-0.1-0.8-0.4-1.5-0.4-2C0.4,6.7,0.4,6.3,0.4,6s0-0.5,0-0.5
	c0-0.3,0.1-0.5,0.3-0.7C0.8,4.6,0.9,4.4,1,4.3l3.4-3.4C4.7,0.5,5,0.4,5.4,0.4c0.3,0,0.4,0,0.5,0.1S6.2,0.8,6.3,1L9,6.3
	c0.3,0.3,0.3,0.5,0.3,0.8C9.1,7.5,9,7.8,8.7,8.1L7.5,9.3c0,0,0,0.1-0.1,0.1c0,0.1,0,0.1,0,0.1c0.1,0.4,0.3,0.8,0.4,1.2
	c0.3,0.4,0.5,0.9,0.9,1.5c0.5,0.7,1.1,1.3,1.9,2.2c0.8,0.8,1.5,1.3,2,1.9c0.5,0.4,1.1,0.8,1.5,0.9c0.4,0.3,0.7,0.3,0.9,0.4h0.3h0.1
	c0.1,0,0.1,0,0.1-0.1l1.5-1.5c0.3-0.3,0.7-0.4,1.1-0.4c0.3,0,0.5,0,0.7,0.1l0,0l5,3C24.4,18.8,24.5,19.2,24.6,19.5z"/>
</svg>
