<?xml version="1.0" encoding="utf-8"?>
<!-- Generator: Adobe Illustrator 21.0.2, SVG Export Plug-In . SVG Version: 6.00 Build 0)  -->
<svg version="1.1" id="Layer_1" xmlns="http://www.w3.org/2000/svg" xmlns:xlink="http://www.w3.org/1999/xlink" x="0px" y="0px"
	 viewBox="0 0 25 25" style="enable-background:new 0 0 25 25;" xml:space="preserve">
<style type="text/css">
	.st0{fill:#FFAA3B;}
</style>
<g>
	<g>
		<path class="st0" d="M24.1,2.1h-7.7V1.7c0-0.7-0.6-1.3-1.3-1.3H9.9C9.2,0.4,8.6,1,8.6,1.7v0.4H0.9C0.4,2.1,0.1,2.5,0.1,3v16.5
			c0,0.5,0.4,0.9,0.9,0.9h4.4l-1.6,4.3h3l1.6-4.3h2v2.6h4.4v-2.6h2l1.6,4.3h3l-1.6-4.3h4.4c0.5,0,0.9-0.4,0.9-0.9V3
			C24.9,2.5,24.6,2.1,24.1,2.1z M23.2,18.6H1.8V3.8h21.5V18.6L23.2,18.6z"/>
		<rect x="3" y="5" class="st0" width="18.8" height="12.4"/>
	</g>
</g>
</svg>
