<?xml version="1.0" encoding="utf-8"?>
<!-- Generator: Adobe Illustrator 21.0.2, SVG Export Plug-In . SVG Version: 6.00 Build 0)  -->
<svg version="1.1" id="Layer_1" xmlns="http://www.w3.org/2000/svg" xmlns:xlink="http://www.w3.org/1999/xlink" x="0px" y="0px"
	 viewBox="0 0 60 80" style="enable-background:new 0 0 60 80;" xml:space="preserve">
<style type="text/css">
	.st0{fill:#FFFFFF;}
</style>
<g>
	<path class="st0" d="M59.4,14.7H47.3c-1,0-1.8-0.8-1.8-1.8V0.7c0-0.2,0.1-0.4,0.1-0.6h-45C0.3,0.1,0,0.4,0,0.7v78.5
		c0,0.3,0.3,0.6,0.6,0.6h58.8c0.3,0,0.6-0.3,0.6-0.6V14.5C59.8,14.6,59.6,14.7,59.4,14.7z M34.6,19.1h19.9c0.4,0,0.6,0.2,0.6,0.6
		s-0.2,0.6-0.6,0.6H34.6c-0.4,0-0.6-0.2-0.6-0.6S34.2,19.1,34.6,19.1z M55.1,25c0,0.4-0.2,0.6-0.6,0.6H38.2c-0.4,0-0.6-0.2-0.6-0.6
		s0.2-0.6,0.6-0.6h16.3C54.8,24.4,55.1,24.7,55.1,25z M34.6,29.8h19.9c0.4,0,0.6,0.2,0.6,0.6S54.8,31,54.5,31H34.6
		c-0.4,0-0.6-0.2-0.6-0.6S34.2,29.8,34.6,29.8z M45.5,66.3c-0.8,1.2-1.3,2.5-1.4,3.9H10.2v-3.9H45.5z M18.2,62.9V42.1
		c0-0.3,0.3-0.6,0.6-0.6h4.3c0.3,0,0.6,0.3,0.6,0.6v20.9c0,0.4-0.3,0.6-0.6,0.6h-4.3C18.5,63.6,18.2,63.3,18.2,62.9z M41.8,62.9
		c0,0.4-0.3,0.6-0.6,0.6h-4.3c-0.3,0-0.6-0.2-0.6-0.6V34.7c0-0.3,0.3-0.6,0.6-0.6h4.3c0.3,0,0.6,0.3,0.6,0.6V62.9z M32.8,44.6V63
		c0,0.4-0.3,0.6-0.6,0.6h-4.3c-0.3,0-0.6-0.2-0.6-0.6V44.6c0-0.3,0.3-0.6,0.6-0.6h4.3C32.5,44,32.8,44.2,32.8,44.6z M17.5,4.7
		c3.6,0,6.4,2.9,6.4,6.4s-2.8,8.8-6.4,8.8s-6.4-5.3-6.4-8.8C11.1,7.6,13.9,4.7,17.5,4.7z M6.1,25.2c0-2.5,2-4.5,4.5-4.5h3.7
		c0.2,0,0.4,0.1,0.5,0.3l2.6,3.9l2.6-3.9c0.1-0.2,0.3-0.3,0.5-0.3h3.7c2.5,0,4.5,2,4.5,4.5v5.3c0,0.4-0.3,0.6-0.6,0.6H6.7
		c-0.3,0-0.6-0.2-0.6-0.6V25.2z M9,75.3H8.3c-2.5,0-4.5-2-4.5-4.5c0-2.5,2-4.5,4.5-4.5H9V75.3z M9.1,62.9V37.2
		c0-0.3,0.2-0.6,0.6-0.6H14c0.3,0,0.6,0.3,0.6,0.6v25.8c0,0.4-0.3,0.6-0.6,0.6H9.7C9.3,63.6,9.1,63.3,9.1,62.9z M10.2,75.3v-3.9
		h33.9c0.1,1.4,0.6,2.8,1.4,3.9H10.2z M50.7,73.7l-3.1,1.5c-0.1,0.1-0.2,0.1-0.2,0.1c-0.2,0-0.4-0.1-0.5-0.2c-1-1.2-1.6-2.7-1.6-4.2
		c0-1.6,0.6-3.1,1.6-4.3c0.2-0.2,0.5-0.2,0.7-0.2l3.1,1.5L50.7,73.7z M50.9,62.9c0,0.4-0.2,0.6-0.6,0.6H46c-0.3,0-0.6-0.2-0.6-0.6
		V44.5c0-0.3,0.3-0.6,0.6-0.6h4.3c0.4,0,0.6,0.3,0.6,0.6V62.9z M55.8,71.3L52,73.2v-4.7l3.9,1.8c0.2,0.1,0.4,0.3,0.4,0.6
		C56.2,71,56.1,71.2,55.8,71.3z"/>
	<path class="st0" d="M47.3,13.4h12.1c0.2,0,0.5-0.1,0.6-0.4c0.1-0.2,0.1-0.5-0.1-0.7L47.7,0.3c-0.2-0.2-0.4-0.2-0.7-0.1
		c-0.2,0.1-0.4,0.3-0.4,0.6v12.1C46.7,13.1,46.9,13.4,47.3,13.4z"/>
</g>
</svg>
