<?xml version="1.0" encoding="utf-8"?>
<!-- Generator: Adobe Illustrator 21.0.2, SVG Export Plug-In . SVG Version: 6.00 Build 0)  -->
<svg version="1.1" id="Layer_1" xmlns="http://www.w3.org/2000/svg" xmlns:xlink="http://www.w3.org/1999/xlink" x="0px" y="0px"
	 viewBox="0 0 55 49" style="enable-background:new 0 0 55 49;" xml:space="preserve">
<style type="text/css">
	.st0{fill:#FFFFFF;}
</style>
<g>
	<path class="st0" d="M35,30.2c0.2-0.5,0.2-1,0.2-1.5v-2H24v2c3.2,1,5.5,1.6,6.4,1.6H35z"/>
	<path class="st0" d="M23.6,18c0.2,0.1,0.3,0.3,0.3,0.5v6.9h11.3v-6.9c0-0.2,0.1-0.4,0.3-0.5c0.2-0.1,0.4-0.1,0.6,0l7.3,4.1
		c0.8,0.4,1.7,0.2,2.1-0.6c0.2-0.4,0.3-0.8,0.2-1.2s-0.4-0.8-0.8-0.9L33.5,13c-1.1,0.7-2.5,1.1-3.9,1.1c-1.5,0-2.8-0.4-3.9-1.1
		l-11.4,6.4c-0.4,0.2-0.7,0.5-0.8,0.9s-0.1,0.8,0.2,1.2c0.2,0.4,0.5,0.7,0.9,0.8c0.4,0.1,0.8,0.1,1.2-0.2L23,18
		C23.2,17.9,23.5,17.9,23.6,18z"/>
	<path class="st0" d="M29.6,13c3.4,0,6.1-2.7,6.1-6.1S33,0.7,29.6,0.7s-6.1,2.7-6.1,6.1S26.2,13,29.6,13z"/>
	<path class="st0" d="M53.6,32.9c0.3-0.2,0.5-0.4,0.6-0.7c0.1-0.3,0.1-0.7-0.1-0.9c-0.6-1-1.5-1.5-3-1.6c-0.9,0-1.8,0.2-2.7,0.6
		l-8.7,3.7c-0.1,0.8-0.4,1.4-0.9,2c-0.7,0.7-1.5,1-2.3,1H24.9c-0.3,0-0.6-0.3-0.6-0.6s0.3-0.6,0.6-0.6h11.4c0.6,0,1.1-0.2,1.5-0.7
		c0.4-0.4,0.7-0.9,0.7-1.5l0,0c0-1.2-1-2.1-2.2-2.1l0,0h-6c-1.7,0-6.1-1.4-8.5-2.2c-2-0.7-4-1-5.9-0.9c-1,0.1-1.8,0.2-2.6,0.4
		C11.9,29.2,9,30.9,7.1,32c-0.5,0.3-0.9,0.5-1.3,0.7v4.1v8.7l1.9-1.4c2.1-1.5,4.6-2.2,7.1-2.1c2.6,0.2,4.4,0.4,5.5,0.6l5.8,1.3
		c2.5,0.5,5,0.5,7.4-0.2c0.8-0.2,1.4-0.4,1.9-0.7L53.6,32.9z"/>
	<path class="st0" d="M3.6,30.6H2c-0.7,0-1.2,0.5-1.2,1.2v15.2c0,0.7,0.5,1.2,1.2,1.2h1.7c0.7,0,1.2-0.5,1.2-1.2V31.8
		C4.8,31.2,4.3,30.6,3.6,30.6z"/>
</g>
</svg>
