<?xml version="1.0" encoding="utf-8"?>
<!-- Generator: Adobe Illustrator 21.0.2, SVG Export Plug-In . SVG Version: 6.00 Build 0)  -->
<svg version="1.1" id="Layer_1" xmlns="http://www.w3.org/2000/svg" xmlns:xlink="http://www.w3.org/1999/xlink" x="0px" y="0px"
	 viewBox="0 0 65 65" style="enable-background:new 0 0 65 65;" xml:space="preserve">
<style type="text/css">
	.st0{fill:#EC4F8C;}
	.st1{fill:#FFFFFF;}
</style>
<path class="st0" d="M64.5,33.5c0,22-10,31-32,31c-22,0-32-9-32-31s10-33,32-33C54.5,0.5,64.5,11.6,64.5,33.5"/>
<path class="st1" d="M43.9,46.5H18.5v-28h25.5v3.7l2.7-2.7v-2.4c0-0.7-0.6-1.4-1.4-1.4H17.1c-0.7,0-1.4,0.6-1.4,1.4v30.7
	c0,0.7,0.6,1.4,1.4,1.4h28.2c0.7,0,1.4-0.6,1.4-1.4V35.5l-2.7,2.7L43.9,46.5L43.9,46.5z M53,24c0,0.8-0.3,1.5-0.8,2L36.9,41.4
	c-0.4,0.4-0.9,0.7-1.5,0.9l-4.1,1.2c0,0-0.1,0-0.1,0c-0.1,0-0.3-0.1-0.3-0.1c-0.1-0.1-0.2-0.3-0.1-0.5l1.2-4.1
	c0.2-0.6,0.5-1.1,0.9-1.5l15.3-15.3c0.5-0.5,1.3-0.8,2-0.8c0.8,0,1.5,0.3,2,0.8C52.7,22.5,53,23.2,53,24z"/>
</svg>
