<?xml version="1.0" encoding="utf-8"?>
<!-- Generator: Adobe Illustrator 21.0.2, SVG Export Plug-In . SVG Version: 6.00 Build 0)  -->
<svg version="1.1" id="Layer_1" xmlns="http://www.w3.org/2000/svg" xmlns:xlink="http://www.w3.org/1999/xlink" x="0px" y="0px"
	 viewBox="0 0 79 80" style="enable-background:new 0 0 79 80;" xml:space="preserve">
<style type="text/css">
	.st0{fill:#FFFFFF;}
	.st1{fill:#59ABDF;}
</style>
<g>
	<g>
		<path class="st0" d="M44.7,76.4v1.2h33.8V66C59.8,66,44.7,70.6,44.7,76.4z"/>
		<path class="st0" d="M0.5,66v11.7h35.2v-1.2C35.7,70.6,19.2,66,0.5,66z"/>
	</g>
	<path class="st0" d="M39.5,11.4c-10,0-18.2,7.6-18.2,17c-0.1,6.9,4,13.1,10.4,15.6l0.5,0.3l2.1,3.4h10.4l2.1-3.4l0.5-0.3
		c6.4-2.6,10.5-8.8,10.4-15.6C57.7,19.1,49.6,11.4,39.5,11.4L39.5,11.4z"/>
	<g>
		<path class="st1" d="M38.2,50h-2.6V38.9l-6.1-6.1l1.8-1.8l6.5,6.5c0.2,0.2,0.4,0.6,0.4,0.9L38.2,50z"/>
		<path class="st1" d="M43.4,50h-2.6V38.3c0-0.3,0.1-0.7,0.4-0.9l6.5-6.5l1.8,1.8l-6.1,6.1V50z"/>
	</g>
	<path class="st0" d="M34.3,47.8h10.4c1.4,0,2.6,1.2,2.6,2.6l0,0c0,1.4-1.2,2.6-2.6,2.6H34.3c-1.4,0-2.6-1.2-2.6-2.6l0,0
		C31.7,49,32.9,47.8,34.3,47.8z"/>
	<g>
		<path class="st0" d="M44.7,76.4v1.2H45c2.1-5.2,16.3-9.1,33.5-9.1V66C59.8,66,44.7,70.6,44.7,76.4z"/>
		<path class="st0" d="M0.5,66v2.6c17.2,0,32.5,3.9,34.9,9.1h0.3v-1.2C35.7,70.6,19.2,66,0.5,66z"/>
	</g>
	<path class="st0" d="M34.3,53h10.4c1.4,0,2.6,1.2,2.6,2.6l0,0c0,1.4-1.2,2.6-2.6,2.6H34.3c-1.4,0-2.6-1.2-2.6-2.6l0,0
		C31.7,54.2,32.9,53,34.3,53z"/>
	<g>
		<path class="st0" d="M11.7,12.6l1.2-2.3l7.8,3.9l-1.2,2.3L11.7,12.6z"/>
		<path class="st0" d="M58.1,13.5l8.3-2.8l0.8,2.5L59,16L58.1,13.5z"/>
		<path class="st0" d="M7.1,27h7.8v2.6H7.1L7.1,27z"/>
		<path class="st0" d="M64.2,27H72v2.6h-7.8V27z"/>
		<path class="st0" d="M11.7,46.6l7.8-3.9l1.2,2.3L12.8,49L11.7,46.6z"/>
		<path class="st0" d="M58.4,45.1l1.2-2.3l7.8,3.9L66.2,49L58.4,45.1z"/>
		<path class="st0" d="M38.2,1h2.6v6.5h-2.6V1z"/>
	</g>
	<path class="st0" d="M0.5,76.4h78V79h-78V76.4z"/>
	<g>
		<path class="st1" d="M0.6,73.8l0.1-2.6l24.7,1.3l-0.1,2.6L0.6,73.8z"/>
		<path class="st1" d="M53.7,72.5l24.7-1.3l0.1,2.6l-24.7,1.3L53.7,72.5z"/>
	</g>
</g>
</svg>
