<?xml version="1.0" encoding="utf-8"?>
<!-- Generator: Adobe Illustrator 21.0.2, SVG Export Plug-In . SVG Version: 6.00 Build 0)  -->
<svg version="1.1" id="Layer_1" xmlns="http://www.w3.org/2000/svg" xmlns:xlink="http://www.w3.org/1999/xlink" x="0px" y="0px"
	 viewBox="0 0 73 80" style="enable-background:new 0 0 73 80;" xml:space="preserve">
<style type="text/css">
	.st0{fill:#FFFFFF;}
</style>
<g>
	<g>
		<path class="st0" d="M15.7,27.9c-1.1,0-2.6,0.1-4.3,0.3c-1.8,0.3-3.5,0.9-5.1,1.8c-1.6,1-3.1,2.4-4.3,4.3
			c-1.2,1.9-1.8,4.4-1.8,7.7c0,2.5,0.4,4.6,1.1,6.3s1.7,3,3,4c1.3,1,2.7,1.7,4.4,2.1c1.7,0.4,3.4,0.5,5.3,0.3c1.6-0.1,3-0.5,4.4-1
			c1.4-0.5,2.7-1.3,4.1-2.4c0.5,1,1.1,1.9,1.8,2.5c0.7,0.6,1.5,1,2.5,1c0.5,0,1-0.1,1.6-0.4c0.6-0.3,1.1-0.7,1.6-1.2
			c0.5-0.5,0.9-1,1.1-1.6c0.3-0.6,0.4-1.1,0.3-1.7l-0.1-0.1c-0.4-1.8-0.7-3.3-0.8-4.5c-0.1-1.2-0.2-2.6-0.2-4.1c0-0.9,0-1.9,0-3
			c0-1.1,0-2.2,0.1-3.2c0-0.6,0.1-1.2,0.1-1.8c0-0.6,0-1.2,0-1.8v-0.6c0-0.7,0-1.7,0-2.8c0-1.1-0.2-2.2-0.5-3.4
			c-0.3-1.2-0.7-2.3-1.4-3.5c-0.6-1.1-1.5-2.1-2.6-3c-1.1-0.9-2.6-1.6-4.3-2.1c-1.7-0.5-3.9-0.7-6.4-0.5c-1.7,0.1-3.3,0.4-4.9,0.8
			c-1.5,0.4-2.9,1-4.1,1.7c-1.2,0.7-2.3,1.5-3.1,2.5c-0.8,1-1.4,2-1.6,3.2c0,0.7,0.1,1.1,0.2,1.2c0.2,0.5,0.5,1.1,0.9,1.8
			c0.3,0.6,0.8,1,1.4,1h0.1c0.3,0,0.7,0.1,1.2,0c0.5,0,1-0.1,1.3-0.3C7,27.3,7.2,27.1,7.4,27c0.2-0.2,0.4-0.3,0.6-0.5
			c0.6-0.5,1.4-1,2.4-1.6c1-0.6,2.6-1,4.8-1.1c1.4,0,2.5,0.1,3.3,0.4c0.9,0.3,1.5,0.7,2,1.2c0.5,0.5,0.8,1.1,1,1.7
			c0.2,0.6,0.3,1.2,0.3,1.8c-0.7-0.2-1.5-0.5-2.5-0.6C18.3,28.1,17.1,28,15.7,27.9z M21.6,37.5c0.1,0.2,0.2,0.6,0.2,0.9
			c0,0.4,0.1,0.8,0.1,1.2c0,0.8-0.1,1.6-0.3,2.5c-0.2,0.9-0.6,1.8-1.2,2.6c-0.8,0.6-1.8,1.2-2.8,1.6c-1.1,0.4-2.3,0.7-3.6,0.7
			c-1.8,0-3.1-0.5-4.2-1.4c-1-1-1.5-2.2-1.5-3.9c0-1.7,0.8-3.1,2.3-4.4c1.5-1.2,3.5-1.9,6-1.9c1,0,2,0.2,2.8,0.6
			C20.2,36.5,20.9,37,21.6,37.5z"/>
		<path class="st0" d="M34.9,36.8c0.3,0.2,0.6,0.3,0.8,0.4c0.2,0.3,0.5,0.4,0.8,0.5c0.3,0.1,0.7,0.1,1.1,0.1
			c0.4-0.1,0.7-0.2,1.1-0.3c0.4-0.2,0.6-0.4,0.9-0.7c0.5,1.1,1.3,2,2.2,2.7c0.9,0.7,2.1,1.4,3.5,2c1.8,0.8,3.6,1.2,5.5,1.2
			c1.9,0,3.7-0.4,5.4-1.1c1.7-0.7,3.2-1.7,4.6-3.1c1.4-1.4,2.5-3,3.4-4.9l0.6-1.4c0.9-1.9,1.3-3.8,1.3-5.6c0-1.8-0.2-3.6-0.9-5.2
			c-0.6-1.6-1.6-3-2.8-4.2c-1.2-1.2-2.7-2.1-4.4-2.7c-1.2-0.4-2.3-0.6-3.5-0.6c-1.2,0-2.1,0.1-2.9,0.3c0.2-0.4,0.3-0.9,0.5-1.3
			c0.2-0.4,0.4-0.9,0.6-1.3L54.3,8c0.3-0.6,0.6-1.3,1-2.1c0.4-0.8,0.8-1.4,1.1-1.8c0.2-0.3,0.4-0.6,0.6-0.9c0.1-0.3,0-0.7-0.2-1
			c-0.2-0.4-0.4-0.7-0.6-0.8c-0.3-0.3-0.8-0.6-1.3-0.9C54.3,0.2,53.7,0,53.1,0c-0.7,0-1.3,0.1-2,0.4c-0.7,0.3-1.2,0.9-1.7,1.7
			c-0.3,0.4-0.7,1.2-1.3,2.4c-0.6,1.1-1.2,2.5-1.9,4c-0.7,1.5-1.5,3.2-2.3,4.9c-0.8,1.8-1.6,3.5-2.4,5.2c-0.3,0.7-0.7,1.6-1.2,2.5
			c-0.5,1-1,2-1.6,3.1c-0.6,1.2-1.2,2.4-1.8,3.6c-0.6,1.2-1.1,2.3-1.5,3.2c-0.2,0.4-0.3,0.8-0.5,1.1c-0.1,0.3-0.2,0.6-0.3,0.9
			c-0.4,0.8-0.6,1.4-0.6,1.9c0,0.5,0,0.9,0.2,1.3C34.3,36.4,34.6,36.6,34.9,36.8z M46.2,25.8l0.1-0.3c0.4-0.8,0.8-1.5,1.2-2.2
			c0.4-0.7,0.9-1.3,1.4-1.9c1.2-0.6,2.3-1,3.5-1.1c1.1-0.2,2.2-0.1,3.2,0.4c1.1,0.5,2,1.3,2.7,2.4c0.7,1.1,0.8,2.4,0.4,4
			c0.1,0.2,0.1,0.4,0,0.7c0,0.3-0.1,0.7-0.2,1.1c-0.1,0.4-0.3,0.8-0.5,1.2c-0.2,0.4-0.4,0.8-0.5,1.2c-1,2.1-2.4,3.5-4.1,4.3
			c-1.7,0.8-3.5,0.8-5.3,0c-0.9-0.4-1.6-1-2.1-1.9c-0.5-0.8-1-1.7-1.4-2.6l0-0.1C44.8,29.3,45.4,27.6,46.2,25.8z"/>
		<path class="st0" d="M59.1,55c-1.6,0.4-3.1,1.2-4.6,2.2c-1.5,1-2.7,2.3-3.8,3.8c-1,1.5-1.8,3.1-2.2,4.7c-0.4,1.6-0.5,3.2-0.3,4.7
			c0.2,1.5,0.7,3,1.6,4.4c0.8,1.4,2,2.5,3.6,3.5c0.9,0.6,2,1.1,3.1,1.4c1.1,0.3,2.2,0.4,3.3,0.4c1.1,0,2-0.3,2.8-0.7
			c0.8-0.4,1.4-1,1.8-1.8c0.2-0.4,0.3-0.9,0.2-1.5c-0.1-0.5-0.3-1-0.8-1.3c-0.2-0.2-0.5-0.3-0.7-0.3c-0.2,0-0.6,0-1.1,0
			c-0.9,0.1-1.8,0-2.7-0.1c-0.9-0.1-1.7-0.4-2.3-0.7c-0.8-0.6-1.4-1.2-1.8-2c-0.4-0.8-0.6-1.6-0.7-2.4c-0.1-0.9,0.1-1.8,0.4-2.7
			c0.3-0.9,0.8-1.8,1.5-2.7c0.6-0.7,1.3-1.4,2.1-2c0.8-0.6,1.6-1.1,2.4-1.4c0.8-0.3,1.6-0.5,2.4-0.5c0.8,0,1.5,0.2,2,0.7
			c0.5,0.4,0.9,1,1.1,1.6c0.2,0.6,0.3,1.3,0.3,2.1c-0.2,0.4-0.2,0.9,0.1,1.3c0.2,0.5,0.5,0.8,0.9,1.1c0.1,0.1,0.3,0.2,0.7,0.2
			c0.4,0.1,0.8,0.1,1.2,0.1c0.5,0,0.9-0.1,1.4-0.2c0.4-0.1,0.8-0.4,1.1-0.7c0.5-0.5,0.8-1.3,0.9-2.1c0.1-0.9-0.1-1.8-0.4-2.7
			c-0.3-1-0.8-1.9-1.5-2.8c-0.7-0.9-1.5-1.7-2.5-2.3c-1.3-0.9-2.8-1.4-4.4-1.6C62.3,54.4,60.7,54.6,59.1,55z"/>
		<path class="st0" d="M37.1,54.8c-0.1,0-0.2,0-0.2,0c-0.3,0-0.5,0-0.8,0c-0.3,0-0.5,0-0.8,0.1c-0.2,0.1-0.5,0.2-0.7,0.4
			c-0.2,0.2-0.3,0.4-0.4,0.8c-0.1,0.1-0.2,0.3-0.2,0.4c0,0.1-0.1,0.2,0,0.4c0.1,0.4,0.3,0.7,0.6,0.9c0.3,0.2,0.6,0.2,1,0.2
			c0.3,0,0.5,0,0.7,0c0.3,0,0.5,0,0.8,0c0.3,0,0.5,0,0.7,0c0.2,0,0.5,0,0.7,0h0.4v1.5c0,0.1,0,0.1,0,0.2c0,0.1,0,0.2,0,0.2
			c0,0.1,0,0.3,0,0.4c0,0.2,0,0.3,0,0.5c0,0.5,0.1,0.9,0.2,1.3c0.2,0.4,0.5,0.6,1,0.7c0.5,0.1,1-0.1,1.4-0.4
			c0.4-0.3,0.6-0.7,0.6-1.3c0-0.3,0-0.7,0-1c0-0.3,0-0.7,0-1c0-0.3,0-0.5,0-0.7c0-0.2,0-0.4,0-0.7H44c0.3,0,0.6,0,0.8,0
			c0.2,0,0.5-0.1,0.7-0.1c0.2-0.1,0.4-0.2,0.5-0.4c0.2-0.2,0.3-0.5,0.5-0.8l0,0c0.1-0.3,0.2-0.5,0.2-0.7c0-0.2,0-0.3-0.1-0.4
			c-0.1-0.1-0.2-0.2-0.3-0.3c-0.1-0.1-0.2-0.1-0.4-0.2c-0.1,0-0.2-0.1-0.4-0.1c-0.1,0-0.3,0-0.5,0c-0.2,0-0.4,0-0.6,0
			c-0.3,0-0.6,0-0.9,0c-0.3,0-0.6,0-1,0c-0.1,0-0.3,0-0.4,0c-0.1,0-0.3,0-0.4,0c0-0.1,0-0.2,0-0.2c0,0,0,0,0-0.2v-1.6
			c0,0,0-0.1,0-0.2c0-0.1,0-0.2,0-0.2c0-0.2,0-0.5,0-0.8c0-0.3,0-0.6-0.1-0.8c-0.1-0.3-0.2-0.5-0.3-0.6c-0.2-0.2-0.4-0.3-0.7-0.3
			c-0.1-0.1-0.3-0.1-0.6-0.1c-0.2,0-0.4,0-0.5,0c-0.3,0.1-0.5,0.2-0.7,0.4c-0.1,0.2-0.2,0.5-0.2,0.7c0,0.1,0,0.3,0,0.5
			c0,0.2,0,0.4,0,0.6c0,0.3,0,0.6,0,0.9c0,0.3,0,0.6,0,1c0,0.1,0,0.2,0,0.4c0,0.2,0,0.3,0,0.4h-1.5C37.3,54.8,37.2,54.8,37.1,54.8z"
			/>
	</g>
</g>
</svg>
