<?xml version="1.0" encoding="utf-8"?>
<!-- Generator: Adobe Illustrator 21.0.2, SVG Export Plug-In . SVG Version: 6.00 Build 0)  -->
<svg version="1.1" id="Layer_1" xmlns="http://www.w3.org/2000/svg" xmlns:xlink="http://www.w3.org/1999/xlink" x="0px" y="0px"
	 viewBox="0 0 1440 256" style="enable-background:new 0 0 1440 256;" xml:space="preserve">
<style type="text/css">
	.st0{fill:#92E56E;}
	.st1{fill:#5AAF35;}
	.st2{fill:#4B932C;}
	.st3{fill:#51A030;}
	.st4{fill:#9D4600;}
	.st5{fill:#823B00;}
	.st6{fill:#498727;}
	.st7{fill:#66C63C;}
</style>
<g>
	<path class="st0" d="M1438.7,107.2c-27-10.4-57.1-10.5-81-0.8c-11.4-13.3-29.2-23.2-48.3-26.6c-19.1-3.5-40.1,0.1-55.5,8.5
		c-12.9-10.6-31-17.2-49.5-17.7c-18.5-0.6-39.4,4.2-53,14.1c-15.1-10.7-43.1-8.4-57.4,4.1c-16.1-12.5-41.3-17.3-64.9-11.8
		c-23.6,5.5-43.7,21-53.1,39.5c-14.6-3.8-32.2-2-47.5,5.2c-15.3,7.2-27.8,19.5-33.9,33c20,26.4,54.2,44.5,89.4,47.7
		c35.4,3.1,70.4-1,104.7-3.2c54.6-3.5,107.8-2.5,161.7-4.7c42.1-1.8,87.5-5,128.6,12.2c15.7,6.6,30.4,16.1,47.2,18.7
		c4.1,0.6,8.3,0.8,12.4,0.6V107.2z"/>
	<path class="st1" d="M834.4,152.2c3.2-7.4,6-14.9,10.4-22.1c4.4-7.1,10.7-14,19-17.9c8.3-4,18.5-4.1,24,0.6
		c3-8.3,10.9-15.1,21.2-18c10.3-2.9,21.6-0.9,28.5,4.7c9.9-20.2,38.1-32,67.2-28.4c29,3.3,53.9,20,68.9,39.7
		c23.2-0.8,47.2,19.1,51.5,39.7c-13.6,2.9-32.5-2.6-46.6-6.1c-28.2-7.4-56.2-10.1-83.2-8.8c-26.9,1.3-52.6,6.4-78.9,10.5
		C889.9,150.4,863,153.9,834.4,152.2z"/>
	<path class="st2" d="M230.7,125.6c-18.6-24.3-49.3-45-85.1-49c-35.8-4.4-70.8,10.2-82.9,35.1c-8.5-6.9-22.4-9.4-35.2-5.9
		C14.8,109.3,5,117.7,1.3,128c0,0,0,0,0,0v46.2c11.9-1.4,23.6-3.1,35.3-4.9c32.5-5.1,64.2-11.4,97.4-13
		c33.4-1.6,67.9,1.6,102.7,10.8c17.4,4.3,40.8,11.1,57.6,7.5C288.9,149.2,259.3,124.6,230.7,125.6z"/>
	<path class="st0" d="M108.8,179.4c0-21.5,14.3-45.5,38.5-60.6c24-15.2,56.6-20,82-12.6c10-19.7,35.1-34.8,64.8-35.1
		c29.7-0.5,57.9,14.3,68.3,33.8c10.4-4.8,22.7-5.7,34.8-1.2c12.1,4.5,21.5,13.5,24.4,23.1c17.6-2,36.5,1.2,51.2,12.6
		c14.7,11.3,22.9,27.6,22.3,41.9c-92.3,15.9-181.7,20.9-263,40.9c-26.6,6.2-53.5,14.2-81.3,11.4C123.2,231,108.6,207.1,108.8,179.4z
		"/>
	<path class="st3" d="M496.8,119.3c-106.2,7.3-213.4,28.7-305.9,81.5c12.5-0.1,21.5,4.5,33.9,4.4c3.2,0,6.6,0,9.3,1.6
		c3.5,2.1,5.2,6.2,7.6,9.6c5.8,8.2,16.2,11.6,25.8,14.4c35.8,10.4,72.2,18.7,108.9,25.2h363.7c55.1-9.6,109.5-23.6,162.3-42
		c16-5.6,30.9-14,40.8-27.8C803.5,126.7,648.3,109,496.8,119.3z"/>
	<path class="st1" d="M707.6,249.7c-220.2-99-471.5-143.1-706.3-92.4V256h720.2C716.8,253.9,712.2,251.8,707.6,249.7z"/>
	<path class="st2" d="M1438.7,256v-81.9C1083.6,79.4,696.2,108.6,359.5,256H1438.7z"/>
	<ellipse class="st3" cx="116.8" cy="198.5" rx="61.1" ry="8.1"/>
	<g>
		<ellipse class="st3" cx="314.8" cy="169.9" rx="25.6" ry="3.4"/>
		<g>
			<path class="st4" d="M318.4,168.9L318.4,168.9c-1.8,1.5-4.5,1.5-6.4,0l0,0v-38.3h6.4V168.9z"/>
			<path class="st5" d="M318.4,168.9v-24.7c-0.9-0.3-1.8-0.4-2.7-0.3c-1.4,0.1-2.4,0.5-3.7,1v1.3c3.1,3.6,4.6,8.4,4.9,13.2
				c0.3,3.5-0.1,7.1-0.6,10.6C317,169.7,317.7,169.4,318.4,168.9z"/>
			<path class="st1" d="M331.7,115.1c-0.5-1.1-1.1-2.2-1.7-3.4c-2.2-16.8-8-33.8-14.8-33.8c-7,0-13,18.4-15,35.9
				c-1,1.7-2.1,3.5-3,5.3c-2.3,4.7-3.4,10.1-2.6,15.3c0.8,5.2,3.7,10.1,8.2,12.8c2.8,1.7,6.2,2.3,9.4,1.8c1,0.1,1.9,0.2,2.9,0.2
				c0.7,0,1.3,0,2-0.1c4.2,0.3,8.5-1.3,11.7-4.1c4-3.6,6.1-9,6.4-14.3C335.5,125.3,334,120,331.7,115.1z"/>
			<path class="st3" d="M329.9,111.8c-1.6-12-5-24-9.2-29.9c1.4,3.2,2.2,6.6,3,10c1.6,7,3.2,14.2,1.9,21.2
				c-4.5-1.8-10.2-0.9-14.3,1.8c3.8-1.8,8.5,0.3,11.2,3.5c2.7,3.2,3.6,7.6,3.6,11.8c-0.1,5-1.4,10.1-4.2,14.3
				c-1.2,1.8-2.6,3.4-4.3,4.7c4,0.2,8.2-1.4,11.2-4.1c4-3.6,6.1-9,6.4-14.3c0.3-5.4-1.2-10.7-3.5-15.5
				C331.1,114,330.5,112.9,329.9,111.8z"/>
		</g>
	</g>
	<g>
		<ellipse class="st6" cx="1162.9" cy="159.2" rx="33.1" ry="4.4"/>
		<g>
			<path class="st4" d="M1167.5,158L1167.5,158c-2.4,2-5.9,2-8.3,0l0,0v-49.6h8.3V158z"/>
			<path class="st5" d="M1167.5,158V126c-1.1-0.3-2.3-0.5-3.5-0.4c-1.8,0.1-3.2,0.7-4.7,1.2v1.7c4,4.7,5.9,10.9,6.3,17
				c0.3,4.6-0.1,9.2-0.7,13.7C1165.8,159.1,1166.7,158.6,1167.5,158z"/>
			<path class="st1" d="M1184.7,88.4c-0.7-1.5-1.5-2.9-2.3-4.3c-2.9-21.8-10.4-43.8-19.1-43.8c-9.1,0-16.8,23.9-19.4,46.5
				c-1.4,2.3-2.7,4.5-3.8,6.9c-2.9,6.1-4.4,13.1-3.4,19.8c1,6.7,4.8,13.1,10.7,16.6c3.6,2.1,8,3,12.2,2.3c1.2,0.2,2.5,0.2,3.8,0.2
				c0.9,0,1.7,0,2.6-0.1c5.4,0.4,11-1.6,15.1-5.3c5.2-4.7,7.9-11.6,8.3-18.6C1189.7,101.6,1187.8,94.6,1184.7,88.4z"/>
			<path class="st3" d="M1182.5,84c-2.1-15.5-6.4-31.1-11.9-38.8c1.8,4.1,2.9,8.5,3.9,12.9c2.1,9,4.1,18.3,2.4,27.4
				c-5.8-2.3-13.2-1.2-18.5,2.3c4.9-2.3,11,0.4,14.5,4.5c3.5,4.2,4.7,9.8,4.6,15.3c-0.1,6.5-1.8,13.1-5.4,18.6
				c-1.5,2.3-3.4,4.3-5.5,6.1c5.2,0.2,10.6-1.8,14.5-5.3c5.2-4.7,7.9-11.6,8.3-18.6c0.4-6.9-1.5-13.9-4.6-20.1
				C1184,86.9,1183.3,85.5,1182.5,84z"/>
		</g>
	</g>
	<g>
		<path class="st4" d="M120.7,196.6L120.7,196.6c-3.1,2.5-7.5,2.5-10.6,0l0,0v-63.5h10.6V196.6z"/>
		<g>
			<path class="st1" d="M174.3,107.7c-1.7-3.8-4.6-7-8.1-9.2c1.5-1.8,2.9-3.8,4-6c3.1-6.2,3.9-13.9,1-20.2
				c-2.3-5.1-7.3-9.2-12.7-10.2c0.5-3.1,0.2-6.5-0.4-9.4c-0.8-3.7-2.8-7.1-6-9.2c-3.1-2.1-6.8-2.7-10.5-3.1
				c0.5-7.4-3.2-15.8-8.1-21.4c-4.9-5.7-12.3-9.1-19.8-8.7c-5,0.3-10.5,3.5-13.5,7.8c-1.8,0-3.5,0.2-5.2,0.8
				c-6.3,2.1-10.5,8.9-9.9,15.5c0.2,2.4,1,4.7,2.3,6.8c-5.1,0.5-10,2.9-13.4,6.7c-5,5.6-6.6,14.1-3.9,21.2c0.4,1,0.9,2,1.5,3
				c-4.3,1.3-8.4,3.7-11.4,7c-5.9,6.6-7.7,16.6-4.6,24.9c1.6,4.1,4.4,7.7,7.9,10.4c-6.2,9.6-8.2,22-4.7,32.9
				c1.6,4.9,4.3,9.6,8.6,12.3c2.6,1.7,5.7,2.5,8.7,3.1c13.3,2.5,27.4,0.2,39.3-6.3c11.3,8.6,27.1,10.9,40.5,6.4
				c4-1.3,8-3.3,10.7-6.6c3.8-4.6,4.1-11.6,1.4-16.8c2.1-2.4,3.8-4.9,5.3-7.7C176.8,124.2,177.7,115.2,174.3,107.7z"/>
			<path class="st7" d="M94.7,112.1c-3-3-13-5-22.7,1c-8.8-3.3-15.2-12.2-15.4-21.6c-0.1-4.6,1.3-9.1,3.7-12.9
				c-0.1,0.1-0.2,0.2-0.3,0.3c-5.9,6.6-7.7,16.6-4.6,24.9c1.6,4.1,4.4,7.7,7.9,10.4c-6.2,9.6-8.2,22-4.7,32.9
				c1.5,4.5,3.9,8.9,7.8,11.7c-2-4.3-3.4-8.9-3.8-13.6c-0.7-8.7,1.8-17.8,7.5-24.4C75.8,114.2,86,111.1,94.7,112.1z"/>
			<path class="st7" d="M120.7,62c-0.1,0-0.1,0-0.2,0c-5.8,0.3-12.4,4.1-15.9,9.1c-2.1,0-4.2,0.3-6.2,0.9
				c-7.4,2.5-12.3,10.4-11.6,18.2c0.1,1.7,0.6,3.3,1.2,4.9c-0.6-6.5,2.3-13.2,7.6-17c6-4.2,14.5-4.4,20.7-0.5
				c-2.1-2.6-4.7-4.9-7.7-6.5C111.4,66.7,115.8,63.3,120.7,62z"/>
			<path class="st3" d="M174.3,107.7c-1.7-3.8-4.6-7-8.1-9.2c1.5-1.8,2.9-3.8,4-6c3.1-6.2,3.9-13.9,1-20.2
				c-2.3-5.1-7.3-9.2-12.7-10.2c0.5-3.1,0.2-6.5-0.4-9.4c-0.8-3.7-2.8-7.1-6-9.2c-3.1-2.1-6.8-2.7-10.5-3.1
				c0.5-7.4-3.2-15.8-8.1-21.4c-1.3-1.5-2.8-2.9-4.4-4c5,8.2,7.3,18.1,6.1,27.7c-6-2.1-13.5,0.2-18.2,4.5c7.2-1.8,15.5-1.7,22.4,1.1
				c6.9,2.8,12.5,9.3,12.8,16.7c-2.3-0.4-6.1,0.2-7.8,1.8c5.1,0.7,8.4,4.1,10.8,8.7c2.5,4.6,2.6,10.3,0.3,15
				c-5.4-3.2-12.6-4.4-18.8-3.8c-6.2,0.7-12.2,3.4-16.8,7.6c6.4-3.6,14.6-4.2,21.5-1.8c6.9,2.4,12.7,7.9,15.4,14.7
				c-4.6-1-9.8,0-14,1.9c3.7-0.5,7.9-0.1,10.6,2.5c2.4,2.4,3.1,6.1,2.6,9.5c-0.5,3.4-2.1,6.4-3.7,9.5c-9.4-5.2-22.6-5.4-32.3-0.8
				c7.1-1,14.3-0.1,20.7,3.1c6.4,3.2,11.5,9.8,11.2,16.9c-0.2,4.2-2.1,8.2-4.8,11.4c-1.1,1.4-2.4,2.6-3.7,3.7
				c4.2-0.1,8.4-0.9,12.5-2.2c4-1.3,8-3.3,10.7-6.6c3.8-4.6,4.1-11.6,1.4-16.8c2.1-2.4,3.8-4.9,5.3-7.7
				C176.8,124.2,177.7,115.2,174.3,107.7z"/>
			<path class="st7" d="M102.1,46.2c-2.4-3-6.3-4.1-10-3.1c-3.1-4.6-4-10.5-2.5-15.8c0.9-3.3,2.8-6.3,5.3-8.6c0,0-0.1,0-0.1,0
				c-6.3,2.1-10.5,8.9-9.9,15.5c0.2,2.4,1,4.7,2.3,6.8c-5.1,0.5-10,2.9-13.4,6.7c-5,5.6-6.6,14.1-3.9,21.2c0.2,0.5,0.4,1,0.6,1.4
				c-0.4-7.5,3-15.1,8.9-19.9C85.5,45.6,94.6,43.9,102.1,46.2z"/>
		</g>
	</g>
	<g>
		<path class="st6" d="M1371.7,200.2c-1.1,4.4-28.8,0.9-62.6-1c-33.7-2.1-61.6-1.8-62.2-6.4c-0.7-4.3,27.6-12,63.2-9.8
			C1345.6,185.1,1372.9,196,1371.7,200.2z"/>
		<g>
			<path class="st4" d="M1315.6,190.4L1315.6,190.4c-3.5,2.9-8.5,2.9-12,0l0,0v-72.1h12V190.4z"/>
			<path class="st5" d="M1309.4,158.5c1.9,1.5,4,2.8,6.2,3.9v-44.2h-12v43C1305.6,160.5,1307.5,159.6,1309.4,158.5z"/>
			<path class="st1" d="M1376.4,89.5c-3.1-6.9-9.7-12.2-17-13.6c0.7-4.1,0.3-8.7-0.6-12.5c-1-4.9-3.8-9.5-7.9-12.3
				c-4.1-2.8-9.1-3.7-14-4.1c0.7-9.9-4.2-21-10.7-28.6c-6.5-7.5-16.5-12.1-26.4-11.6c-6.6,0.4-14,4.6-18,10.4c-2.4,0-4.7,0.3-7,1.1
				c-8.3,2.8-14,11.8-13.2,20.6c0.3,3.2,1.3,6.3,3,9c-6.8,0.7-13.3,3.9-17.9,9c-6.7,7.5-8.8,18.9-5.2,28.3c1.8,4.7,5,8.8,8.9,11.8
				c-7,10.9-9.3,24.9-5.3,37.3c1.8,5.5,4.9,10.9,9.8,14c3,1.9,6.5,2.8,9.9,3.5c15.1,2.8,31.1,0.2,44.6-7.2
				c12.8,9.8,30.7,12.3,46,7.3c4.6-1.5,9.1-3.8,12.1-7.5c4.3-5.3,4.7-13.1,1.5-19c2.3-2.7,4.4-5.6,6-8.8
				C1379.2,108.2,1380.2,98,1376.4,89.5z"/>
			<path class="st3" d="M1359.4,75.9c0.7-4.1,0.3-8.7-0.6-12.5c-1-4.9-3.8-9.5-7.9-12.3c-4.1-2.8-9.1-3.7-14-4.1
				c0.7-9.9-4.2-21-10.7-28.6c-4.4-5.1-10.3-8.8-16.7-10.5c4.3,3.1,7.8,7.2,10.2,12c4.3,8.7,4.5,19.3,0.5,28.1
				c-4.8-3.3-11.5-4.4-17.3-3.7c-5.8,0.7-11.4,3.7-15.2,8.1c9.4-3.4,20-1.9,28.6,3.1c8.6,5,14.8,14,16.5,23.9
				c-10.3-1.1-21.4,4.8-27,13.6c6.8-3.8,12.9-7,20.6-7.8c7.7-0.7,15.8,0.9,22,5.7c6.1,4.7,9.9,12.7,8.6,20.3
				c-4.5-2.3-11-1.1-14.5,2.4c6.3-2.2,13.6,1.8,17.6,7.2c4,5.4,4.6,12.8,2.4,19.1c-1.8,5.1-5.4,9.4-9.7,12.7
				c0.9-0.2,1.9-0.5,2.8-0.8c4.6-1.5,9.1-3.8,12.1-7.5c4.3-5.3,4.7-13.1,1.5-19c2.3-2.7,4.4-5.6,6-8.8c4.2-8.3,5.1-18.5,1.3-27
				C1373.2,82.6,1366.7,77.3,1359.4,75.9z"/>
			<path class="st7" d="M1286,94.5c-3.4-3.4-14.7-5.6-25.8,1.1c-10-3.7-17.3-13.9-17.5-24.6c-0.1-5.2,1.5-10.3,4.3-14.7
				c-0.1,0.1-0.3,0.2-0.4,0.4c-6.7,7.5-8.8,18.9-5.2,28.3c1.8,4.7,5,8.8,8.9,11.8c-7,10.9-9.3,24.9-5.3,37.3
				c1.7,5.1,4.5,10.1,8.8,13.3c-2.3-4.9-3.8-10.1-4.3-15.4c-0.8-9.9,2-20.2,8.5-27.7C1264.6,96.8,1276.1,93.3,1286,94.5z"/>
			<path class="st7" d="M1300,6.8c-0.1,0-0.2,0-0.2,0c-6.6,0.4-14,4.6-18,10.4c-2.4,0-4.7,0.3-7,1.1c-8.3,2.8-14,11.8-13.2,20.6
				c0.2,1.9,0.6,3.8,1.3,5.5c-0.7-7.3,2.6-15,8.7-19.3c6.8-4.8,16.5-5,23.5-0.5c-2.4-3-5.4-5.6-8.7-7.4
				C1289.3,12.1,1294.3,8.3,1300,6.8z"/>
		</g>
	</g>
</g>
</svg>
