<?xml version="1.0" encoding="utf-8"?>
<!-- Generator: Adobe Illustrator 21.0.2, SVG Export Plug-In . SVG Version: 6.00 Build 0)  -->
<svg version="1.1" id="Layer_1" xmlns="http://www.w3.org/2000/svg" xmlns:xlink="http://www.w3.org/1999/xlink" x="0px" y="0px"
	 viewBox="0 0 75 76" style="enable-background:new 0 0 75 76;" xml:space="preserve">
<style type="text/css">
	.st0{fill:#FFFFFF;}
</style>
<g>
	<g>
		<g>
			<path class="st0" d="M55.1,0.5H19.9v35.3h17.6h17.6V0.5z M37.5,28.7C31.7,28.7,27,24,27,18.1S31.7,7.6,37.5,7.6S48,12.3,48,18.1
				S43.3,28.7,37.5,28.7z"/>
		</g>
		<path class="st0" d="M0,40.2v35.3h35.3V40.2H17.6H0z M18.3,46.5l3.4,6.9l7.6,1.1c0.3,0,0.5,0.2,0.6,0.5c0.1,0.3,0,0.6-0.2,0.8
			l-5.5,5.4l1.3,7.6c0,0.3-0.1,0.6-0.3,0.7c-0.1,0.1-0.3,0.1-0.4,0.1c-0.1,0-0.2,0-0.3-0.1L17.6,66l-6.8,3.6
			c-0.2,0.1-0.5,0.1-0.8-0.1c-0.2-0.2-0.3-0.4-0.3-0.7l1.3-7.6l-5.5-5.4c-0.2-0.2-0.3-0.5-0.2-0.8c0.1-0.3,0.3-0.5,0.6-0.5l7.6-1.1
			l3.4-6.9C17.2,46,18.1,46,18.3,46.5z"/>
		<path class="st0" d="M57.4,40.2H39.7v35.3H75V40.2H57.4z M69.4,66.3c-0.1,0.2-0.4,0.4-0.7,0.4H45.9c-0.3,0-0.5-0.2-0.7-0.4
			c-0.1-0.2-0.1-0.5,0.1-0.8l11.4-16.1c0.3-0.4,0.9-0.4,1.2,0l11.4,16.1C69.5,65.7,69.5,66,69.4,66.3z"/>
	</g>
</g>
</svg>
