<?xml version="1.0" encoding="utf-8"?>
<!-- Generator: Adobe Illustrator 21.0.2, SVG Export Plug-In . SVG Version: 6.00 Build 0)  -->
<svg version="1.1" id="Layer_1" xmlns="http://www.w3.org/2000/svg" xmlns:xlink="http://www.w3.org/1999/xlink" x="0px" y="0px"
	 viewBox="0 0 25 25" style="enable-background:new 0 0 25 25;" xml:space="preserve">
<style type="text/css">
	.st0{fill:#51AC57;}
</style>
<g id="globe-2">
	<polygon id="XMLID_20_" class="st0" points="10.4,4.7 10.4,4.8 10.4,4.8 	"/>
	<path id="XMLID_168_" class="st0" d="M12.5,0.2C5.7,0.2,0.2,5.7,0.2,12.5s5.5,12.3,12.3,12.3c6.8,0,12.3-5.5,12.3-12.3
		S19.3,0.2,12.5,0.2z M23.8,12.5c0,0.2,0,0.4,0,0.6c-0.1-0.2-0.2-0.5-0.2-0.6c0-0.2-0.3-0.8-0.3-0.8s-0.3-0.3-0.4-0.4
		c-0.2-0.1-0.3-0.3-0.6-0.5c-0.3-0.2-0.4-0.3-0.7-0.3c-0.3,0-0.5-0.3-0.8-0.5c-0.3-0.2-0.3-0.1-0.3-0.1s0.3,0.5,0.3,0.6
		c0,0.1,0.4,0.3,0.8,0.3c0,0,0.3,0.5,0.4,0.6c0.1,0.1,0,0.3-0.3,0.4c-0.3,0.2-0.2,0.1-0.3,0.3c-0.1,0.1-0.6,0.3-0.7,0.4
		c-0.1,0.1-0.6,0.3-0.9,0.1c-0.1-0.1-0.1-0.4-0.2-0.6c-0.1-0.2-1-1.5-1.4-2.1C18,10,17.8,9.7,17.7,9.6C17.6,9.5,18,9.5,18,9.5
		s0-0.3,0-0.5c0-0.2,0-0.5,0-0.5s-0.4,0.3-0.6,0.3c-0.1,0.1-0.3-0.2-0.4-0.4c-0.2-0.2-0.3-0.5-0.4-0.7c0-0.2,0.2-0.3,0.2-0.3
		l0.4-0.2c0,0,0.5-0.1,0.8,0c0.3,0,0.8,0.1,0.8,0.1s0.1-0.3,0-0.4c-0.2-0.1-0.6-0.3-0.7-0.3c-0.2,0,0.1-0.2,0.3-0.4l-0.5-0.1
		c0,0-0.4,0.2-0.6,0.3c-0.1,0-0.3,0.1-0.5,0.3c-0.2,0.2,0.1,0.5-0.1,0.6c-0.2,0.1-0.3,0.1-0.4,0.2c-0.1,0-0.5,0-0.5,0
		c-0.4,0-0.2,0.4,0,0.5l-0.3-0.4L15.1,7c0,0-0.4-0.3-0.5-0.3c-0.2-0.1-0.7-0.4-0.7-0.4l0,0.4l0.5,0.5l0,0l0.3,0.3l-0.6,0V7.2
		c-0.5-0.1-0.4-0.3-0.5-0.3c-0.1-0.1-0.4-0.3-0.4-0.3s-0.5,0.1-0.6,0.1c-0.1,0-0.2,0.2-0.4,0.3c-0.3,0.1-0.4,0.2-0.5,0.3
		c-0.1,0.1-0.4,0.5-0.5,0.7c-0.2,0.2-0.5,0.1-0.6,0.1C10.5,8.1,9.8,8,9.8,8V7.3c0,0,0.1-0.4,0-0.5l0.4-0.1l0.6-0.1l0.2-0.1l0.3-0.3
		c0,0-0.3-0.2-0.1-0.5c0.1-0.1,0.5-0.2,0.6-0.3C12,5.1,12.3,5,12.3,5s0.3-0.3,0.6-0.6c0,0,0.2-0.1,0.5-0.2c0,0,0.7,0.6,0.8,0.6
		c0.1,0,0.6-0.3,0.6-0.3s0.1-0.4,0.1-0.5c0-0.1-0.3-0.6-0.3-0.6s-0.1,0.2-0.3,0.4c-0.1,0.2-0.2,0.4-0.2,0.4s-0.6,0-0.6-0.2
		c0-0.1-0.1-0.3-0.2-0.5c0-0.1-0.4-0.1-0.6,0c-0.3,0.1,0-0.5,0-0.5s0.3-0.3,0.4-0.3c0.2,0,0.6-0.2,0.7-0.3c0.2,0,0.7-0.2,0.9-0.2
		c0.2,0,0.5,0.1,0.6,0.1c0.1,0,0.6,0,0.6,0l0.9-0.1c0,0,0.8,0.3,0.5,0.5c0,0,0.3,0.2,0.4,0.3C18,3.3,18.3,3.1,18.5,3
		C21.6,5,23.8,8.5,23.8,12.5z M3.5,5.9c0,0.2-0.2,0.2,0,0.6c0.3,0.6,0,0.8,0,0.8S2.8,7.8,2.7,7.9C2.6,8,2.2,8.4,2.4,8.3
		c0.2-0.1,0.5-0.3,0.3,0.1C2.5,8.7,2.1,9.3,2,9.5c-0.1,0.2-0.5,0.7-0.5,1c0,0.3-0.2,0.8-0.1,1c0,0.1-0.1,0.6-0.1,0.8
		C1.3,9.8,2.1,7.6,3.5,5.9C3.5,5.8,3.5,5.9,3.5,5.9z M4.9,4.2c1-1,2.3-1.7,3.6-2.2C8.3,2.2,8.2,2.3,8.2,2.3s-0.3,0-0.8,0.6
		C6.8,3.5,6.9,3.4,6.8,3.5C6.7,3.7,6.7,3.7,6.4,3.9C6.1,4.2,6,4.4,6,4.4L5.5,4.6L5.1,4.4c0,0-0.3,0.1-0.3,0C4.8,4.3,4.9,4.3,4.9,4.2
		z M10,5.2L9.8,5L10,4.6l0.4,0.2V4l0.4-0.2l0.3,0.5l0.5,0.6L11.3,5l-0.9,0.2V4.8L10,5.2z M15.5,9.2c0.1-0.1,0.4,0.1,0.4,0.1
		s1.1,0.2,1.2,0.3c0.2,0.1,0.5,0.2,0.6,0.3c0.1,0.1,0.4,0.5,0.4,0.6c0,0.1,0.3,0.6,0.3,0.8c0,0.2,0.2,0.6,0.3,0.8
		c0.1,0.2,0.8,1.1,1.1,1.6l0.8-0.1c0,0-0.1,0.4-0.2,0.5c-0.1,0.1-0.3,0.5-0.5,0.6c-0.1,0.2-0.3,0.4-0.6,0.6
		c-0.3,0.2-0.3,0.4-0.4,0.6c-0.1,0.2-0.3,0.6-0.3,0.6s0.1,0.8,0.1,1c0,0.2-0.3,0.6-0.3,0.6l-0.4,0.4l-0.5,0.7l0,0.6
		c0,0-0.4,0.3-0.6,0.5c-0.2,0.2-0.2,0.3-0.3,0.5c-0.2,0.2-0.8,0.5-1,0.5c-0.2,0-1.1,0.2-1.1,0.2v-0.4l0-0.4c0,0-0.1-0.5-0.3-0.7
		c-0.1-0.2-0.1-0.4-0.3-0.6c-0.2-0.2-0.3-0.4-0.3-0.5c0-0.1,0-0.5,0-0.5S14,18,14,17.8c0.1-0.2,0-0.4-0.1-0.6
		c-0.1-0.2-0.1-0.6-0.1-0.7c0-0.1-0.3-0.3-0.5-0.5c-0.1-0.1-0.1-0.3-0.1-0.5c0-0.2-0.1-0.6-0.1-0.9c0-0.3-0.4-0.1-0.6,0
		c-0.3,0.1-0.4-0.1-0.4-0.3c0-0.3-0.5,0-0.8,0.1c-0.3,0.2-0.6,0.2-1,0.3c-0.3,0.1-0.5-0.1-0.5-0.1s-0.3-0.3-0.5-0.4
		c-0.2-0.1-0.4-0.4-0.6-0.6c-0.2-0.2-0.6-0.9-0.6-1.1c0-0.3,0-0.4,0-0.7c0-0.3,0-0.5,0-0.7c0-0.2,0.2-0.5,0.3-0.7
		c0.1-0.2,0.6-0.5,0.7-0.6c0.1-0.1,0.4-0.3,0.4-0.5c0-0.2,0.2-0.3,0.3-0.4c0.1-0.2,0.4-0.6,0.8-0.4c0,0,0.3,0,0.5-0.1
		c0.1,0,0.5-0.2,0.6-0.3c0.2-0.1,0.6-0.1,0.6-0.1s0.3,0.1,0.5,0.1c0.1,0,0.5-0.1,0.5-0.1s0.2,0.6,0.2,0.7c0,0.1,0.1,0.3,0.3,0.3
		C14.1,9.3,15.1,9.6,15.5,9.2z M20.4,17.5c0,0.1,0,0.5-0.1,0.6c0,0.2-0.1,0.5-0.2,0.6c0,0.2-0.3,0.5-0.4,0.6
		c-0.1,0.1-0.3,0.3-0.5,0.4c-0.1,0-0.2-0.3-0.2-0.5c0-0.2,0.3-0.6,0.3-0.6s0-0.3,0.1-0.4c0-0.2,0.6-0.4,0.6-0.4l0.3-0.6
		C20.3,17.2,20.4,17.4,20.4,17.5z M1.5,15c0.1,0,0.1,0.1,0.2,0.2c0.2,0.1,0.3,0.2,0.5,0.3c0.2,0.1,0.3,0.2,0.6,0.3
		c0.3,0.1,0.2,0,0.5,0.4c0.3,0.4,0.3,0.4,0.4,0.6C3.8,17,3.9,17.2,4,17.4c0.1,0.1,0.3,0.2,0.5,0.3c0.1,0.1,0.3,0.2,0.5,0.2
		c0.1,0,0.5,0.4,0.7,0.4c0.2,0,0.2,0.5,0.2,0.5l-0.2,0.6L5.5,20l0.2,0.5c0,0-0.3,0.2-0.4,0.2c-0.2,0-0.2,0.1-0.4,0.1
		C3.2,19.2,2,17.2,1.5,15z"/>
</g>
</svg>
