<?xml version="1.0" encoding="utf-8"?>
<!-- Generator: Adobe Illustrator 21.0.2, SVG Export Plug-In . SVG Version: 6.00 Build 0)  -->
<svg version="1.1" id="Layer_1" xmlns="http://www.w3.org/2000/svg" xmlns:xlink="http://www.w3.org/1999/xlink" x="0px" y="0px"
	 viewBox="0 0 45 45" style="enable-background:new 0 0 45 45;" xml:space="preserve">
<style type="text/css">
	.st0{fill:#FFFFFF;}
</style>
<g>
	<path id="XMLID_27_" class="st0" d="M35.2,20.8c-0.2,0-0.4,0-0.6,0c0,0,0-0.1,0-0.1c0-0.2,0-0.3,0-0.4c0-0.8,0-1.6,0-2.5
		c0-0.1-0.1-0.4-0.2-0.4c-0.7,0-1.5,0-2.3,0c0,1,0,1.9,0,2.9c0,0.2,0,0.4,0,0.6c-1.1,0-2.3,0-3.4,0c0,0.3,0,0.4,0,0.6
		c0,0.6,0.1,1.2,0.1,1.9c0.6,0,1.2,0,1.8,0.1c0.5,0,1,0,1.6,0c0,1.2,0,2.3,0,3.4c0.8,0,1.6,0,2.5,0c0-1.1,0-2.2,0-3.4
		c1.2,0,2.3,0,3.4,0c0-0.7,0-1.3,0-1.9c0-0.2,0-0.4,0-0.6C37,20.8,36.1,20.8,35.2,20.8z"/>
	<path id="XMLID_26_" class="st0" d="M25.5,20.5c-2.1,0-4.3,0-6.4,0c-0.6,0-1.2,0-1.8,0c-0.1,0-0.3,0.1-0.3,0.2c0,1.2,0,2.5,0,3.8
		c1.8,0,3.5,0,5.2,0c-0.1,0.3-0.1,0.4-0.2,0.6c-0.8,2.4-3.3,3.6-5.9,3.1c-3.3-0.5-5.3-3.6-4.7-6.9c0.1-0.5,0.2-0.9,0.4-1.3
		c1.1-2.4,3.8-3.8,6.4-3.3c1,0.2,1.8,0.7,2.5,1.3c1-1,1.9-1.9,2.9-2.9c-0.1-0.1-0.2-0.1-0.2-0.2c-2.3-2-5-2.7-8-2.2
		c-4.3,0.7-7.4,4.1-8.1,8c-0.3,1.7-0.2,3.5,0.5,5.2c1.6,4.2,5.8,6.7,10.3,6.2c2.2-0.2,4.2-1,5.7-2.7c2.3-2.4,2.8-5.3,2.5-8.5
		C26.2,20.6,26,20.5,25.5,20.5z"/>
</g>
</svg>
