<?xml version="1.0" encoding="utf-8"?>
<!-- Generator: Adobe Illustrator 21.0.2, SVG Export Plug-In . SVG Version: 6.00 Build 0)  -->
<svg version="1.1" id="Layer_1" xmlns="http://www.w3.org/2000/svg" xmlns:xlink="http://www.w3.org/1999/xlink" x="0px" y="0px"
	 viewBox="0 0 64 80" style="enable-background:new 0 0 64 80;" xml:space="preserve">
<style type="text/css">
	.st0{fill:#FFFFFF;}
</style>
<g>
	<g>
		<g>
			<path class="st0" d="M27.5,62.5c-3.1,2.9-7.4,3.5-11.3,1.7c-1.4-0.7-2.6-1.6-3.5-2.7L7.5,73c-0.2,0.5,0,0.9,0.2,1.1
				c0.1,0.1,0.5,0.5,1,0.3l3.8-1.1c0.4-0.1,0.9-0.2,1.3-0.2c1.8,0,3.5,1,4.4,2.7l1.7,3.5c0.3,0.5,0.7,0.6,0.9,0.6
				c0.2,0,0.7-0.1,0.9-0.6L30,61.1C29.1,61.3,28.2,61.8,27.5,62.5z"/>
		</g>
	</g>
	<g>
		<g>
			<path class="st0" d="M56.5,73l-5.2-11.5c-0.9,1.1-2.1,2-3.5,2.7c-3.8,1.8-8.1,1.2-11.3-1.7c-0.7-0.7-1.6-1.1-2.5-1.4l8.3,18.3
				c0.2,0.5,0.7,0.6,0.9,0.6c0.2,0,0.7,0,0.9-0.6l1.7-3.5c0.8-1.7,2.5-2.7,4.4-2.7c0.4,0,0.9,0.1,1.3,0.2l3.8,1.1
				c0.6,0.2,0.9-0.2,1-0.3C56.4,73.9,56.7,73.5,56.5,73z"/>
		</g>
	</g>
	<g>
		<g>
			<path class="st0" d="M60.6,32.5c-4.3-3-5.7-8.8-3.1-13.4c1.6-2.7,0.8-5.4-0.5-7c-1.3-1.6-3.7-3-6.8-2.1c-5,1.5-10.4-1.1-12.4-6
				C36.7,1,34.1,0,32,0c-2.1,0-4.7,1-5.8,4c-1.9,4.9-7.4,7.5-12.4,6C10.8,9,8.3,10.4,7,12c-1.3,1.6-2.1,4.3-0.5,7
				c2.6,4.5,1.3,10.4-3.1,13.4c-2.6,1.8-3,4.6-2.6,6.6c0.5,2,2.1,4.3,5.2,4.8c5.2,0.8,8.9,5.5,8.6,10.7c-0.2,3.1,1.7,5.2,3.5,6.1
				c1.9,0.9,4.7,1.1,7-1c1.9-1.8,4.4-2.7,6.9-2.7c2.5,0,4.9,0.9,6.9,2.7c2.3,2.1,5.1,1.9,7,1c1.9-0.9,3.8-3,3.5-6.1
				c-0.4-5.2,3.4-9.9,8.6-10.7c3.1-0.5,4.7-2.8,5.2-4.8C63.6,37,63.2,34.2,60.6,32.5z M32,52.5c-11.3,0-20.6-9.2-20.6-20.6
				S20.7,11.4,32,11.4s20.6,9.2,20.6,20.6C52.6,43.3,43.3,52.5,32,52.5z"/>
		</g>
	</g>
	<g>
		<g>
			<path class="st0" d="M32,15.2c-9.2,0-16.7,7.5-16.7,16.7S22.8,48.7,32,48.7s16.7-7.5,16.7-16.7S41.2,15.2,32,15.2z M40.6,30.3
				l-10.4,7.6c-0.3,0.2-0.7,0.4-1.1,0.4c-0.1,0-0.2,0-0.3,0c-0.5-0.1-1-0.4-1.3-0.8L24.3,33c-0.6-0.9-0.4-2.1,0.5-2.7
				c0.9-0.6,2.1-0.4,2.7,0.5l2,2.8l8.8-6.5c0.9-0.6,2.1-0.4,2.7,0.4C41.6,28.5,41.4,29.7,40.6,30.3z"/>
		</g>
	</g>
</g>
</svg>
