<?xml version="1.0" encoding="utf-8"?>
<!-- Generator: Adobe Illustrator 21.0.2, SVG Export Plug-In . SVG Version: 6.00 Build 0)  -->
<svg version="1.1" id="Layer_1" xmlns="http://www.w3.org/2000/svg" xmlns:xlink="http://www.w3.org/1999/xlink" x="0px" y="0px"
	 viewBox="0 0 20 20" style="enable-background:new 0 0 20 20;" xml:space="preserve">
<style type="text/css">
	.st0{fill:#0071CD;}
</style>
<g>
	<path id="XMLID_27_" class="st0" d="M18.2,8.9c-0.1,0-0.3,0-0.4,0c0,0,0-0.1,0-0.1c0-0.1,0-0.2,0-0.3c0-0.5,0-1.1,0-1.6
		c0-0.1-0.1-0.2-0.1-0.2c-0.5,0-1,0-1.5,0c0,0.6,0,1.2,0,1.9c0,0.1,0,0.2,0,0.4c-0.7,0-1.5,0-2.2,0c0,0.2,0,0.3,0,0.4
		c0,0.4,0,0.8,0.1,1.2c0.4,0,0.8,0,1.2,0c0.3,0,0.7,0,1,0c0,0.8,0,1.5,0,2.2c0.5,0,1.1,0,1.6,0c0-0.7,0-1.4,0-2.2c0.8,0,1.5,0,2.2,0
		c0-0.4,0-0.8,0-1.2c0-0.1,0-0.3,0-0.4C19.4,8.9,18.8,8.9,18.2,8.9z"/>
	<path id="XMLID_26_" class="st0" d="M11.9,8.7c-1.4,0-2.8,0-4.2,0c-0.4,0-0.8,0-1.2,0c-0.1,0-0.2,0.1-0.2,0.1c0,0.8,0,1.6,0,2.4
		c1.1,0,2.3,0,3.4,0c0,0.2-0.1,0.3-0.1,0.4c-0.5,1.5-2.1,2.3-3.8,2c-2.1-0.3-3.4-2.3-3.1-4.4C2.8,9,2.9,8.7,3,8.4
		c0.7-1.5,2.4-2.5,4.2-2.1c0.6,0.1,1.1,0.4,1.6,0.8c0.6-0.6,1.2-1.2,1.9-1.9c0,0-0.1-0.1-0.2-0.1C9,3.9,7.2,3.4,5.3,3.7
		C2.5,4.2,0.5,6.4,0.1,8.9C-0.1,10,0,11.2,0.4,12.3c1.1,2.7,3.8,4.4,6.7,4c1.4-0.2,2.7-0.7,3.7-1.7c1.5-1.6,1.8-3.4,1.6-5.5
		C12.4,8.7,12.2,8.7,11.9,8.7z"/>
</g>
</svg>
