<?xml version="1.0" encoding="utf-8"?>
<!-- Generator: Adobe Illustrator 21.0.2, SVG Export Plug-In . SVG Version: 6.00 Build 0)  -->
<svg version="1.1" id="Layer_1" xmlns="http://www.w3.org/2000/svg" xmlns:xlink="http://www.w3.org/1999/xlink" x="0px" y="0px"
	 viewBox="0 0 68 80" style="enable-background:new 0 0 68 80;" xml:space="preserve">
<style type="text/css">
	.st0{fill:#FFFFFF;}
</style>
<g>
	<g>
		<path class="st0" d="M52.9,15.2c0,3.1,2.5,5.6,5.6,5.6s5.6-2.5,5.6-5.6s-2.5-5.6-5.6-5.6S52.9,12.1,52.9,15.2L52.9,15.2z"/>
		<path class="st0" d="M64.1,22.6c0,0-1.4-0.4-1.4-0.4c-0.5-0.2-1.1-0.1-1.5,0.3l-2.8,2.1l-2.8-2.1c-0.4-0.3-1-0.4-1.5-0.3
			c0,0-1.4,0.4-1.4,0.4c-2.3,0.8-3.8,2.8-3.8,5.2v8.4c0,0.3,0.1,0.6,0.3,0.9l2.8,4.3v11.3c0,0.9,0.7,1.7,1.7,1.7h9.4
			c0.9,0,1.7-0.7,1.7-1.7V41.4l2.8-4.3c0.2-0.3,0.3-0.6,0.3-0.9v-8.4C67.9,25.4,66.4,23.3,64.1,22.6L64.1,22.6z"/>
		<path class="st0" d="M9.5,20.7c3.1,0,5.6-2.5,5.6-5.6s-2.5-5.6-5.6-5.6S4,12.1,4,15.2S6.5,20.7,9.5,20.7z"/>
		<path class="st0" d="M15.2,22.6c0,0-1.4-0.4-1.4-0.4c-0.5-0.2-1.1-0.1-1.5,0.3l-2.8,2.1l-2.8-2.1c-0.4-0.3-1-0.4-1.5-0.3
			c0,0-1.4,0.4-1.4,0.4c-2.3,0.8-3.8,2.8-3.8,5.2v8.4c0,0.3,0.1,0.6,0.3,0.9l2.8,4.3v11.3c0,0.9,0.7,1.7,1.7,1.7h9.4
			c0.9,0,1.7-0.7,1.7-1.7V41.4l2.8-4.3c0.2-0.3,0.3-0.6,0.3-0.9v-8.4C19,25.4,17.5,23.3,15.2,22.6z"/>
		<path class="st0" d="M41.2,7.3c0-4-3.2-7.2-7.2-7.2s-7.2,3.2-7.2,7.2c0,4,3.2,7.2,7.2,7.2S41.2,11.3,41.2,7.3z"/>
		<path class="st0" d="M41.9,18L41.9,18l-2.1-0.6c-0.3-0.1-0.5,0.2-1,0.4L34.7,20c0,0-0.7,0.5-1.5,0l-4.1-2.3
			c-0.6-0.4-0.7-0.5-0.8-0.4c-0.1,0-2.2,0.7-2.2,0.7c-2.6,0.9-4.4,3.3-4.4,6v12.5c0,0.1,0,0.2,0.1,0.3l4.5,6.8v17.3
			c0,0.4,0.3,0.6,0.6,0.6h14c0.4,0,0.6-0.3,0.6-0.6V43.7l4.5-6.8c0.1-0.1,0.1-0.2,0.1-0.3V24C46.2,21.3,44.5,18.8,41.9,18L41.9,18z"
			/>
	</g>
	<path class="st0" d="M41.9,71.6l-2.8,2c-0.4,0.3-0.6,0.8-0.4,1.3l1.1,3.3c0,0.1,0.1,0.3,0.1,0.4c0,0.9-1.1,1.5-2,0.9l-2.8-2
		c-0.2-0.2-0.5-0.2-0.7-0.2s-0.5,0.1-0.7,0.2l-2.8,2c-0.8,0.6-1.9,0-2-0.9c0-0.1,0-0.3,0.1-0.4l1.1-3.3c0.2-0.5,0-1-0.4-1.3l-2.8-2
		c-0.9-0.7-0.5-2.3,0.7-2.3H31c0.5,0,1-0.2,1.1-0.7l1.1-3.3c0.2-0.5,0.7-0.8,1.1-0.8s1,0.3,1.1,0.8l1.1,3.3c0.2,0.5,0.6,0.7,1.1,0.7
		h3.5C42.3,69.4,42.8,71,41.9,71.6z"/>
	<path class="st0" d="M66.1,64.9l-2.8,2c-0.4,0.3-0.6,0.8-0.4,1.3l1.1,3.3c0,0.1,0.1,0.3,0.1,0.4c0,0.9-1.1,1.5-2,0.9l-2.8-2
		c-0.2-0.2-0.5-0.2-0.7-0.2c-0.2,0-0.5,0.1-0.7,0.2l-2.8,2c-0.8,0.6-1.9,0-2-0.9c0-0.1,0-0.3,0.1-0.4l1.1-3.3c0.2-0.5,0-1-0.4-1.3
		l-2.8-2c-0.9-0.7-0.5-2.3,0.7-2.3h3.5c0.5,0,1-0.2,1.1-0.7l1.1-3.3c0.2-0.5,0.7-0.8,1.1-0.8c0.5,0,1,0.3,1.1,0.8l1.1,3.3
		c0.2,0.5,0.6,0.7,1.1,0.7h3.5C66.5,62.6,67,64.2,66.1,64.9z"/>
	<path class="st0" d="M16.7,64.9l-2.8,2c-0.4,0.3-0.6,0.8-0.4,1.3l1.1,3.3c0,0.1,0.1,0.3,0.1,0.4c0,0.9-1.1,1.5-2,0.9l-2.8-2
		c-0.2-0.2-0.5-0.2-0.7-0.2s-0.5,0.1-0.7,0.2l-2.8,2c-0.8,0.6-1.9,0-2-0.9c0-0.1,0-0.3,0.1-0.4l1.1-3.3c0.2-0.5,0-1-0.4-1.3l-2.8-2
		c-0.9-0.7-0.5-2.3,0.7-2.3h3.5c0.5,0,1-0.2,1.1-0.7l1.1-3.3c0.2-0.5,0.7-0.8,1.1-0.8s1,0.3,1.1,0.8l1.1,3.3
		c0.2,0.5,0.6,0.7,1.1,0.7H16C17.2,62.6,17.7,64.2,16.7,64.9z"/>
</g>
</svg>
