<?xml version="1.0" encoding="utf-8"?>
<!-- Generator: Adobe Illustrator 21.0.2, SVG Export Plug-In . SVG Version: 6.00 Build 0)  -->
<svg version="1.1" id="Layer_1" xmlns="http://www.w3.org/2000/svg" xmlns:xlink="http://www.w3.org/1999/xlink" x="0px" y="0px"
	 viewBox="0 0 296 47" style="enable-background:new 0 0 296 47;" xml:space="preserve">
<style type="text/css">
	.st0{fill:#2E368E;}
	.st1{fill:#52A956;}
	.st2{fill:#5AAADE;}
	.st3{fill:#EA4F8A;}
	.st4{font-family:'Arial-BoldMT';}
	.st5{font-size:17.0163px;}
</style>
<g>
	<g>
		<g>
			<path class="st0" d="M73.1,23.8c0-5.5-4.8-10-10.7-10l0,0h-0.1h-0.2H52h-2.1h-4.2v32.3H52V33.7h11.3c1.8,0.4,3.2,2.1,3.2,4v8.4
				h6.3v-8.4c0-2.7-1-5.2-2.7-7C71.9,28.9,73.1,26.5,73.1,23.8z M52,20.1h10.8c1.9,0.2,3.4,1.9,3.4,3.8c0,1.8-1.5,3.4-3.4,3.7H52
				V20.1z"/>
			<path class="st0" d="M93.2,12.6c-9.4,0-17.1,7.7-17.1,17.1c0,9.4,7.7,17.1,17.1,17.1c9.4,0,17.1-7.7,17.1-17.1
				C110.3,20.3,102.6,12.6,93.2,12.6z M92.8,40.5c0.4,0,0.8,0,1.2,0C93.7,40.5,93.3,40.5,92.8,40.5z M93.8,40.5l-1,0
				c-5.8-0.2-10.5-5-10.5-10.8c0-6,4.8-10.8,10.8-10.8c6,0,10.8,4.8,10.8,10.8C104,35.4,99.5,40.1,93.8,40.5z"/>
			<path class="st1" d="M98.3,34.9c2.3-1,3.3-3.9,3.3-3.9s-2.8-1.4-5.1-0.4c-1.7,0.7-2.7,2.4-3.1,3.3h-0.1c-0.4-0.9-1.4-2.6-3.1-3.3
				c-2.3-1-5.1,0.4-5.1,0.4s1,3,3.3,3.9c1.6,0.7,3.5,0.2,4.4-0.1v5.7l1,0v-5.7C94.8,35.1,96.7,35.6,98.3,34.9z"/>
			<path class="st0" d="M24.4,12.6c-9.4,0-17.1,7.7-17.1,17.1c0,9.4,7.7,17.1,17.1,17.1c8,0,14.7-5.5,16.6-13
				c0.3-1.3,0.5-2.7,0.5-4.1c0-0.7-0.1-1.5-0.1-2.2H35h-8.7v6.3h8.1c-1.6,3.9-5.5,6.7-10,6.7c-6,0-10.8-4.8-10.8-10.8
				c0-6,4.8-10.8,10.8-10.8c3.6,0,6.8,1.8,8.8,4.5h7.1C37.8,17.1,31.6,12.6,24.4,12.6z"/>
			<path class="st2" d="M132.1,11.7c1,0,1.9-0.1,2.7-0.5c0.9,0.1,2.3,0.5,2.9,0.7c0.7,0.2,1.5,0.4,1.5,0.2c0.1-0.2-0.1-1-0.1-1.3
				c0-0.4-0.1-0.5-0.5-0.6c-0.4-0.1-2.8-0.4-3.1-0.9c-1-1.8-2.8-3.7-2.8-3.7c-0.7-0.9-1.4-2.5-2.5-3.4c-0.4-0.3-0.9-0.4-1.4-0.5
				c-0.7-0.1-1.5,0.1-2.1,0c-0.3-0.1-0.6-0.1-0.6,0c0,0.1,0.2,0.5,0.4,0.6c0.4,0.5,0.3,0.6,0.2,1.6c-0.1,1-0.5,3.8,0.7,5.8
				c0.7,1.2,2.4,2,4.2,2.1l-0.1,1.8c0.2,0,0.4,0,0.6,0C132,13.3,132.1,12.2,132.1,11.7z M128.9,3.3c-0.2,0-0.4-0.2-0.4-0.4
				c0-0.2,0.2-0.4,0.4-0.4c0.2,0,0.4,0.2,0.4,0.4C129.3,3.2,129.1,3.3,128.9,3.3z"/>
			<path class="st0" d="M151.9,13.8h-6.5l-4.9,19.5l-5.1-19.5h-3.3c-0.1-0.1-0.1-0.2-0.1-0.3c0,0,0,0,0,0c-0.2,0-0.4,0-0.6,0l0,0
				c0,0,0,0.2-0.3,0.2c-0.1,0-0.2,0-0.2,0h-2.8l-5.1,19.5l-4.9-19.5h-6.5l8.1,32.2l0,0.1h6.5l0-0.1l5.5-21.4l5.5,21.4l0,0.1h6.5
				l0-0.1L151.9,13.8z"/>
			<path class="st3" d="M10.9,15.7c0-0.2,0-0.3,0-0.4c0.1,0,0.3,0,0.5,0c1.9,0,3.4-1.5,3.4-3.4c0-1.9-1.5-3.4-3.4-3.4
				c-0.2,0-0.3,0-0.5,0c0-0.1,0-0.3,0-0.4c0-1.9-1.5-3.4-3.4-3.4c-1.9,0-3.4,1.5-3.4,3.4c0,0.2,0,0.3,0,0.4c-0.1,0-0.3,0-0.4,0
				c-1.9,0-3.4,1.5-3.4,3.4c0,1.9,1.5,3.4,3.4,3.4c0.2,0,0.3,0,0.4,0c0,0.1,0,0.3,0,0.4c0,1.9,1.5,3.4,3.4,3.4
				C9.4,19,10.9,17.5,10.9,15.7z M5.3,11.8c0-1.2,0.9-2.1,2.1-2.1c1.2,0,2.1,0.9,2.1,2.1c0,1.2-0.9,2.1-2.1,2.1
				C6.3,13.9,5.3,13,5.3,11.8z"/>
		</g>
	</g>
	<text transform="matrix(1 0 0 1 159.3896 25.7744)"><tspan x="0" y="0" class="st0 st4 st5">INTERNATIONAL </tspan><tspan x="0" y="20.4" class="st0 st4 st5">PRESCHOOL</tspan></text>
</g>
</svg>
