<?xml version="1.0" encoding="utf-8"?>
<!-- Generator: Adobe Illustrator 21.0.2, SVG Export Plug-In . SVG Version: 6.00 Build 0)  -->
<svg version="1.1" id="Layer_1" xmlns="http://www.w3.org/2000/svg" xmlns:xlink="http://www.w3.org/1999/xlink" x="0px" y="0px"
	 viewBox="0 0 180 28" style="enable-background:new 0 0 180 28;" xml:space="preserve">
<style type="text/css">
	.st0{fill:#2E368E;}
	.st1{fill:#52A956;}
	.st2{fill:#5AAADE;}
	.st3{fill:#EA4F8A;}
	.st4{font-family:'Arial-BoldMT';}
	.st5{font-size:10.2285px;}
</style>
<g>
	<g>
		<g>
			<path class="st0" d="M44.1,14.4c0-3.3-2.9-6-6.4-6l0,0h0h-0.1h-6.1h-1.3h-2.5v19.4h3.8v-7.4h6.8c1.1,0.2,1.9,1.2,1.9,2.4v5h3.8
				v-5c0-1.6-0.6-3.1-1.7-4.2C43.4,17.4,44.1,16,44.1,14.4z M31.4,12.1h6.5c1.2,0.1,2.1,1.1,2.1,2.3c0,1.1-0.9,2.1-2,2.2h-6.5V12.1z
				"/>
			<path class="st0" d="M56.1,7.6c-5.7,0-10.3,4.6-10.3,10.3c0,5.7,4.6,10.3,10.3,10.3c5.7,0,10.3-4.6,10.3-10.3
				C66.4,12.2,61.8,7.6,56.1,7.6z M55.9,24.4c0.2,0,0.5,0,0.7,0C56.4,24.4,56.2,24.4,55.9,24.4z M56.5,24.4l-0.6,0
				c-3.5-0.1-6.3-3-6.3-6.5c0-3.6,2.9-6.5,6.5-6.5c3.6,0,6.5,2.9,6.5,6.5C62.6,21.3,59.9,24.2,56.5,24.4z"/>
			<path class="st1" d="M59.2,21c1.4-0.6,2-2.4,2-2.4s-1.7-0.8-3.1-0.2c-1,0.4-1.6,1.5-1.9,2h-0.1c-0.3-0.5-0.8-1.6-1.9-2
				c-1.4-0.6-3.1,0.2-3.1,0.2s0.6,1.8,2,2.4c1,0.4,2.1,0.1,2.7-0.1v3.4l0.6,0v-3.4C57.1,21.1,58.2,21.4,59.2,21z"/>
			<path class="st0" d="M14.8,7.6c-5.7,0-10.3,4.6-10.3,10.3c0,5.7,4.6,10.3,10.3,10.3c4.8,0,8.9-3.3,10-7.8
				c0.2-0.8,0.3-1.6,0.3-2.4c0-0.4,0-0.9-0.1-1.3h-3.8H16v3.8h4.9c-1,2.4-3.3,4-6,4c-3.6,0-6.5-2.9-6.5-6.5c0-3.6,2.9-6.5,6.5-6.5
				c2.2,0,4.1,1.1,5.3,2.7h4.3C22.8,10.3,19.1,7.6,14.8,7.6z"/>
			<path class="st2" d="M79.6,7.1c0.6,0,1.2-0.1,1.7-0.3c0.5,0.1,1.4,0.3,1.7,0.4c0.4,0.1,0.9,0.3,0.9,0.1c0-0.1,0-0.6-0.1-0.8
				c0-0.2-0.1-0.3-0.3-0.3c-0.2-0.1-1.7-0.3-1.9-0.6C81.1,4.5,80,3.4,80,3.4c-0.4-0.6-0.8-1.5-1.5-2.1C78.2,1.1,77.9,1,77.6,1
				c-0.4-0.1-0.9,0.1-1.2,0c-0.2,0-0.4-0.1-0.4,0c0,0,0.1,0.3,0.2,0.4c0.3,0.3,0.2,0.4,0.1,0.9c0,0.6-0.3,2.3,0.4,3.5
				c0.4,0.7,1.4,1.2,2.5,1.3l0,1.1c0.1,0,0.2,0,0.4,0C79.5,8.1,79.5,7.4,79.6,7.1z M77.6,2c-0.1,0-0.2-0.1-0.2-0.2
				c0-0.1,0.1-0.2,0.2-0.2c0.1,0,0.2,0.1,0.2,0.2C77.8,1.9,77.7,2,77.6,2z"/>
			<path class="st0" d="M91.5,8.3h-3.9l-2.9,11.7l-3-11.7h-2c0-0.1-0.1-0.1-0.1-0.2c0,0,0,0,0,0c-0.1,0-0.2,0-0.4,0l0,0
				c0,0,0,0.1-0.2,0.1c0,0-0.1,0-0.1,0h-1.7l-3,11.7L71.2,8.3h-3.9l4.9,19.3l0,0.1h3.9l0-0.1l3.3-12.8l3.3,12.8l0,0.1h3.9l0-0.1
				L91.5,8.3z"/>
			<path class="st3" d="M6.7,9.5c0-0.1,0-0.2,0-0.3c0.1,0,0.2,0,0.3,0c1.1,0,2-0.9,2-2c0-1.1-0.9-2-2-2c-0.1,0-0.2,0-0.3,0
				c0-0.1,0-0.2,0-0.3c0-1.1-0.9-2-2-2c-1.1,0-2,0.9-2,2c0,0.1,0,0.2,0,0.3c-0.1,0-0.2,0-0.3,0c-1.1,0-2,0.9-2,2c0,1.1,0.9,2,2,2
				c0.1,0,0.2,0,0.3,0c0,0.1,0,0.2,0,0.3c0,1.1,0.9,2,2,2C5.8,11.5,6.7,10.6,6.7,9.5z M3.3,7.1c0-0.7,0.6-1.3,1.3-1.3
				c0.7,0,1.3,0.6,1.3,1.3c0,0.7-0.6,1.3-1.3,1.3C3.9,8.4,3.3,7.8,3.3,7.1z"/>
		</g>
	</g>
	<text transform="matrix(1 0 0 1 95.9414 15.5303)"><tspan x="0" y="0" class="st0 st4 st5">INTERNATIONAL </tspan><tspan x="0" y="12.3" class="st0 st4 st5">PRESCHOOL</tspan></text>
</g>
</svg>
