<?xml version="1.0" encoding="utf-8"?>
<!-- Generator: Adobe Illustrator 21.0.2, SVG Export Plug-In . SVG Version: 6.00 Build 0)  -->
<svg version="1.1" id="Layer_1" xmlns="http://www.w3.org/2000/svg" xmlns:xlink="http://www.w3.org/1999/xlink" x="0px" y="0px"
	 viewBox="0 0 250 235" style="enable-background:new 0 0 250 235;" xml:space="preserve">
<style type="text/css">
	.st0{fill:#FFFFFF;}
	.st1{fill:#EDA677;}
	.st2{fill-rule:evenodd;clip-rule:evenodd;fill:#1B384C;}
	.st3{fill-rule:evenodd;clip-rule:evenodd;fill:#DDDBDB;}
	.st4{fill-rule:evenodd;clip-rule:evenodd;fill:#E9E9F0;}
	.st5{fill:#0E2A30;}
	.st6{fill:#1B384C;}
	.st7{opacity:0.2;fill-rule:evenodd;clip-rule:evenodd;fill:#FFFFFF;}
	.st8{fill:#52BA4A;}
	.st9{fill:#2E368E;}
	.st10{fill:#52A956;}
	.st11{fill:#5AAADE;}
	.st12{fill:#EA4F8A;}
	.st13{font-family:'Arial-BoldMT';}
	.st14{font-size:6.1175px;}
</style>
<g>
	<circle class="st0" cx="104.8" cy="87.9" r="73.9"/>
	<path class="st1" d="M128.5,141.5c-3.2-5.5-12.3-6.7-7.5-10.2c-0.1,0.1,1.8-1.6,2.3-2.2c0.2-0.2,0.3-0.4,0.5-0.5
		c0.1-0.1,0.2-0.3,0.3-0.5c0.2-0.4,1-2.3,0.7-1.5c0.2-0.6,0.4-1.3,0.5-1.9c0.1-0.3,0.1-0.6,0.1-0.7c0-0.4,0.1-0.8,0.1-1.1
		c0.1-1,0.1-2.1,0.1-3.1c0-2.3,0-4.5,0-6.8c0-3,1-5.3,2.5-7.1c-2.8-1.8-5.8-2-6.9-0.5l-0.4,0.6l-1.7,2.4l-0.1,0.1l-1.3-0.9l1.7-2.4
		l1.7-2.4l1.4-2c1.1-1.6-0.3-4.6-3.2-6.6c-2.9-2-6.2-2.4-7.3-0.8l-1.4,2l-1.7,2.4l-1.7,2.4l-1.3-0.9l7.7-10.9l0,0
		c0.1-0.1,0.1-0.2,0.2-0.2L124,73.7c1.9-2.6,1-6.4-1.9-8.5c-2.9-2-6.8-1.6-8.6,1.1l-10.2,14.4c-0.1,0.1-0.1,0.2-0.2,0.3l0,0
		l-22.4,31.7L75,124.2l-1.7-32c0.9-3.8,1.5-7.4-1.7-9.6c-3.1-2.2-7.4-1.5-9.6,1.7l-1.8,26.8c0,0-3.1,7.3-0.9,18.8l5,10.1
		c-24.6,50.9-16.3,38-19.7,42.7l46.7,13.5c1.2-4.8,16.1-36.8,16.1-36.8c1.7-0.5,6.6-2,9-3.3c1.2-0.6,3.1-1.8,5.4-4.7
		C126.1,145.6,129.5,143.4,128.5,141.5z"/>
	<path class="st1" d="M145,54.9c-2.9-2-6.8-1.6-8.6,1.1l-10.2,14.4c-0.1,0.1-0.1,0.2-0.2,0.3l0,0l-22.4,31.7l-0.1-0.1
		c0,0.1,0,0.3,0.1,0.4c0.8,4.7,1.1,10.1,2.7,14.6c0,0,0,0,0,0c0,0,0,0,0.1,0c0-0.2,0.3,0,0.4,0.2c0,0,0.1,0,0.1,0
		c0.1,0,0.2,0,0.3,0.1c0.6,0.2,1.2,0.4,1.9,0.5c0,0,0.1,0,0.1,0c0,0,0,0,0,0c0.7-0.9,1.4-1.9,2-2.8c4.2-5.9,8-12.1,11.7-18.3
		c1.8-3.1,4.6-4.7,7.5-5.2c-0.1-0.8-0.1-1.7,0-2.5l-0.3,0.5l-1.3-0.9l3.2-4.5c0.3-0.6,0.7-1.1,1.1-1.6l3.4-4.9l0,0
		c0.1-0.1,0.1-0.2,0.2-0.2l10.2-14.4C148.7,60.7,147.9,56.9,145,54.9z"/>
	<path class="st2" d="M139.3,140.3c0,2.1-1.7,3.7-3.8,3.7H76.4c-2.1,0-3.8-1.7-3.8-3.7V21.7c0-2.1,1.7-3.7,3.8-3.7h59.1
		c2.1,0,3.8,1.7,3.8,3.7V140.3z"/>
	<polygon class="st3" points="133.2,31.9 131.6,31.9 128.6,31.9 125.1,31.9 122.2,31.9 122,31.9 118.1,31.9 108.4,31.9 105,31.9 
		101.5,31.9 98.2,31.9 93.4,31.9 90.3,31.9 80.8,31.9 80.5,31.9 77.4,31.9 75.7,31.9 75.7,45.3 75.7,45.3 75.7,48.9 75.7,49 
		75.7,58.9 75.7,58.9 75.7,71 75.7,71 75.7,74 75.7,74 75.7,104.1 75.7,104.1 75.7,106.8 75.7,106.8 75.7,120.7 75.7,120.7 
		75.7,124.3 75.7,124.3 75.7,133.3 75.9,133.3 79,133.3 86,133.3 89.9,133.3 89.9,133.3 90.3,133.3 92.9,133.3 93.4,133.3 
		96.4,133.3 96.8,133.3 99.4,133.3 108.7,133.3 108.8,133.3 112.1,133.3 120.3,133.3 123.7,133.3 124.4,133.3 128.4,133.3 
		136.2,133.3 136.2,125 136.2,119.5 136.2,118.2 136.2,116.5 136.2,113.2 136.2,111.8 136.2,108.1 136.2,74 136.2,71 136.2,63.1 
		136.2,58.9 136.2,41 136.2,37.7 136.2,31.9 	"/>
	<polygon class="st4" points="75.7,30.4 75.7,30.4 75.7,30.4 75.7,31.1 75.7,31.8 75.7,31.8 75.7,32 75.7,32 75.7,33.9 75.7,33.9 
		75.7,34.1 75.7,34.1 75.7,34.9 75.7,34.9 75.7,35.2 75.7,35.2 75.7,35.8 75.7,35.9 136.2,35.9 136.2,30.4 	"/>
	<g>
		<polygon class="st0" points="84.4,235 112.8,175.2 50.8,145.8 8.5,235 		"/>
		
			<ellipse transform="matrix(0.4794 -0.8776 0.8776 0.4794 -104.5456 177.7953)" class="st5" cx="97.6" cy="177" rx="3.1" ry="3.1"/>
		<polygon class="st6" points="87.6,235 108.7,190.5 40.3,158.1 3.8,235 		"/>
	</g>
	<circle class="st7" cx="106" cy="138.9" r="3.3"/>
	<rect x="77.9" y="31.9" class="st2" width="17" height="1.9"/>
	<rect x="99.9" y="31.9" class="st2" width="8" height="1.9"/>
	<path class="st1" d="M94.7,146c0.2-0.9,0.4-1.9,0.6-2.8c-0.2-0.5,0.4-10.6-11.4-18.8c-5.4-3.8-11.8-3-14.8-2.7V146H94.7z"/>
	<path class="st1" d="M145,114.6c0.8,2.9-0.9,5.9-3.7,6.6l-12.9,3.4c-2.8,0.7-5.7-1-6.5-3.9l0,0c-0.8-2.9,0.9-5.9,3.7-6.6l12.9-3.4
		C141.4,109.9,144.3,111.7,145,114.6L145,114.6z"/>
	<path class="st1" d="M144,85.2c1.4,2.9,0.4,6.3-2.2,7.5l-11.9,5.6c-2.6,1.2-5.8-0.1-7.2-3.1l0,0c-1.4-2.9-0.4-6.3,2.2-7.5l11.9-5.6
		C139.4,80.9,142.7,82.3,144,85.2L144,85.2z"/>
	<path class="st8" d="M123.7,110.1c0,4-3.2,7.2-7.2,7.2H95.8c-4,0-7.2-3.2-7.2-7.2l0,0c0-4,3.2-7.2,7.2-7.2h20.7
		C120.5,102.9,123.7,106.1,123.7,110.1L123.7,110.1z"/>
	<g>
		<g>
			<g>
				<path class="st1" d="M163,120.3c-3,1.9-4.6,4.7-3.6,6.4l0.5,0.9l-1.3,0.8l-0.1-0.1l-1.5-2.5l-0.4-0.6c-1-1.7-4.3-1.6-7.3,0.3
					c-3,1.9-4.6,4.7-3.6,6.4l0.4,0.6l1.5,2.5l0.1,0.1l-1.3,0.8l-1.5-2.5l-1.6-2.5l-1.3-2c-1-1.7-4.3-1.6-7.3,0.3
					c-3,1.9-4.6,4.7-3.6,6.4l1.3,2l1.6,2.5l1.5,2.5l-1.3,0.8l-7-11.4l0,0c-0.1-0.1-0.1-0.2-0.2-0.3l-8.3-13.4
					c-1.7-2.7-5.5-3.5-8.5-1.6c-3,1.9-4.1,5.6-2.4,8.3l8.3,13.4c0.1,0.1,0.1,0.2,0.2,0.3l0,0l20.3,33l-1.8,1.1l-5.3-8.7
					c-2-3.2-6.2-4.3-9.5-2.3c-3.2,2-4.3,6.2-2.3,9.5l12.3,17.4c0,0,3.5,3.5,6.1,3.6l19,5.3c2.2,3.6,4.9,8.2,7.9,13.2L201,190
					c-6.8-11-12.7-20.7-12.7-20.7c0.2-1.8,0.7-10.2,0.5-13c-0.3-3.4-6-15.4-12.3-25.8l-1.7-3.2l-1.8-2.9l-0.5-0.8l-1.2-2l-1-1.6
					C169.3,118.3,166,118.4,163,120.3z"/>
				<g>
					<polygon class="st0" points="242.7,235 205.2,174 146.8,209.9 162.3,235 					"/>
					
						<ellipse transform="matrix(0.8804 -0.4742 0.4742 0.8804 -65.2771 116.5326)" class="st5" cx="198.4" cy="187.7" rx="3.1" ry="3.1"/>
					<polygon class="st6" points="246.1,235 215.8,185.7 151.4,225.3 157.3,235 					"/>
				</g>
			</g>
		</g>
	</g>
	<g>
		<path class="st0" d="M99.1,110.9l1.8,0.1c-0.1,0.8-0.4,1.4-0.9,1.8c-0.5,0.4-1.1,0.6-1.8,0.6c-0.9,0-1.5-0.3-2.1-0.8
			c-0.5-0.6-0.8-1.3-0.8-2.3c0-1,0.2-1.8,0.7-2.4c0.5-0.6,1.2-0.9,2.1-0.9c0.8,0,1.5,0.2,1.9,0.7c0.4,0.5,0.7,1.1,0.8,1.8l-1.8,0.1
			c0-0.4-0.1-0.7-0.2-0.9c-0.2-0.2-0.4-0.3-0.6-0.3c-0.6,0-0.9,0.6-0.9,1.8c0,0.7,0.1,1.1,0.2,1.4c0.2,0.2,0.4,0.4,0.7,0.4
			C98.7,112,99,111.6,99.1,110.9z"/>
		<path class="st0" d="M104.9,113.3l-0.4-1.2h-1.7l-0.4,1.2h-1.6l1.9-6.3h2l2,6.3H104.9z M103.2,110.7h1l-0.5-1.8L103.2,110.7z"/>
		<path class="st0" d="M111.9,111.8v1.5h-4.4v-6.3h1.9v4.7H111.9z"/>
		<path class="st0" d="M116.9,111.8v1.5h-4.4v-6.3h1.9v4.7H116.9z"/>
	</g>
	<path class="st1" d="M144.8,102.2c0.7,3-0.9,6.1-3.8,6.8l-13,3.2c-2.8,0.7-5.7-1.2-6.5-4.2l0,0c-0.7-3,0.9-6.1,3.8-6.8l13-3.2
		C141.1,97.2,144,99.1,144.8,102.2L144.8,102.2z"/>
</g>
<g>
	<g>
		<g>
			<path class="st9" d="M104.1,57c0-1.9-1.6-3.4-3.6-3.4l0,0h0h-0.1H97h-0.7h-1.4v11H97v-4.2h3.9c0.6,0.1,1.1,0.7,1.1,1.4v2.8h2.1
				v-2.8c0-0.9-0.4-1.8-0.9-2.4C103.7,58.7,104.1,57.9,104.1,57z M97,55.7h3.7c0.7,0.1,1.2,0.6,1.2,1.3c0,0.6-0.5,1.2-1.2,1.2H97
				V55.7z"/>
			<path class="st9" d="M111,53.2c-3.2,0-5.8,2.6-5.8,5.8c0,3.2,2.6,5.8,5.8,5.8c3.2,0,5.8-2.6,5.8-5.8
				C116.8,55.8,114.2,53.2,111,53.2z M110.9,62.7c0.1,0,0.3,0,0.4,0C111.1,62.7,111,62.7,110.9,62.7z M111.2,62.7l-0.3,0
				c-2-0.1-3.6-1.7-3.6-3.7c0-2,1.7-3.7,3.7-3.7c2,0,3.7,1.7,3.7,3.7C114.7,60.9,113.1,62.5,111.2,62.7z"/>
			<path class="st10" d="M112.7,60.8c0.8-0.3,1.1-1.3,1.1-1.3s-1-0.5-1.8-0.1c-0.6,0.2-0.9,0.8-1.1,1.1h0c-0.1-0.3-0.5-0.9-1.1-1.1
				c-0.8-0.3-1.8,0.1-1.8,0.1s0.3,1,1.1,1.3c0.6,0.2,1.2,0.1,1.5,0v1.9l0.3,0v-1.9C111.5,60.8,112.2,61,112.7,60.8z"/>
			<path class="st9" d="M87.5,53.2c-3.2,0-5.8,2.6-5.8,5.8c0,3.2,2.6,5.8,5.8,5.8c2.7,0,5-1.9,5.7-4.4c0.1-0.4,0.2-0.9,0.2-1.4
				c0-0.3,0-0.5,0-0.7h-2.2h-3v2.1H91c-0.5,1.3-1.9,2.3-3.4,2.3c-2,0-3.7-1.7-3.7-3.7c0-2,1.7-3.7,3.7-3.7c1.2,0,2.3,0.6,3,1.5h2.4
				C92.1,54.7,90,53.2,87.5,53.2z"/>
			<path class="st11" d="M124.3,52.9c0.3,0,0.7-0.1,0.9-0.2c0.3,0,0.8,0.2,1,0.2c0.2,0.1,0.5,0.1,0.5,0.1c0-0.1,0-0.3,0-0.5
				c0-0.1,0-0.2-0.2-0.2c-0.1,0-0.9-0.1-1.1-0.3c-0.3-0.6-0.9-1.3-0.9-1.3c-0.2-0.3-0.5-0.9-0.9-1.2c-0.2-0.1-0.3-0.1-0.5-0.2
				c-0.2,0-0.5,0-0.7,0c-0.1,0-0.2,0-0.2,0c0,0,0.1,0.2,0.1,0.2c0.1,0.2,0.1,0.2,0.1,0.5c0,0.3-0.2,1.3,0.2,2
				c0.2,0.4,0.8,0.7,1.4,0.7l0,0.6c0.1,0,0.1,0,0.2,0C124.2,53.4,124.3,53,124.3,52.9z M123.2,50c-0.1,0-0.1-0.1-0.1-0.1
				c0-0.1,0.1-0.1,0.1-0.1c0.1,0,0.1,0.1,0.1,0.1C123.3,49.9,123.2,50,123.2,50z"/>
			<path class="st9" d="M131,53.6h-2.2l-1.7,6.7l-1.7-6.7h-1.1c0,0,0-0.1,0-0.1c0,0,0,0,0,0c-0.1,0-0.1,0-0.2,0l0,0
				c0,0,0,0.1-0.1,0.1c0,0-0.1,0-0.1,0h-0.9l-1.7,6.7l-1.7-6.7h-2.2l2.8,11l0,0h2.2l0,0l1.9-7.3l1.9,7.3l0,0h2.2l0,0L131,53.6z"/>
			<path class="st12" d="M82.9,54.2c0-0.1,0-0.1,0-0.2c0.1,0,0.1,0,0.2,0c0.6,0,1.2-0.5,1.2-1.2c0-0.6-0.5-1.2-1.2-1.2
				c-0.1,0-0.1,0-0.2,0c0,0,0-0.1,0-0.2c0-0.6-0.5-1.2-1.2-1.2c-0.6,0-1.2,0.5-1.2,1.2c0,0.1,0,0.1,0,0.2c0,0-0.1,0-0.2,0
				c-0.6,0-1.2,0.5-1.2,1.2c0,0.6,0.5,1.2,1.2,1.2c0.1,0,0.1,0,0.2,0c0,0.1,0,0.1,0,0.2c0,0.6,0.5,1.2,1.2,1.2
				C82.4,55.4,82.9,54.8,82.9,54.2z M81,52.9c0-0.4,0.3-0.7,0.7-0.7c0.4,0,0.7,0.3,0.7,0.7c0,0.4-0.3,0.7-0.7,0.7
				C81.3,53.6,81,53.3,81,52.9z"/>
		</g>
	</g>
	<text transform="matrix(1 0 0 1 80.8457 74.0562)"><tspan x="0" y="0" class="st9 st13 st14">INTERNATIONAL </tspan><tspan x="6.5" y="7.3" class="st9 st13 st14">PRESCHOOL</tspan></text>
</g>
</svg>
