<?xml version="1.0" encoding="utf-8"?>
<!-- Generator: Adobe Illustrator 21.0.2, SVG Export Plug-In . SVG Version: 6.00 Build 0)  -->
<svg version="1.1" id="Layer_1" xmlns="http://www.w3.org/2000/svg" xmlns:xlink="http://www.w3.org/1999/xlink" x="0px" y="0px"
	 viewBox="0 0 14 14" style="enable-background:new 0 0 14 14;" xml:space="preserve">
<style type="text/css">
	.st0{fill:#0071CD;}
</style>
<g>
	<path class="st0" d="M7,1.4c1.8,0,2.1,0,2.8,0c0.7,0,1,0.1,1.3,0.2c0.3,0.1,0.5,0.3,0.8,0.5c0.2,0.2,0.4,0.5,0.5,0.8
		c0.1,0.2,0.2,0.6,0.2,1.3c0,0.7,0,0.9,0,2.8c0,1.8,0,2.1,0,2.8c0,0.7-0.1,1-0.2,1.3c-0.1,0.3-0.3,0.6-0.5,0.8
		c-0.2,0.2-0.5,0.4-0.8,0.5c-0.2,0.1-0.6,0.2-1.3,0.2c-0.7,0-0.9,0-2.8,0c-1.8,0-2.1,0-2.8,0c-0.7,0-1-0.1-1.3-0.2
		c-0.3-0.1-0.5-0.3-0.8-0.5c-0.2-0.2-0.4-0.5-0.5-0.8c-0.1-0.2-0.2-0.6-0.2-1.3c0-0.7,0-0.9,0-2.8c0-1.8,0-2.1,0-2.8
		c0-0.7,0.1-1,0.2-1.3c0.1-0.3,0.3-0.6,0.5-0.8c0.2-0.2,0.5-0.4,0.8-0.5c0.2-0.1,0.6-0.2,1.3-0.2C4.9,1.4,5.2,1.4,7,1.4 M7,0.1
		c-1.9,0-2.1,0-2.8,0c-0.7,0-1.2,0.1-1.7,0.3C2,0.7,1.7,0.9,1.3,1.3C0.9,1.7,0.7,2,0.5,2.5C0.3,2.9,0.2,3.4,0.2,4.2c0,0.7,0,1,0,2.8
		c0,1.9,0,2.1,0,2.8c0,0.7,0.1,1.2,0.3,1.7c0.2,0.5,0.4,0.8,0.8,1.2c0.4,0.4,0.8,0.6,1.2,0.8c0.4,0.2,0.9,0.3,1.7,0.3
		c0.7,0,1,0,2.8,0c1.9,0,2.1,0,2.8,0c0.7,0,1.2-0.1,1.7-0.3c0.5-0.2,0.8-0.4,1.2-0.8c0.4-0.4,0.6-0.8,0.8-1.2
		c0.2-0.4,0.3-0.9,0.3-1.7c0-0.7,0-1,0-2.8c0-1.9,0-2.1,0-2.8c0-0.7-0.1-1.2-0.3-1.7c-0.2-0.5-0.4-0.8-0.8-1.2
		c-0.4-0.4-0.8-0.6-1.2-0.8c-0.4-0.2-0.9-0.3-1.7-0.3C9.1,0.1,8.9,0.1,7,0.1"/>
	<path class="st0" d="M7,3.5C5,3.5,3.5,5,3.5,7S5,10.5,7,10.5c2,0,3.5-1.6,3.5-3.5S9,3.5,7,3.5 M7,9.3c-1.3,0-2.3-1-2.3-2.3
		c0-1.3,1-2.3,2.3-2.3c1.3,0,2.3,1,2.3,2.3C9.3,8.3,8.3,9.3,7,9.3"/>
	<path class="st0" d="M11.5,3.3c0,0.5-0.4,0.8-0.8,0.8c-0.5,0-0.8-0.4-0.8-0.8c0-0.5,0.4-0.8,0.8-0.8C11.1,2.5,11.5,2.9,11.5,3.3"/>
</g>
</svg>
