<?xml version="1.0" encoding="utf-8"?>
<!-- Generator: Adobe Illustrator 21.0.2, SVG Export Plug-In . SVG Version: 6.00 Build 0)  -->
<svg version="1.1" id="Layer_1" xmlns="http://www.w3.org/2000/svg" xmlns:xlink="http://www.w3.org/1999/xlink" x="0px" y="0px"
	 viewBox="0 0 55 54" style="enable-background:new 0 0 55 54;" xml:space="preserve">
<style type="text/css">
	.st0{fill:#FFFFFF;}
</style>
<g>
	<g>
		<polygon class="st0" points="27.4,9.2 25.6,14.2 29.2,14.2 		"/>
		<path class="st0" d="M15,39c0-0.1,0.1-0.3,0.1-0.5c0-0.4-0.1-0.7-0.3-0.9c-0.3-0.4-0.8-0.7-1.3-0.7H9.6V37v3.2v0.1h3.9
			C14.2,40.2,14.8,39.7,15,39z"/>
		<path class="st0" d="M13.8,46.3c0.9,0,1.7-0.8,1.7-1.7v-0.1v-0.2c0-0.9-0.8-1.7-1.7-1.7h-2H9.6v3.7h2.6H13.8z"/>
		<g>
			<path class="st0" d="M38.8,25.6c0.8,0,1.5-0.7,1.5-1.5V1.5c0-0.8-0.7-1.5-1.5-1.5H16.2c-0.8,0-1.5,0.7-1.5,1.5v22.6
				c0,0.8,0.7,1.5,1.5,1.5H38.8z M20.7,18.8l4.8-12.3c0.2-0.6,0.8-1,1.4-1H28c0.6,0,1.2,0.4,1.4,0.9l4.9,12.3
				c0.2,0.6-0.2,1.2-0.8,1.2h-1c-0.6,0-1.2-0.4-1.4-1l-0.9-2.3h-5.6l-0.8,2.3c-0.2,0.6-0.8,1-1.4,1h-0.9
				C20.9,20,20.4,19.4,20.7,18.8z"/>
			<path class="st0" d="M24.1,54c0.8,0,1.5-0.7,1.5-1.5V29.9c0-0.8-0.7-1.5-1.5-1.5H1.5c-0.8,0-1.5,0.7-1.5,1.5v22.6
				C0,53.3,0.7,54,1.5,54H24.1z M6.6,36c0-0.8,0.7-1.5,1.5-1.5h4.3c1.1,0,2,0,2.5,0.1c0.6,0.1,1.1,0.3,1.5,0.6
				c0.4,0.3,0.8,0.7,1.1,1.2c0.3,0.5,0.4,1.1,0.4,1.7c0,0.7-0.2,1.3-0.6,1.9c-0.3,0.5-0.8,0.9-1.4,1.2c0.8,0.3,1.4,0.7,1.9,1.3
				c0.5,0.6,0.7,1.4,0.7,2.2c0,0.7-0.2,1.3-0.5,1.9c-0.3,0.6-0.7,1.1-1.3,1.5c-0.5,0.4-1.2,0.6-2,0.7c-0.5,0.1-1.7,0.1-3.5,0.1l0,0
				H8.1c-0.8,0-1.5-0.7-1.5-1.5L6.6,36L6.6,36L6.6,36z"/>
			<path class="st0" d="M53.5,28.4H30.9c-0.8,0-1.5,0.7-1.5,1.5v22.6c0,0.8,0.7,1.5,1.5,1.5h22.6c0.8,0,1.5-0.7,1.5-1.5V29.9
				C55,29.1,54.3,28.4,53.5,28.4z M47.8,45.6c-0.4,0.8-0.9,1.4-1.6,1.9c-1,0.8-2.3,1.1-3.8,1.1c-1.9,0-3.5-0.7-4.7-2
				c-1.2-1.3-1.8-3.1-1.8-5.4c0-2.4,0.6-4.3,1.9-5.6c1.2-1.3,2.9-2,4.9-2c1.8,0,3.2,0.5,4.3,1.6c0.3,0.3,0.5,0.5,0.7,0.9
				c0.5,0.8,0.1,1.9-0.9,2.2l-0.1,0c-0.6,0.1-1.3-0.1-1.6-0.7c-0.2-0.3-0.4-0.5-0.7-0.7c-0.5-0.4-1.2-0.6-1.9-0.6
				c-1,0-1.9,0.4-2.5,1.1c-0.6,0.7-1,2-1,3.7c0,1.8,0.3,3.1,1,3.8s1.5,1.1,2.5,1.1c0.7,0,1.4-0.2,1.9-0.7c0.3-0.3,0.6-0.6,0.8-1.1
				c0.3-0.7,1.1-1,1.7-0.8l0.1,0C47.8,43.8,48.2,44.8,47.8,45.6z"/>
		</g>
	</g>
</g>
</svg>
