<?xml version="1.0" encoding="utf-8"?>
<!-- Generator: Adobe Illustrator 21.0.2, SVG Export Plug-In . SVG Version: 6.00 Build 0)  -->
<svg version="1.1" id="Layer_1" xmlns="http://www.w3.org/2000/svg" xmlns:xlink="http://www.w3.org/1999/xlink" x="0px" y="0px"
	 viewBox="0 0 15 18" style="enable-background:new 0 0 15 18;" xml:space="preserve">
<style type="text/css">
	.st0{fill:#FFFFFF;}
</style>
<path class="st0" d="M7.5,0C3.7,0,0.6,3.1,0.6,6.9c0,2.7,1.1,5.5,3.3,8c1.6,1.9,3.2,2.9,3.3,3C7.3,17.9,7.4,18,7.5,18
	c0.1,0,0.2,0,0.3-0.1c0.1,0,1.7-1.1,3.3-3c2.2-2.5,3.3-5.2,3.3-8C14.4,3.1,11.3,0,7.5,0z M7.5,9.5C6,9.5,4.8,8.3,4.8,6.9
	S6,4.2,7.5,4.2s2.7,1.2,2.7,2.7S9,9.5,7.5,9.5z"/>
</svg>
