<?xml version="1.0" encoding="utf-8"?>
<!-- Generator: Adobe Illustrator 21.0.2, SVG Export Plug-In . SVG Version: 6.00 Build 0)  -->
<svg version="1.1" id="Layer_1" xmlns="http://www.w3.org/2000/svg" xmlns:xlink="http://www.w3.org/1999/xlink" x="0px" y="0px"
	 viewBox="0 0 72 80" style="enable-background:new 0 0 72 80;" xml:space="preserve">
<style type="text/css">
	.st0{fill:#FFFFFF;}
</style>
<g>
	<g>
		<path class="st0" d="M29,23.8h14c-1.5-2.2-4.1-3.6-7-3.6C33.1,20.2,30.6,21.6,29,23.8z"/>
		<path class="st0" d="M49.6,52.3H22.4l-1.7,6.4c-0.2,0.6,0.2,1.3,0.9,1.3h5.9v15.8c0,2.1,1.7,3.8,3.8,3.8c2.1,0,3.8-1.7,3.8-3.8V60
			h1.8v15.8c0,2.1,1.7,3.8,3.8,3.8c2.1,0,3.8-1.7,3.8-3.8V60h5.9c0.7,0,1.1-0.7,0.9-1.3L49.6,52.3z"/>
		<path class="st0" d="M48.3,25.7H23.8c-0.6,0-1,0.5-1,1.1L24,38h24.2l1-11.2C49.3,26.2,48.8,25.7,48.3,25.7z"/>
		<polygon class="st0" points="23.7,39.7 23.7,39.8 23.7,42.2 48.4,42.2 48.4,39.8 48.4,39.7 		"/>
		<path class="st0" d="M64.3,39.9c2.7-0.3,4.7-2.5,4.7-5.3c0-2.9-2.1-5.2-5.3-5.2c-0.2,0-9.1,0-9.1,0v12.9h9.6L64.3,39.9L64.3,39.9z
			 M64.3,32.3c1.1,0.3,1.9,1.2,1.9,2.4s-0.8,2.1-1.9,2.4V32.3z"/>
		<path class="st0" d="M71,43.7H1c-0.5,0-1,0.4-1,1v5.2c0,0.5,0.4,1,1,1h2.1v25.4c0,1.2,1,2.3,2.3,2.3s2.3-1,2.3-2.3V50.9h56.8v25.4
			c0,1.2,1,2.3,2.3,2.3c1.2,0,2.3-1,2.3-2.3V50.9H71c0.5,0,1-0.4,1-1v-5.2C72,44.1,71.5,43.7,71,43.7z"/>
		<path class="st0" d="M46.1,16c-0.7-0.4-2.3-1.5-2.3-3.8c0-2.9,0.7-11.9-7.8-11.9s-7.8,8.9-7.8,11.9c0,2.3-1.6,3.4-2.3,3.8
			c-0.2,0.1-0.3,0.4-0.2,0.6c0.5,1.5,1.7,2,3,2c2,0,4.1-1.1,4.1-1.1c-1-0.6-1.5-1.8-1.8-3c1.1,1.8,2.9,2.9,5,2.9c2.1,0,4-1.2,5-2.9
			c-0.3,1.2-0.8,2.4-1.8,3c0,0,2.2,1.1,4.1,1.1c1.3,0,2.5-0.5,3-2C46.4,16.4,46.3,16.2,46.1,16z"/>
	</g>
</g>
</svg>
