<?xml version="1.0" encoding="utf-8"?>
<!-- Generator: Adobe Illustrator 21.0.2, SVG Export Plug-In . SVG Version: 6.00 Build 0)  -->
<svg version="1.1" id="Layer_1" xmlns="http://www.w3.org/2000/svg" xmlns:xlink="http://www.w3.org/1999/xlink" x="0px" y="0px"
	 viewBox="0 0 41 100" style="enable-background:new 0 0 41 100;" xml:space="preserve">
<style type="text/css">
	.st0{fill:url(#SVGID_1_);}
	.st1{fill:#282828;}
	.st2{fill:#9C9C9C;}
</style>
<g>
	<g>
		<linearGradient id="SVGID_1_" gradientUnits="userSpaceOnUse" x1="20.5" y1="78.4357" x2="20.5" y2="99.3223">
			<stop  offset="0" style="stop-color:#626161"/>
			<stop  offset="0.7258" style="stop-color:#000000"/>
			<stop  offset="0.9946" style="stop-color:#2A2929"/>
		</linearGradient>
		<path class="st0" d="M39.8,79.6c0-0.7-0.6-1.2-1.2-1.2H2.5c-0.7,0-1.2,0.6-1.2,1.2v19.1c0,0.7,0.5,1.2,1.2,1.2h5.1
			c0,0,0-0.1,0-0.1c0-1.7,1.4-3.1,3.1-3.1s3.1,1.4,3.1,3.1c0,0.1,0,0.1,0,0.1h14.1c0,0,0-0.1,0-0.1c0-1.7,1.4-3.1,3.1-3.1
			c1.7,0,3.1,1.4,3.1,3.1c0,0.1,0,0.1,0,0.1h4.5c0.7,0,1.2-0.6,1.2-1.2V79.6z"/>
		<g>
			<path class="st1" d="M25.7,78.4c-0.4,0.8-0.5,1.6-0.3,2.4l4.1,16.3c0.4-0.2,0.9-0.4,1.4-0.4c0,0,0.1,0,0.1,0l-4-16.2
				c-0.2-0.7,0-1.5,0.5-2.2H25.7z"/>
			<path class="st1" d="M9.9,96.9c0.2-0.1,0.5-0.1,0.7-0.1c0.3,0,0.6,0,0.9,0.1l4.2-16.2l0,0c0.2-0.8,0-1.6-0.4-2.3h-1.8l0,0
				c0.5,0.7,0.7,1.4,0.5,2.1L9.9,96.9z"/>
		</g>
		<path class="st2" d="M27,72.7c-0.2-1.1,0-2.2,0.5-3.2l1.3-2.5c1.3-2.4,0.3-5.4-2.2-6.7c-1.6-0.9-3.4-1.3-5.2-1.4V0h-1.9v58.9
			c-1.8,0.1-3.5,0.6-5.1,1.4c-2.5,1.3-3.4,4.3-2.2,6.7l1.3,2.5c0.5,1,0.7,2,0.5,3L9.5,98.1c-0.1,0.4,0.2,0.9,0.7,1
			c0.4,0.1,0.9-0.2,0.9-0.7l4.6-25.5c0,0,0,0,0,0c0.2-1.4-0.1-2.8-0.7-4l-1.3-2.5c-0.9-1.6-0.2-3.6,1.5-4.5c1.4-0.7,2.9-1.1,4.4-1.2
			v1.2c0,0.5,0.4,0.9,0.9,0.9c0.5,0,1-0.4,1-0.9v-1.2c1.5,0.1,3,0.5,4.4,1.2c1.7,0.9,2.3,2.9,1.5,4.5l-1.3,2.5
			c-0.7,1.3-0.9,2.7-0.7,4.2l4.5,25.5c0.1,0.4,0.4,0.7,0.8,0.7c0,0,0.1,0,0.1,0c0.4-0.1,0.7-0.5,0.7-0.9L27,72.7z"/>
	</g>
</g>
</svg>
