<?xml version="1.0" encoding="utf-8"?>
<!-- Generator: Adobe Illustrator 21.0.2, SVG Export Plug-In . SVG Version: 6.00 Build 0)  -->
<svg version="1.1" id="Layer_1" xmlns="http://www.w3.org/2000/svg" xmlns:xlink="http://www.w3.org/1999/xlink" x="0px" y="0px"
	 viewBox="0 0 25 23" style="enable-background:new 0 0 25 23;" xml:space="preserve">
<style type="text/css">
	.st0{fill:#EC4F8C;}
</style>
<g>
	<path class="st0" d="M24.1,10.4c-0.6-0.6-1.2-0.8-2-0.8h-1V5.7c0-0.4-0.1-0.8-0.3-1.3c-0.2-0.5-0.4-0.9-0.7-1.1L17.8,1
		c-0.3-0.3-0.7-0.5-1.1-0.7C16.2,0.1,15.8,0,15.4,0H5.3c-0.4,0-0.7,0.1-1,0.4C4,0.7,3.9,1,3.9,1.4v8.1h-1c-0.8,0-1.5,0.3-2,0.8
		C0.3,11,0,11.7,0,12.5v6.2c0,0.1,0,0.2,0.1,0.3c0.1,0.1,0.2,0.1,0.3,0.1h3.4v2.4c0,0.4,0.1,0.7,0.4,1c0.3,0.3,0.6,0.4,1,0.4h14.4
		c0.4,0,0.7-0.1,1-0.4c0.3-0.3,0.4-0.6,0.4-1v-2.4h3.4c0.1,0,0.2,0,0.3-0.1c0.1-0.1,0.1-0.2,0.1-0.3v-6.2C25,11.7,24.7,11,24.1,10.4
		z M19.2,21.1H5.8v-3.8h13.4V21.1z M19.2,11.5H5.8V1.9h9.6v2.4c0,0.4,0.1,0.7,0.4,1c0.3,0.3,0.6,0.4,1,0.4h2.4L19.2,11.5L19.2,11.5z
		 M22.8,13.1c-0.2,0.2-0.4,0.3-0.7,0.3s-0.5-0.1-0.7-0.3c-0.2-0.2-0.3-0.4-0.3-0.7s0.1-0.5,0.3-0.7c0.2-0.2,0.4-0.3,0.7-0.3
		c0.3,0,0.5,0.1,0.7,0.3c0.2,0.2,0.3,0.4,0.3,0.7C23,12.7,22.9,12.9,22.8,13.1z"/>
</g>
</svg>
