<?xml version="1.0" encoding="utf-8"?>
<!-- Generator: Adobe Illustrator 21.0.2, SVG Export Plug-In . SVG Version: 6.00 Build 0)  -->
<svg version="1.1" id="Layer_1" xmlns="http://www.w3.org/2000/svg" xmlns:xlink="http://www.w3.org/1999/xlink" x="0px" y="0px"
	 viewBox="0 0 25 25" style="enable-background:new 0 0 25 25;" xml:space="preserve">
<style type="text/css">
	.st0{fill:#EC4F8C;}
</style>
<g>
	<g>
		<path class="st0" d="M12.5,0C5.6,0,0,5.6,0,12.5C0,19.4,5.6,25,12.5,25C19.4,25,25,19.4,25,12.5C25,5.6,19.4,0,12.5,0z M12.5,23.4
			c-6,0-10.9-4.9-10.9-10.9c0-6,4.9-10.9,10.9-10.9c6,0,10.9,4.9,10.9,10.9C23.4,18.5,18.5,23.4,12.5,23.4z"/>
		<path class="st0" d="M17.5,11.7h-4.1V7.5c0-0.5-0.4-0.8-0.8-0.8s-0.8,0.4-0.8,0.8v4.1H7.5c-0.5,0-0.8,0.4-0.8,0.8
			c0,0.5,0.4,0.8,0.8,0.8h4.1v4.1c0,0.5,0.4,0.8,0.8,0.8c0.5,0,0.8-0.4,0.8-0.8v-4.1h4.1c0.5,0,0.8-0.4,0.8-0.8
			C18.3,12,17.9,11.7,17.5,11.7z"/>
	</g>
</g>
</svg>
