<?xml version="1.0" encoding="utf-8"?>
<!-- Generator: Adobe Illustrator 21.0.2, SVG Export Plug-In . SVG Version: 6.00 Build 0)  -->
<svg version="1.1" id="Layer_1" xmlns="http://www.w3.org/2000/svg" xmlns:xlink="http://www.w3.org/1999/xlink" x="0px" y="0px"
	 viewBox="0 0 80 80" style="enable-background:new 0 0 80 80;" xml:space="preserve">
<style type="text/css">
	.st0{fill:#FFFFFF;}
</style>
<g>
	<g id="Layer_1_95_">
		<g>
			<path class="st0" d="M47.3,47.3H5.5v-40h41.8v15.3l3.6,0.8V6.8C52,6.1,52.7,5,52.7,3.6c0-2-1.6-3.6-3.6-3.6H3.6
				C1.6,0,0,1.6,0,3.6C0,5,0.7,6.1,1.8,6.8v42.3c0,1,0.8,1.8,1.8,1.8h11.2L8.3,75.4c-0.5,1.9,0.6,3.9,2.6,4.5
				c0.3,0.1,0.6,0.1,0.9,0.1c1.6,0,3.1-1.1,3.5-2.7l7-26.4h8l7,26.4c0.4,1.6,1.9,2.7,3.5,2.7c0.3,0,0.6,0,0.9-0.1
				c1.9-0.5,3.1-2.5,2.6-4.4l-6.5-24.5h11.2c1,0,1.8-0.8,1.8-1.8V38.2l-3.6-0.8L47.3,47.3L47.3,47.3z"/>
			<path class="st0" d="M62.7,26.4c3.6,0,6.5-2.9,6.5-6.5c0-3.6-2.9-6.5-6.5-6.5c-3.6,0-6.5,2.9-6.5,6.5
				C56.3,23.5,59.2,26.4,62.7,26.4z"/>
			<path class="st0" d="M79.8,47.8l-6.7-17.3c-0.5-1.4-1.9-2.3-3.4-2.3h-3.5c-1,0-1.9,0.4-2.5,1.1l1.7,12.4l-2.6,2.2l-2.6-2.2
				l1.7-12.4c-0.7-0.7-1.5-1.1-2.5-1.1h-3.2l-20.8-4.5c-2-0.4-3.9,0.8-4.3,2.8c-0.4,2,0.8,3.9,2.8,4.3L55,35.4
				c0.2,0,0.4,0.1,0.7,0.1v16.8l-1.4,23.9c-0.1,2,1.4,3.7,3.4,3.8c0.1,0,0.1,0,0.2,0c1.9,0,3.5-1.5,3.6-3.4l1.2-20.5l1.2,20.5
				c0.1,1.9,1.7,3.4,3.6,3.4c0.1,0,0.1,0,0.2,0c2-0.1,3.5-1.8,3.4-3.8l-1.4-23.9V42.1l3.2,8.3c0.7,1.9,2.8,2.8,4.7,2.1
				C79.5,51.8,80.5,49.7,79.8,47.8z"/>
			<path class="st0" d="M8.2,25.9v15.5c0,1,0.8,1.8,1.8,1.8c1,0,1.8-0.8,1.8-1.8V25.9c0-1-0.8-1.8-1.8-1.8S8.2,24.9,8.2,25.9z"/>
			<path class="st0" d="M16.4,13.2v28.2c0,1,0.8,1.8,1.8,1.8s1.8-0.8,1.8-1.8V13.2c0-1-0.8-1.8-1.8-1.8
				C17.2,11.4,16.4,12.2,16.4,13.2z"/>
			<path class="st0" d="M24.5,20.5v20.9c0,1,0.8,1.8,1.8,1.8c1,0,1.8-0.8,1.8-1.8V20.5c0-1-0.8-1.8-1.8-1.8
				C25.4,18.6,24.5,19.5,24.5,20.5z"/>
		</g>
	</g>
</g>
</svg>
