<?xml version="1.0" encoding="utf-8"?>
<!-- Generator: Adobe Illustrator 21.0.2, SVG Export Plug-In . SVG Version: 6.00 Build 0)  -->
<svg version="1.1" id="Layer_1" xmlns="http://www.w3.org/2000/svg" xmlns:xlink="http://www.w3.org/1999/xlink" x="0px" y="0px"
	 viewBox="0 0 98 74" style="enable-background:new 0 0 98 74;" xml:space="preserve">
<style type="text/css">
	.st0{fill:#DEEEF9;}
</style>
<g>
	<path class="st0" d="M74.4,1.3c13.8,0,23,11.9,23,30.1c0,14.2-8.7,31.6-20.8,41.4l-20.1-2.9c9.2-9,15.9-19.8,15.9-25.9
		C61.2,43.9,53,35.1,53,22.7C53,10.1,62.5,1.3,74.4,1.3z M21.9,1.3c13.9,0,23,11.9,23,30.1c0,14.2-8.7,31.6-20.8,41.4L4.1,69.8
		C13.3,60.8,20,50,20,43.9c-11.3,0-19.5-8.9-19.5-21.3C0.5,10.1,10,1.3,21.9,1.3z"/>
</g>
</svg>
