<?xml version="1.0" encoding="utf-8"?>
<!-- Generator: Adobe Illustrator 21.0.2, SVG Export Plug-In . SVG Version: 6.00 Build 0)  -->
<svg version="1.1" id="Layer_1" xmlns="http://www.w3.org/2000/svg" xmlns:xlink="http://www.w3.org/1999/xlink" x="0px" y="0px"
	 viewBox="0 0 68 80" style="enable-background:new 0 0 68 80;" xml:space="preserve">
<style type="text/css">
	.st0{fill:#FFFFFF;}
</style>
<g>
	<path class="st0" d="M34,38.6c1.9-2.6,5.2-3.9,8.2-4.9c3.6-1.2,7.4-1.8,11.2-2.2c0-0.1-0.1-0.1-0.1-0.2c-2.2-2.5-5.4-3.8-8.8-3.8
		c-0.9,0-1.8,0-2.7,0c-0.3,0-0.7-0.1-1.1,0c-0.6,0.1-1.2,0.5-1.8,0.7c-3.6,1.2-7.6,1-11-0.5c-0.7-0.3-1.5-0.2-2.3-0.2
		c-0.7,0-1.4,0-2.1,0c-3.3,0-6.5,1.5-8.7,4c3.8,0.4,7.6,1.1,11.2,2.2C28.8,34.7,32,36.1,34,38.6z"/>
	<path class="st0" d="M38.7,26.8c5.3-1.9,8.9-7.1,8.9-12.8c0-0.7-0.1-1.4-0.2-2.2C46.5,6.3,42.2,1.8,36.7,0.7
		C31.1-0.4,25.3,2.1,22.3,7c-2.9,4.9-2.5,11.3,1.2,15.7C27.2,27.1,33.3,28.7,38.7,26.8z"/>
	<path class="st0" d="M25,37.4c3.4,1,6.5,2.8,9,5.2c0,0,0-0.1,0-0.1c-0.1-2.1-1.6-3.8-3.3-5c-3.2-2.2-7.2-3.1-10.9-3.8
		c-3.7-0.7-7.5-1.1-11.2-1.2c0,1.9,0,3.8,0,5.7c1.9-0.5,3.9-0.9,5.9-1.2C17.9,36.6,21.5,36.4,25,37.4z"/>
	<path class="st0" d="M41.7,35.4c-3.2,1.1-7.5,3.2-7.7,7.2c1.4-1.4,3.1-2.6,4.8-3.5c3.1-1.7,6.6-2.5,10.1-2.4
		c3.6,0.1,7.1,0.6,10.6,1.6c0-1.9,0-3.8,0-5.7c-2.1,0.1-4.2,0.2-6.2,0.5C49.3,33.4,45.4,34.1,41.7,35.4z"/>
	<path class="st0" d="M31.7,42.6C31.7,42.6,31.7,42.6,31.7,42.6c-2.3-1.8-4.9-3.2-7.7-3.9c-2.8-0.7-5.7-0.6-8.6-0.3
		c-3.2,0.3-6.3,1.1-9.4,2.2C5.7,40.7,5.4,40.8,5,41c-0.1,0.1-0.6,0.2-0.7,0.3c0,0.1,0,0.3,0,0.4c0,0.9,0.1,1.7,0.1,2.6
		c0.1,1.1,0.1,2.1,0.2,3.2c0,0.5,0,1.1,0.1,1.7s0.2,1,0.2,1.6c0,0.1,0,0.3,0.1,0.4c0.2,0.1,0.8,0,1,0c1.8,0.2,3.4,1.4,4.1,3
		c0.5,1.1,0.5,2.2,0.5,3.4c0,0.9,0.1,1.8,0,2.7c-0.2,1.8-1.3,3.4-3,4.2c-0.4,0.2-0.8,0.3-1.3,0.4c-0.2,0-0.8,0-0.8,0.1
		c0,0.1,0,0.4,0,0.4c0.2,3.5,0.3,7,0.5,10.6c0,0.1,0,0.2,0,0.3c1.6-1.2,3.7-1.8,5.5-2.3c2.5-0.6,5-0.9,7.6-0.9
		c2.4,0,4.8,0.3,7.1,1.1c2.4,0.8,4.5,2.2,6.3,3.9c0-4,0-8,0-12c0-6.3,0-12.5,0-18.8c0-1,0-2,0-3c0-0.2,0-0.5,0-0.8
		C32.5,43,32.1,42.8,31.7,42.6z"/>
	<path class="st0" d="M63.7,41.3C63.7,41.3,63.7,41.3,63.7,41.3L63.7,41.3z"/>
	<path class="st0" d="M62.5,64.8c-0.1-0.1-0.8-0.1-0.9-0.1c-0.4-0.1-0.7-0.2-1-0.3c-2-0.9-3.1-2.9-3.1-5c0-1.2-0.1-2.5,0-3.7
		c0.3-2.5,2.5-4.5,5.1-4.6c0.2,0,0.5,0.1,0.6-0.1c0.1-0.2,0-0.6,0-0.8c0-0.5,0.2-0.9,0.2-1.4c0.1-1.4,0.1-2.9,0.2-4.3
		c0-0.7,0.1-1.5,0.1-2.2c0-0.1,0.1-0.9,0-0.9c-1.2-0.7-2.8-1.1-4.1-1.5c-1.8-0.5-3.6-0.9-5.5-1.2c-3-0.4-6.1-0.7-9.1-0.1
		c-3.2,0.6-6.2,2.1-8.7,4.1c-0.7,0.6-1.4,1.2-2,1.9c-0.1,0.1-0.2,0.2-0.3,0.4c-0.1,0.2,0,0.6,0,0.8c0,3.5,0,7.1,0,10.6
		c0,4.9,0,9.8,0,14.7c0,1.9,0,3.8,0,5.7c0,0.6,0,1.2,0,1.9c0,0.3-0.1,0.7,0,1c0,0,0,0.1,0,0.1c2.5-3.6,7-5.8,11.3-6.4
		c2.9-0.4,5.9-0.2,8.8,0.2c2,0.3,4,0.8,5.8,1.6c0.7,0.3,1.5,0.7,2.1,1.2c0.1-2.1,0.2-4.2,0.3-6.3c0.1-1.3,0.1-2.6,0.2-3.9
		c0-0.3,0.1-0.7,0-1C62.5,64.9,62.6,64.8,62.5,64.8z"/>
	<path class="st0" d="M9.1,60.1c0.2-1.2,0-2.5,0-3.8c0-1.8-1.3-3.4-3-3.8c-0.7-0.1-1.4,0.1-2-0.3c-0.5-0.3-0.7-0.8-0.7-1.4
		c0-0.9,0-1.9-1-2.2c-0.9-0.3-1.9,0.3-2,1.3c0,0.3,0,0.6,0,1c0,2.9,0,5.7,0,8.6c0,1.3,0.6,2.5,1.6,3.3c1.1,0.8,2.8,0.9,4.1,0.6
		C7.7,62.9,8.9,61.6,9.1,60.1z"/>
	<path class="st0" d="M67.6,57.7c0-2.6,0-5.1,0-7.7c0-1.8-2.7-2-3-0.3c-0.1,0.6,0.1,1.1-0.1,1.7c-0.2,0.6-0.8,1-1.4,1
		c-0.7,0.1-1.4,0.1-2.1,0.4c-0.7,0.3-1.2,0.9-1.6,1.5c-0.7,1.2-0.5,2.8-0.5,4.2c0,1.4,0.1,2.8,1.2,3.8c1,1,2.4,1.1,3.7,1
		c1.7-0.1,3.1-1.2,3.6-2.8C67.7,59.7,67.6,58.7,67.6,57.7z"/>
</g>
</svg>
