<?xml version="1.0" encoding="utf-8"?>
<!-- Generator: Adobe Illustrator 21.0.2, SVG Export Plug-In . SVG Version: 6.00 Build 0)  -->
<svg version="1.1" id="Layer_1" xmlns="http://www.w3.org/2000/svg" xmlns:xlink="http://www.w3.org/1999/xlink" x="0px" y="0px"
	 viewBox="0 0 55 49" style="enable-background:new 0 0 55 49;" xml:space="preserve">
<style type="text/css">
	.st0{fill:#FFFFFF;}
</style>
<g>
	<g>
		<g>
			<path class="st0" d="M27.5,0.3c-4.7,0-8.5,3.9-8.5,8.6s3.8,8.5,8.5,8.5S36,13.6,36,8.9S32.2,0.3,27.5,0.3z"/>
		</g>
	</g>
	<g>
		<g>
			<path class="st0" d="M30.3,17.4h-2.8h-2.8c-2,0-3.9,0.5-5.7,1.4c3,0.8,5.8,2,8.5,3.5c2.7-1.6,5.6-2.7,8.5-3.5
				C34.3,17.9,32.3,17.4,30.3,17.4z"/>
		</g>
	</g>
	<g>
		<g>
			<path class="st0" d="M48.9,25.9c-1.6,0-2.8,1.3-2.8,2.8v5.7c0,1.6,1.3,2.8,2.8,2.8s2.8-1.3,2.8-2.8v-5.7
				C51.8,27.2,50.5,25.9,48.9,25.9z"/>
		</g>
	</g>
	<g>
		<g>
			<path class="st0" d="M6.1,25.9c-1.6,0-2.8,1.3-2.8,2.8v5.7c0,1.6,1.3,2.8,2.8,2.8s2.8-1.3,2.8-2.8v-5.7
				C8.9,27.2,7.7,25.9,6.1,25.9z"/>
		</g>
	</g>
	<g>
		<g>
			<path class="st0" d="M7.5,20.2c-0.8,0-1.4,0.6-1.4,1.4v1.4c3.1,0,5.7,2.5,5.7,5.7v5.7c0,3.1-2.5,5.7-5.7,5.7v1.4
				c0,0.8,0.6,1.4,1.4,1.4c7.3,0,13.1,2.3,18.6,5.8V24.8C20.6,21.7,14.7,20.2,7.5,20.2z"/>
		</g>
	</g>
	<g>
		<g>
			<path class="st0" d="M48.9,23.1v-1.4c0-0.8-0.6-1.4-1.4-1.4c-7.2,0-13.1,1.5-18.6,4.6v23.9c5.5-3.5,11.3-5.8,18.6-5.8
				c0.8,0,1.4-0.6,1.4-1.4v-1.4c-3.1,0-5.7-2.5-5.7-5.7v-5.7C43.2,25.6,45.8,23.1,48.9,23.1z"/>
		</g>
	</g>
</g>
</svg>
