<?xml version="1.0" encoding="utf-8"?>
<!-- Generator: Adobe Illustrator 21.0.2, SVG Export Plug-In . SVG Version: 6.00 Build 0)  -->
<svg version="1.1" id="Layer_1" xmlns="http://www.w3.org/2000/svg" xmlns:xlink="http://www.w3.org/1999/xlink" x="0px" y="0px"
	 viewBox="0 0 80 61" style="enable-background:new 0 0 80 61;" xml:space="preserve">
<style type="text/css">
	.st0{fill:#FFFFFF;}
</style>
<g>
	<g>
		<g>
			<path class="st0" d="M12.6,0.3C12.6,0.3,12.6,0.3,12.6,0.3c-0.8,0-1.5,0.3-2,0.8c-0.5,0.5-0.8,1.2-0.8,2v42.4
				c0,1.6,1.3,2.8,2.8,2.8c6.6,0,17.6,1.4,25.2,9.3V13.3c0-0.5-0.1-1-0.4-1.4C31.2,1.9,19.2,0.3,12.6,0.3z"/>
			<path class="st0" d="M70.2,45.5V3.1c0-0.8-0.3-1.5-0.8-2c-0.5-0.5-1.2-0.8-2-0.8c0,0,0,0,0,0c-6.6,0-18.6,1.5-24.8,11.6
				c-0.3,0.4-0.4,0.9-0.4,1.4v44.4c7.6-8,18.6-9.3,25.2-9.3C69,48.4,70.2,47.1,70.2,45.5z"/>
			<path class="st0" d="M76.7,10.1h-2v35.4c0,4-3.2,7.2-7.2,7.2c-5.6,0-14.8,1.1-21.3,7.3c11.3-2.8,23.2-1,29.9,0.6
				c0.8,0.2,1.7,0,2.4-0.5c0.7-0.5,1.1-1.3,1.1-2.2V12.9C79.5,11.4,78.2,10.1,76.7,10.1z"/>
			<path class="st0" d="M5.4,45.5V10.1h-2c-1.6,0-2.8,1.3-2.8,2.8v44.9c0,0.9,0.4,1.7,1.1,2.2c0.7,0.5,1.5,0.7,2.4,0.5
				c6.8-1.5,18.7-3.3,29.9-0.6c-6.5-6.2-15.7-7.3-21.3-7.3C8.6,52.7,5.4,49.5,5.4,45.5z"/>
		</g>
	</g>
</g>
</svg>
