<?xml version="1.0" encoding="utf-8"?>
<!-- Generator: Adobe Illustrator 21.0.2, SVG Export Plug-In . SVG Version: 6.00 Build 0)  -->
<svg version="1.1" id="Layer_1" xmlns="http://www.w3.org/2000/svg" xmlns:xlink="http://www.w3.org/1999/xlink" x="0px" y="0px"
	 viewBox="0 0 80 78" style="enable-background:new 0 0 80 78;" xml:space="preserve">
<style type="text/css">
	.st0{fill:#FFFFFF;}
</style>
<g>
	<path class="st0" d="M4.3,39c0.3-2.9,2.3-5.3,5.1-6.3c2.7-1,5.8-0.3,7.9,1.8c0.6,0.6,1.1,1.3,1.5,2.1c0.4,0.7,0.6,1.5,0.7,2.4h1.7
		c-0.4-1.5-1.1-3-2-4.3c-0.4-0.6-0.9-1.2-1.4-1.7c-0.9-0.9-2-1.7-3.2-2.4c-4-2.1-8.4-1.7-11,0.9c-1.9,2-2.6,4.8-2.1,7.4H4.3z"/>
	<path class="st0" d="M12.6,35.1c-2.6-0.4-5,1.3-5.5,3.9h9.5c-0.1-0.4-0.2-0.8-0.4-1.2c-0.2-0.5-0.6-1-1-1.4
		C14.6,35.7,13.6,35.2,12.6,35.1z"/>
	<path class="st0" d="M23.4,74.9h33.2v2.8H23.4V74.9z"/>
	<path class="st0" d="M1.4,47.3c0.9,11.9,9.3,21.9,20.8,24.9h35.6c11.6-3,20-13,20.8-24.9H1.4z M4.6,50.4l2.7-0.6
		c0.2,0.9,0.5,1.9,0.8,2.8l-2.6,0.9C5.1,52.5,4.8,51.5,4.6,50.4z M17.2,67.3C12.6,64.8,8.9,61,6.7,56.3l2.5-1.2
		c2,4.1,5.3,7.5,9.4,9.7L17.2,67.3z"/>
	<path class="st0" d="M33.1,22.1c0-1.4-0.2-2.7-0.6-4c-0.5-1.6-0.8-3.2-0.8-4.8c0-1,0.1-2.1,0.3-3.1l-2.7-0.1
		c-0.3,1-0.4,2.1-0.4,3.1c0,1.4,0.2,2.7,0.6,4c0.5,1.6,0.8,3.2,0.8,4.8c0,1.6-0.2,3.3-0.8,4.8c-0.5,1.3-0.7,2.6-0.6,4
		c0,1.4,0.2,2.7,0.6,4c0.4,1.3,0.7,2.6,0.7,4h2.8c0-1.1-0.2-2.2-0.6-3.2c-0.5-1.6-0.8-3.2-0.8-4.8c0-1.6,0.2-3.3,0.8-4.8
		C32.9,24.8,33.1,23.5,33.1,22.1z"/>
	<path class="st0" d="M23.4,7.2l9.3,0.2C32.9,6.9,33,6.3,33,5.8h-9.6V7.2z"/>
	<path class="st0" d="M18.8,28.5c-0.5,0.2-0.9,0.5-1.4,0.7c0.8,0.5,1.5,1.2,2.2,1.8c0.4,0.4,0.7,0.8,1,1.2c1.8-0.7,3.8-0.6,5.5,0.1
		c0-0.4-0.1-0.9-0.1-1.4c0-0.6,0-1.2,0.1-1.7C24,27.8,21.3,27.5,18.8,28.5z"/>
	<path class="st0" d="M27.5,39c0-0.9-0.2-1.8-0.4-2.6c-1.1-1.4-3-2.1-4.8-1.7c0.8,1.4,1.3,2.8,1.6,4.4H27.5z"/>
	<path class="st0" d="M45.5,30.9c0,1.4,0.2,2.7,0.6,4c0.4,1.3,0.7,2.6,0.7,4h2.8c0,0,0-0.1,0-0.1c0-0.3,0-0.6-0.1-0.8
		c0,0,0-0.1,0-0.1c0-0.3-0.1-0.5-0.1-0.7c0,0,0-0.1,0-0.1c0-0.2-0.1-0.4-0.2-0.6c0,0,0-0.1,0-0.1c-0.1-0.2-0.1-0.4-0.2-0.6
		c-0.5-1.6-0.8-3.2-0.8-4.8c0-1.6,0.2-3.3,0.8-4.8c0.4-1.3,0.7-2.6,0.6-4c0-1.4-0.2-2.7-0.6-4c-0.5-1.6-0.8-3.2-0.8-4.8
		c0-1.6,0.2-3.3,0.8-4.8c0.1-0.2,0.1-0.3,0.2-0.5l0-0.1c0-0.2,0.1-0.3,0.1-0.5l0,0c0-0.2,0.1-0.4,0.1-0.6c0-0.1,0-0.1,0-0.2
		c0-0.2,0.1-0.4,0.1-0.6c0,0,0-0.1,0-0.1h-2.8c-0.1,1.2-0.3,2.3-0.7,3.5c-0.4,1.3-0.7,2.6-0.6,4c0,1.4,0.2,2.7,0.6,4
		c0.5,1.6,0.8,3.2,0.8,4.8c0,1.6-0.2,3.3-0.8,4.8C45.7,28.2,45.5,29.6,45.5,30.9z"/>
	<path class="st0" d="M75.1,39l3-3.5l-8.4-7.2L60.6,39H75.1z"/>
	<path class="st0" d="M51.1,31.4c0,1.1,0.2,2.2,0.5,3.3c2.5-2.9,6.9-3.5,10-1.2l1.8-2.1C59.8,28.6,54.7,28.6,51.1,31.4z"/>
	<path class="st0" d="M52.5,39h4.4l2.9-3.4c-0.8-0.5-1.6-0.7-2.5-0.7C54.9,34.8,52.9,36.6,52.5,39z"/>
	<path class="st0" d="M34.5,41.7H1.3v2.8h77.4v-2.8H34.5z"/>
	<path class="st0" d="M52.1,7.9l26.6,0.6V5.8H52.4C52.4,6.5,52.2,7.2,52.1,7.9z"/>
	<path class="st0" d="M23.4,3h55.3V0.3L23.4,1.6V3z"/>
	<path class="st0" d="M34.5,30.9c0,1.4,0.2,2.7,0.6,4c0.1,0.2,0.1,0.4,0.2,0.7c0,0,0,0.1,0,0.1c0.1,0.2,0.1,0.5,0.2,0.8l0,0.2
		c0.1,0.3,0.1,0.6,0.2,0.9c0,0.1,0,0.1,0,0.2c0,0.4,0.1,0.7,0.1,1.2v0h2.8c0-1.1-0.2-2.2-0.6-3.2c-0.5-1.6-0.8-3.2-0.8-4.8
		c0-1.6,0.2-3.3,0.8-4.8c0.4-1.3,0.7-2.6,0.6-4c0-1.4-0.2-2.7-0.6-4c-0.5-1.6-0.8-3.2-0.8-4.8c0-1.6,0.2-3.3,0.8-4.8
		c0.3-0.9,0.5-1.7,0.6-2.6h-2.8c0,0,0,0.1,0,0.1c0,0.3-0.1,0.6-0.1,0.9c0,0.1,0,0.1,0,0.2c0,0.2-0.1,0.5-0.1,0.7c0,0,0,0.1,0,0.1
		c-0.1,0.2-0.1,0.5-0.2,0.7c0,0.1,0,0.1-0.1,0.2c-0.1,0.2-0.1,0.4-0.2,0.6c-0.4,1.3-0.7,2.6-0.6,4c0,1.4,0.2,2.7,0.6,4
		c0.5,1.6,0.8,3.2,0.8,4.8c0,1.6-0.2,3.3-0.8,4.8C34.7,28.2,34.4,29.6,34.5,30.9z"/>
	<path class="st0" d="M40,30.9c0,1.4,0.2,2.7,0.6,4c0.4,1.3,0.7,2.6,0.7,4h2.8c0-1.1-0.2-2.2-0.6-3.2c-0.5-1.6-0.8-3.2-0.8-4.8
		c0-1.6,0.2-3.3,0.8-4.8c0.4-1.3,0.7-2.6,0.6-4c0-1.4-0.2-2.7-0.6-4c-0.5-1.6-0.8-3.2-0.8-4.8c0-1.6,0.2-3.3,0.8-4.8
		c0.3-0.9,0.5-1.7,0.6-2.6h-2.8C41.2,7,41,8.1,40.6,9.2c-0.4,1.3-0.7,2.6-0.6,4c0,1.4,0.2,2.7,0.6,4c0.5,1.6,0.8,3.2,0.8,4.8
		c0,1.6-0.2,3.3-0.8,4.8C40.2,28.2,40,29.6,40,30.9z"/>
</g>
</svg>
