<?xml version="1.0" encoding="utf-8"?>
<!-- Generator: Adobe Illustrator 21.0.2, SVG Export Plug-In . SVG Version: 6.00 Build 0)  -->
<svg version="1.1" id="Layer_1" xmlns="http://www.w3.org/2000/svg" xmlns:xlink="http://www.w3.org/1999/xlink" x="0px" y="0px"
	 viewBox="0 0 60 80" style="enable-background:new 0 0 60 80;" xml:space="preserve">
<style type="text/css">
	.st0{fill:#FFFFFF;}
</style>
<g>
	<path class="st0" d="M49.8,46.6H44l0.7,22.7c0.1,1.9,1.6,3.4,3.5,3.4h0.1c2-0.1,3.5-1.6,3.4-3.6L51,46.5
		C50.5,46.6,50.2,46.6,49.8,46.6z"/>
	<path class="st0" d="M37.8,46.6c-0.5,0-0.9-0.1-1.4-0.2L36,69.1c0,1.9,1.5,3.5,3.4,3.5h0.1c1.9,0,3.5-1.5,3.5-3.4l0.5-22.6
		L37.8,46.6z"/>
	<path class="st0" d="M18.5,58.6h-5.1L14.1,76c0.1,1.9,1.6,3.4,3.5,3.4h0.1c2-0.1,3.4-1.7,3.4-3.6l-0.7-17.7
		C19.8,58.4,19.2,58.6,18.5,58.6z"/>
	<path class="st0" d="M8.1,58.6c-0.8,0-1.6-0.2-2.2-0.7L5.4,75.8c-0.1,2,1.5,3.5,3.4,3.6h0.1c1.9,0,3.5-1.5,3.5-3.4l0.5-17.4H8.1z"
		/>
	<path class="st0" d="M39,13.1c2.4-0.8,6.2-1,9.2-0.1c1.5-1.3,2.3-3.1,2.3-5.2c0-3.8-3.1-7.1-7.1-7.1c-3.8,0-7,3.1-7,7.1
		C36.4,9.8,37.5,11.8,39,13.1z"/>
	<path class="st0" d="M8.8,29.5c0.3-0.1,1-0.3,1.4-0.3c2.7-0.6,5.6-0.3,7.6,0.3c1.5-1.3,2.6-3.3,2.6-5.4c0-3.8-3.1-7.1-7.1-7.1
		c-3.8,0-7.1,3.1-7.1,7.1C6.2,26.2,7.2,28.2,8.8,29.5z"/>
	<path class="st0" d="M45.9,13.8L45.9,13.8c-2.2-0.3-3.7,0-4.4,0.1h-0.1c-1.4,0.3-2.3,0.6-3.7,1.2c0.1,0.1,0.9,1,0.8,0.9l0.5,0.5
		c0.6-0.5,1.4-0.7,2.2-0.7c5,0.1,6.2-0.5,7.9,0.7c0.1-0.1,0.9-1,0.8-0.9l0.5-0.5C48.6,14.2,46.8,13.8,45.9,13.8z"/>
	<path class="st0" d="M15.5,30.2C15.6,30.2,15.6,30.2,15.5,30.2L15,30.1c-0.7-0.3-3.7,0-3.8,0.1l0,0c-0.7,0.1-1.2,0.2-1.7,0.5l0,0
		l-1,0.3c0.6,0.6,1,1.2,0.9,1c0.5-0.3,1.2-0.5,1.7-0.5h4.7c0.7,0,1.3,0.2,1.7,0.5c0.1-0.1,1-1.2,0.9-1
		C17.6,30.7,16.5,30.3,15.5,30.2z"/>
	<path class="st0" d="M54,17.3L54,17.3c-0.2-0.3-0.6-0.6-0.9-0.7l0,0c-0.1-0.1-0.2-0.1-0.3-0.2c-0.5-0.3-1-0.6-1.5-0.8
		c-0.1,0.1-0.9,1-0.8,0.9l-0.7,0.7c0.1,0.2,0.2,0.3,0.3,0.6c0.3,0.6,0.6,1.2,0.6,1.9l0.2,2.6l0,0l0.5,6.4c0.1,2.3-1.7,4.4-4.1,4.4
		h-6.9c-2.4,0-4.3-2-4.1-4.4c0-0.1,0.7-9.6,0.6-9.1c0.1-0.9,0.3-1.7,0.9-2.4c-0.1-0.1-1.6-1.7-1.5-1.6c-0.8,0.3-1.6,0.9-1.7,1
		c-0.2,0-0.9,0.5-1.3,1.3c0,0-0.1,0.2-0.2,0.6l0,0c-0.1,0.3-0.3,0.8-0.5,1.5l0,0c-1.2,3.6-3.3,11.7-3.8,23c-2.7-3.4-4.5-6.4-5.4-7.9
		l0,0c-0.2-0.5-0.5-0.8-0.5-0.9l0,0c-0.1-0.3-0.3-0.6-0.7-0.8c-0.2-0.3-2.1-1.4-2.6-1.6c-0.1,0.1-1.3,1.4-1.2,1.3
		c1,1.2,0.7,2.6,0.9,4.4c0,0.6,0.3,5.4,0.3,5c0.1,2-1.4,3.6-3.4,3.6h-5.7c-2,0-3.5-1.6-3.4-3.6c0-0.1,0.6-8,0.5-7.5
		c0-0.5,0.1-0.9,0.3-1.4c0.1-0.2,0.2-0.3,0.3-0.6c-0.1-0.1-1.3-1.4-1.2-1.3c-0.7,0.3-1.5,0.8-2.1,1.2l0,0c-0.6,0.3-0.9,0.7-1,1.3
		c-2.2,5-4,12.7-3.6,20.3c0.1,1.3,1,2.2,2.3,2.2H3c1.3,0,2.3-1.2,2.2-2.4c-0.1-3.3,0.1-5.4,0.3-7.1L6,54.8c0.1,1.3,1.2,2.4,2.6,2.4
		c0.1,0,5.4,0,5.2,0h5c1.3,0,2.4-1,2.6-2.4c0.1-1.4-0.3,5.1,0.8-13.8c0.2,0.3,0.8,1.3,1,1.5c1.2,1.6,2.6,3.5,4.2,5.4
		c0.5,0.6,1.2,0.8,1.7,0.8c0.3,0,0.7-0.1,0.9-0.2l0,0c0.5,0.2,0.8,0.2,1,0.2c1.3,0,2.3-1,2.3-2.3c0-2.6,0.2-5,0.3-7.3l0,0
		c0.1-1.3,0.2-2.4,0.3-3.6l0,0c0.1-1,0.2-2.1,0.5-3l0,0c0-0.1,0-0.1,0-0.2l0.6,10.3c0.1,1.5,1.4,2.7,2.9,2.7h2.1l0,0l0,0
		c0.3,0,4.2,0,4,0h3.5l0,0l0,0h2.4c1.5,0,2.8-1.2,2.8-2.7L53.6,32c0.2,0.8,1.2,7.2,1.3,14.5c0,1.3,1,2.3,2.3,2.3l0,0
		c1.3,0,2.3-1,2.3-2.3C58.8,30.9,55,18.3,54,17.3z"/>
	<path class="st0" d="M15.2,32.4h-3.7c-1.4,0-2.6,0.8-3,2.1c-0.1,0.1-0.1,0.3-0.1,0.5c0,0.2,0,0.3,0.1,0.5c0.1,0.1,0.2,0.1,0.3,0.2
		h0.1c0.2,0,0.5-0.1,0.6-0.5c0.2-0.9,1-1.6,2.1-1.6h3.7c0.9,0,1.9,0.7,2.1,1.6c0.1,0.3,0.5,0.5,0.7,0.5c0.1,0,0.3-0.1,0.3-0.2l0,0
		c0.1-0.1,0.1-0.2,0-0.5c0-0.1,0-0.1-0.1-0.2l0,0C17.9,33.4,16.6,32.4,15.2,32.4z"/>
	<path class="st0" d="M8.3,39.5c-0.8,0-0.6,1.3-0.7,2.1c-0.1,0.9,0.2,1.9,0.9,2.4c0.6,0.7,1.5,1,2.4,1h4.5c0.9,0,1.7-0.3,2.4-1
		c0.6-0.7,0.9-1.6,0.9-2.4L18.8,40c0-0.3-0.2-0.6-0.6-0.6H8.3V39.5z M17.2,43.3c-0.3,0.5-0.9,0.7-1.5,0.7H11c-0.6,0-1.2-0.2-1.6-0.7
		c-0.5-0.5-0.6-1-0.6-1.6l0.1-0.9h8.7C17.7,41.3,18,42.2,17.2,43.3z"/>
	<path class="st0" d="M46.1,16.8h-4.5c-1.7,0-3.3,1.2-3.7,2.9c-0.1,0.3,0.1,0.6,0.5,0.7c0.3,0.1,0.6-0.1,0.7-0.5
		c0.3-1.2,1.4-2.1,2.6-2.1h4.5c1.3,0,2.3,0.8,2.6,2.1c0.1,0.2,0.3,0.5,0.6,0.5h0.1c0.3-0.1,0.5-0.3,0.5-0.7
		C49.4,18,47.9,16.8,46.1,16.8z"/>
	<path class="st0" d="M37.2,25.9l-0.1,1.7c-0.1,2.2,1.6,4.1,3.8,4.1h5.6c2.2,0,4.1-2,3.8-4.1c-0.2-1.2,0.1-2.3-0.7-2.3H37.8
		C37.6,25.3,37.4,25.5,37.2,25.9z M38.4,26.5h10.7c0,0.8,0.5,2.1-0.6,3.3c-0.6,0.6-1.3,0.8-2,0.8H41c-1.6,0-2.8-1.3-2.7-2.9
		L38.4,26.5z"/>
</g>
</svg>
