<?xml version="1.0" encoding="utf-8"?>
<!-- Generator: Adobe Illustrator 21.0.2, SVG Export Plug-In . SVG Version: 6.00 Build 0)  -->
<svg version="1.1" id="Layer_1" xmlns="http://www.w3.org/2000/svg" xmlns:xlink="http://www.w3.org/1999/xlink" x="0px" y="0px"
	 viewBox="0 0 80 72" style="enable-background:new 0 0 80 72;" xml:space="preserve">
<style type="text/css">
	.st0{fill:#FFFFFF;}
</style>
<g>
	<path class="st0" d="M10.3,23.7c0.3-0.2,0.4-0.3,0.6-0.3l-1.7,7.8c-0.3,1.5,0,3.2,0.8,4.4c0.8,1.2,2.1,2,3.5,2.3L9.3,57.1
		c0,0.2-0.1,0.3-0.1,0.5H16l4-18.5l3.9,0.7l1.8,7.7h6.8l-2.3-9.9c-0.5-2.3-2.3-3.9-4.6-4.3l-4.3-0.8l1.6-7.3
		c0.2,0.2,0.3,0.4,0.4,0.6c1.1,1.6,2.8,2.7,4.8,2.9l5.8,0.8c0.7,0.1,1.3,0,1.8-0.3c0.8-0.4,1.3-1.2,1.5-2.2c0.3-1.6-0.9-3.1-2.5-3.3
		L29,22.9c-0.3-0.1-0.6-0.3-0.8-0.5c-5-7.1-6-7.5-7.4-7.6l-4.8-0.3c-0.9-0.1-1.8-0.1-8.9,4.2c-1.5,0.9-2.7,2.3-3.5,3.8l-3,5.9
		c-0.8,1.4-0.2,3.2,1.3,3.9c1.4,0.8,3.2,0.2,3.9-1.3l3-5.8C9.3,24.6,9.7,24.1,10.3,23.7z"/>
	
		<ellipse transform="matrix(9.732487e-02 -0.9953 0.9953 9.732487e-02 10.8368 25.455)" class="st0" cx="19.5" cy="6.8" rx="6.4" ry="6.4"/>
	<path class="st0" d="M78.3,21.2H66.8c-0.8,0-1.4,0.7-1.4,1.4v7.3c0,0.8-0.7,1.4-1.4,1.4H52.4c-0.8,0-1.4,0.7-1.4,1.4v7.3
		c0,0.8-0.7,1.4-1.4,1.4H38.1c-0.8,0-1.4,0.7-1.4,1.4V50c0,0.8-0.7,1.4-1.4,1.4H23.7c-0.8,0-1.4,0.7-1.4,1.4v7.3
		c0,0.8-0.7,1.4-1.4,1.4H9.3c-0.8,0-1.4,0.7-1.4,1.4v7.3c0,0.8,0.7,1.4,1.4,1.4h69c0.8,0,1.4-0.7,1.4-1.4V22.6
		C79.7,21.8,79.1,21.2,78.3,21.2z"/>
</g>
</svg>
