<?xml version="1.0" encoding="utf-8"?>
<!-- Generator: Adobe Illustrator 21.0.2, SVG Export Plug-In . SVG Version: 6.00 Build 0)  -->
<svg version="1.1" id="Layer_1" xmlns="http://www.w3.org/2000/svg" xmlns:xlink="http://www.w3.org/1999/xlink" x="0px" y="0px"
	 viewBox="0 0 80 62" style="enable-background:new 0 0 80 62;" xml:space="preserve">
<style type="text/css">
	.st0{fill:#FFFFFF;}
</style>
<g>
	<path class="st0" d="M30,15.6c3.7,0,6.6,3,6.6,6.6s-3,6.6-6.6,6.6h-4.8V34c0,1.2,0.9,2.1,2.1,2.1h48.9c1.2,0,2.1-0.9,2.1-2.1V2.3
		c0-1.2-0.9-2.1-2.1-2.1H27.2c-1.2,0-2.1,0.9-2.1,2.1v11.2l1.9,2.1H30z"/>
	<path class="st0" d="M30,24.7c1.3,0,2.5-1.1,2.5-2.5c0-1.3-1.1-2.5-2.5-2.5h-4.8l-3.9-4.3c-1.2-1.2-2.7-2-4.5-2h-4.4
		c-2,0-3.8,1-5,2.7L1,25.5c-0.6,0.8-0.7,2-0.1,2.8C1.4,29,2.2,29.4,3,29.4s1.6-0.3,2-1.1l3.3-4.8v24.8c0,1.2,0.8,2.4,2.1,2.6
		c1.6,0.2,2.8-0.9,2.8-2.4V33.1h2.4v15.2c0,1.2,0.8,2.4,2.1,2.6c1.6,0.2,2.8-0.9,2.8-2.4V22.1l1.7,1.9c0.5,0.5,1.2,0.8,1.8,0.8
		L30,24.7L30,24.7z"/>
	<circle class="st0" cx="14.4" cy="6.6" r="5.5"/>
	<path class="st0" d="M34.9,51.4h-5.6c-3.1,0-5.5,2.5-5.5,5.5v3.7c0,0.7,0.6,1.2,1.2,1.2h14.1c0.7,0,1.2-0.6,1.2-1.2v-3.7
		C40.4,53.8,37.9,51.4,34.9,51.4z"/>
	<circle class="st0" cx="32.1" cy="45.1" r="4.7"/>
	<path class="st0" d="M54.4,51.4h-5.6c-3.1,0-5.5,2.5-5.5,5.5v3.7c0,0.7,0.6,1.2,1.2,1.2h14.1c0.7,0,1.2-0.6,1.2-1.2v-3.7
		C59.9,53.8,57.4,51.4,54.4,51.4z"/>
	<circle class="st0" cx="51.6" cy="45.1" r="4.7"/>
	<path class="st0" d="M73.9,51.4h-5.6c-3.1,0-5.5,2.5-5.5,5.5v3.7c0,0.7,0.6,1.2,1.2,1.2h14.1c0.7,0,1.2-0.6,1.2-1.2v-3.7
		C79.4,53.8,76.9,51.4,73.9,51.4z"/>
	<circle class="st0" cx="71.1" cy="45.1" r="4.7"/>
</g>
</svg>
