<?xml version="1.0" encoding="utf-8"?>
<!-- Generator: Adobe Illustrator 21.0.2, SVG Export Plug-In . SVG Version: 6.00 Build 0)  -->
<svg version="1.1" id="Layer_1" xmlns="http://www.w3.org/2000/svg" xmlns:xlink="http://www.w3.org/1999/xlink" x="0px" y="0px"
	 viewBox="0 0 57 80" style="enable-background:new 0 0 57 80;" xml:space="preserve">
<style type="text/css">
	.st0{fill:#FFFFFF;}
</style>
<g>
	<path class="st0" d="M42.9,61.9l-2.3-1.3c-0.5,0.8-0.9,1.7-1.2,2.6l2.5,1C42.1,63.4,42.5,62.7,42.9,61.9z"/>
	<path class="st0" d="M45.7,57.5L43.6,56c-0.5,0.7-1,1.5-1.5,2.3l2.2,1.4C44.7,59,45.2,58.2,45.7,57.5z"/>
	<path class="st0" d="M48.8,53l-2.2-1.4c-0.4,0.7-0.9,1.4-1.5,2.2l2.2,1.5C47.8,54.5,48.3,53.8,48.8,53z"/>
	<path class="st0" d="M51.4,48.1L49,47c-0.4,0.8-0.8,1.6-1.2,2.4l2.3,1.2C50.6,49.8,51,49,51.4,48.1z"/>
	<path class="st0" d="M53.6,43.1l-2.5-0.9c-0.3,0.8-0.6,1.6-1,2.4l2.4,1C52.9,44.8,53.3,43.9,53.6,43.1z"/>
	<path class="st0" d="M56.8,29.7c0.1-0.9,0.1-1.7,0.1-2.5l0-0.3l-2.6,0l0,0.2c0,0.7,0,1.5-0.1,2.3L56.8,29.7z"/>
	<path class="st0" d="M53.7,21.8c0.2,0.8,0.3,1.7,0.4,2.5l2.6-0.3c-0.1-0.9-0.3-1.9-0.5-2.8L53.7,21.8z"/>
	<path class="st0" d="M52,17c0.4,0.8,0.7,1.5,1,2.3l2.5-0.9c-0.3-0.9-0.7-1.8-1.1-2.6L52,17z"/>
	<path class="st0" d="M49.3,12.7c0.5,0.7,1,1.4,1.5,2.1l2.2-1.4c-0.5-0.8-1.1-1.6-1.6-2.3L49.3,12.7z"/>
	<path class="st0" d="M45.7,9.1c0.7,0.5,1.3,1.1,1.9,1.7L49.4,9c-0.7-0.7-1.4-1.3-2.1-1.9L45.7,9.1z"/>
	<path class="st0" d="M45.1,5.4c-0.8-0.5-1.6-1-2.4-1.5l-1.3,2.3c0.8,0.4,1.5,0.9,2.2,1.3L45.1,5.4z"/>
	<path class="st0" d="M40.1,2.7c-0.9-0.4-1.7-0.7-2.6-1l-0.8,2.5c0.8,0.3,1.6,0.6,2.4,0.9L40.1,2.7z"/>
	<path class="st0" d="M31.7,3.1c0.9,0.1,1.7,0.3,2.5,0.4L34.8,1c-0.9-0.2-1.8-0.4-2.8-0.5L31.7,3.1z"/>
	<path class="st0" d="M41.1,70.2L41.1,70.2c0-1.5-1.1-2.6-2.5-2.6c0,0-0.1,0-0.1,0H17.2c-1.4-0.1-2.5,1-2.6,2.4c0,0,0,0.1,0,0.1v0.1
		c0,1.5,1.1,2.7,2.6,2.7h21.3C39.9,72.8,41.1,71.6,41.1,70.2z"/>
	<path class="st0" d="M18.3,74.2c-1.3,0-2.3,1.1-2.3,2.4c0,0,0,0.1,0,0.1v0.1c-0.1,1.4,0.9,2.6,2.3,2.7h19.1
		c1.4-0.1,2.4-1.3,2.3-2.7v-0.1c0.1-1.3-0.9-2.4-2.2-2.5c0,0-0.1,0-0.1,0H18.3z"/>
	<path class="st0" d="M17.3,31.9c0,5.8,4.7,10.6,10.6,10.6V21.3C22,21.3,17.3,26.1,17.3,31.9z"/>
	<path class="st0" d="M15.9,66.5c0.4-0.1,0.7-0.1,1.1-0.2h10.9V50.4c-0.8,0-1.5-0.1-2.3-0.2L25,47.5c-0.9-0.2-1.7-0.4-2.5-0.7
		l-1.9,2.1c-1.4-0.6-2.7-1.4-3.9-2.3l0.9-2.7c-0.7-0.6-1.3-1.2-1.8-1.8L13.1,43c-0.9-1.2-1.7-2.5-2.3-3.9l2.1-1.9
		c-0.3-0.8-0.5-1.7-0.7-2.5l-2.9-0.6v-4.5l2.9-0.6c0.2-0.9,0.4-1.7,0.7-2.5l-2.1-1.9c0.6-1.4,1.4-2.7,2.3-3.9l2.7,0.9
		c0.6-0.7,1.2-1.3,1.8-1.8l-0.9-2.7c1.2-0.9,2.5-1.7,3.9-2.3l1.9,2.1c0.8-0.3,1.7-0.5,2.5-0.7l0.6-2.8c0.7-0.1,1.5-0.1,2.3-0.2V1.6
		C12.5,1.6,0.1,12.6,0.1,27.1c0,6.8,2.7,16.1,7.2,24.1C9.8,55.7,15.1,61.3,15.9,66.5z"/>
	<path class="st0" d="M30.5,13.4c0,1.7,1.1,3.2,2.6,3.7V24h-4v15.9h2.6v5.3c0,0.7,0.6,1.3,1.3,1.3c0,0,0,0,0,0h4V48
		c-2.1,0.7-3.1,3-2.4,5.1c0.7,2.1,3,3.1,5.1,2.4c2.1-0.7,3.1-3,2.4-5.1c-0.4-1.1-1.3-2-2.4-2.4v-2.9c0-0.7-0.6-1.3-1.3-1.3
		c0,0,0,0,0,0h-4v-4h5.3v-2.6h8.2c0.7,2.1,3,3.1,5.1,2.4c2.1-0.7,3.1-3,2.4-5.1c-0.7-2.1-3-3.1-5.1-2.4c-1.1,0.4-2,1.3-2.4,2.4h-8.2
		v-5.3H45c0.7,0,1.3-0.6,1.3-1.3c0,0,0,0,0,0v-5.5c2.1-0.7,3.1-3,2.4-5.1c-0.7-2.1-3-3.1-5.1-2.4c-2.1,0.7-3.1,3-2.4,5.1
		c0.4,1.1,1.3,2,2.4,2.4v4.2h-4V24h-4v-6.9c2.1-0.7,3.1-3,2.4-5.1s-3-3.1-5.1-2.4C31.5,10.2,30.5,11.7,30.5,13.4z"/>
</g>
</svg>
