<?xml version="1.0" encoding="utf-8"?>
<!-- Generator: Adobe Illustrator 21.0.2, SVG Export Plug-In . SVG Version: 6.00 Build 0)  -->
<svg version="1.1" id="Layer_1" xmlns="http://www.w3.org/2000/svg" xmlns:xlink="http://www.w3.org/1999/xlink" x="0px" y="0px"
	 viewBox="0 0 80 43" style="enable-background:new 0 0 80 43;" xml:space="preserve">
<style type="text/css">
	.st0{fill:#FFFFFF;}
</style>
<g>
	<path class="st0" d="M11.3,21.6c-1.6-1.5-2.5-2.9-2.7-3.3c-0.3-0.6-0.4-1.3-0.2-2c0.2-0.7,0.6-1.2,1.2-1.5c0.4-0.2,0.8-0.3,1.2-0.3
		c0.9,0,1.8,0.5,2.3,1.3l0,0.1l0,0c0.1,0.1,0.2,0.2,0.3,0.4c0.3,0.4,0.7,0.9,1.3,1.4c0,0,0.1,0.1,0.1,0.1c0.7-2.1,0.1-4.6-1.9-5.3
		c-2.2-0.8-5.7-0.2-7.7,3.1c-2.7,4.6-3.6,7.7-3.9,13.2c0.1,3.6,2.5,4.7,4.8,5.1l2.3,2.6H2.9c-1.6,0-2.9,1.3-2.9,2.9
		c0,1.6,1.3,2.9,2.9,2.9l12,0c1.2,0,2.2-0.7,2.7-1.7c0.5-1.1,0.3-2.3-0.5-3.2l-6.3-7.2c0.2-2.5,1-5.1,1.9-7.5
		C12.2,22.4,11.7,22,11.3,21.6z"/>
	<path class="st0" d="M12.8,16.8c-0.2-0.2-0.3-0.4-0.3-0.5c0-0.1-0.1-0.1-0.1-0.1c0,0,0,0,0,0c-0.5-0.9-1.6-1.2-2.5-0.7
		C9,15.9,8.7,17,9.2,17.9c0.1,0.1,0.9,1.6,2.6,3.1c1.7,1.5,4.4,3.1,8,3.1c0,0,0,0,0,0c1.7,0,3.6-0.4,5.6-1.2c0.9-0.4,1.4-1.5,1-2.4
		c-0.4-0.9-1.5-1.4-2.4-1c-1.6,0.7-3,0.9-4.2,0.9c-2.5,0-4.3-1.1-5.5-2.2C13.6,17.8,13.2,17.2,12.8,16.8z"/>
	<ellipse transform="matrix(0.1579 -0.9875 0.9875 0.1579 8.8526 24.5228)" class="st0" cx="18.8" cy="7.1" rx="6.4" ry="6.4"/>
	<path class="st0" d="M53.8,27c1.4-0.9,2.2-1.9,2.2-1.9c0.5-0.6,1.2-0.9,2-0.9c0.6,0,1.2,0.2,1.6,0.6c1.1,0.9,1.3,2.5,0.4,3.6
		c-0.3,0.3-1.1,1.3-2.6,2.4c0.2,0,0.4,0.1,0.7,0.1c2.6,0.3,6.1,0.7,9.3,1.6l-4.5,5c-0.8,0.9-1,2.1-0.5,3.2c0.5,1.1,1.5,1.7,2.7,1.7
		h12c1.6,0,2.9-1.3,2.9-2.9c0-1.6-1.3-2.9-2.9-2.9h-5.4l2-2.2c0.1-0.1,0.2-0.2,0.3-0.3c0.5-0.4,0.9-1.2,1.3-2.2
		c0.9-2.3,1.7-5.2-1.7-7.3c-4.9-2.5-8-3.2-13.4-3.2c-3.9,0.1-6.2,2.8-6.5,5.1c0,0.3,0,0.5,0,0.7C53.6,27.1,53.7,27.1,53.8,27z"/>
	<path class="st0" d="M59.2,25.3c-0.8-0.6-1.9-0.5-2.6,0.3v0l0,0l0,0h0l0,0c0,0,0,0,0,0l0,0c-0.1,0.1-0.9,1.1-2.4,2
		c-1.5,1-3.6,1.9-6.1,1.9c-1.4,0-3-0.3-4.7-1c-0.9-0.4-2,0.1-2.4,1c-0.4,0.9,0.1,2,1,2.4c2.2,0.9,4.2,1.3,6.1,1.3c0,0,0,0,0,0
		c3.6,0,6.4-1.3,8.4-2.6c1.9-1.3,3-2.6,3.1-2.7C60.1,27.1,60,25.9,59.2,25.3z"/>
	<ellipse transform="matrix(0.9875 -0.1579 0.1579 0.9875 -2.3872 7.6522)" class="st0" cx="47" cy="18.9" rx="6.4" ry="6.4"/>
	<rect x="23.6" y="36.5" class="st0" width="5.8" height="5.8"/>
	<rect x="27.7" y="33" class="st0" width="11" height="2.3"/>
	<rect x="25.6" y="29.7" class="st0" width="11" height="2.3"/>
	<rect x="30.7" y="36.5" class="st0" width="5.8" height="5.8"/>
	<rect x="37.8" y="36.5" class="st0" width="5.8" height="5.8"/>
	<polygon class="st0" points="34.5,19.9 32.3,19.9 29.1,28.4 37.6,28.4 	"/>
</g>
</svg>
