<?xml version="1.0" encoding="utf-8"?>
<!-- Generator: Adobe Illustrator 21.0.2, SVG Export Plug-In . SVG Version: 6.00 Build 0)  -->
<svg version="1.1" id="Layer_1" xmlns="http://www.w3.org/2000/svg" xmlns:xlink="http://www.w3.org/1999/xlink" x="0px" y="0px"
	 viewBox="0 0 30 30" style="enable-background:new 0 0 30 30;" xml:space="preserve">
<style type="text/css">
	.st0{fill:#FFFFFF;}
</style>
<path class="st0" d="M30,23.7c0,0.5-0.2,0.8-0.5,1.3l-4.2,4.2c-0.2,0.2-0.5,0.3-0.7,0.5c-0.3,0.2-0.7,0.2-0.8,0.3h-0.2
	c-0.2,0-0.2,0-0.3,0c-0.3,0-1,0-2-0.2c-0.8-0.2-2-0.5-3.3-1c-1.5-0.7-3-1.3-4.7-2.5c-1.7-1-3.3-2.5-5.3-4.5
	c-1.5-1.5-2.7-2.8-3.7-4.2C3.5,16.3,2.7,15.2,2,14c-0.5-1.2-1-2.2-1.3-3c-0.2-1-0.5-1.8-0.5-2.5C0,7.8,0,7.3,0,7c0-0.3,0-0.7,0-0.7
	C0,6,0.2,5.7,0.3,5.5C0.5,5.2,0.7,5,0.8,4.8L5,0.7C5.3,0.2,5.7,0,6.2,0c0.3,0,0.5,0,0.7,0.2s0.3,0.3,0.5,0.7l3.3,6.5
	C11,7.7,11,8,11,8.3c-0.2,0.5-0.3,0.8-0.7,1.2L8.8,11c0,0,0,0.2-0.2,0.2c0,0.2,0,0.2,0,0.2c0.2,0.5,0.3,1,0.5,1.5
	c0.3,0.5,0.7,1.2,1.2,1.8c0.7,0.8,1.3,1.7,2.3,2.7c1,1,1.8,1.7,2.5,2.3c0.7,0.5,1.3,1,1.8,1.2c0.5,0.3,0.8,0.3,1.2,0.5h0.3h0.2
	c0.2,0,0.2,0,0.2-0.2l1.8-1.8c0.3-0.3,0.8-0.5,1.3-0.5c0.3,0,0.7,0,0.8,0.2l0,0l6.2,3.7C29.7,22.8,29.8,23.3,30,23.7z"/>
</svg>
