<?xml version="1.0" encoding="utf-8"?>
<!-- Generator: Adobe Illustrator 21.0.2, SVG Export Plug-In . SVG Version: 6.00 Build 0)  -->
<svg version="1.1" id="Layer_1" xmlns="http://www.w3.org/2000/svg" xmlns:xlink="http://www.w3.org/1999/xlink" x="0px" y="0px"
	 viewBox="0 0 15 15" style="enable-background:new 0 0 15 15;" xml:space="preserve">
<style type="text/css">
	.st0{fill:#FFFFFF;}
</style>
<path class="st0" d="M15,11.8c0,0.3-0.1,0.4-0.2,0.7l-2.1,2.1c-0.1,0.1-0.3,0.2-0.3,0.3c-0.2,0.1-0.3,0.1-0.4,0.2h-0.1
	c-0.1,0-0.1,0-0.2,0c-0.2,0-0.5,0-1-0.1c-0.4-0.1-1-0.2-1.7-0.5c-0.8-0.3-1.5-0.7-2.3-1.2C5.8,12.7,5,11.9,4,10.9
	c-0.8-0.8-1.3-1.4-1.8-2.1C1.7,8.2,1.3,7.6,1,7C0.8,6.4,0.5,5.9,0.3,5.5C0.3,5,0.1,4.6,0.1,4.3C0,3.9,0,3.7,0,3.5c0-0.2,0-0.3,0-0.3
	C0,3,0.1,2.8,0.2,2.8c0.1-0.2,0.2-0.3,0.2-0.3l2.1-2.1C2.7,0.1,2.8,0,3.1,0c0.2,0,0.2,0,0.3,0.1s0.2,0.2,0.3,0.3l1.7,3.3
	C5.5,3.8,5.5,4,5.5,4.2C5.4,4.4,5.3,4.6,5.2,4.8L4.4,5.5c0,0,0,0.1-0.1,0.1c0,0.1,0,0.1,0,0.1c0.1,0.3,0.2,0.5,0.3,0.8
	C4.8,6.7,4.9,7,5.2,7.3c0.3,0.4,0.7,0.8,1.2,1.3c0.5,0.5,0.9,0.8,1.3,1.2c0.3,0.3,0.7,0.5,0.9,0.6c0.3,0.2,0.4,0.2,0.6,0.3h0.2h0.1
	c0.1,0,0.1,0,0.1-0.1l0.9-0.9c0.2-0.2,0.4-0.3,0.7-0.3c0.2,0,0.3,0,0.4,0.1l0,0l3.1,1.8C14.8,11.4,14.9,11.7,15,11.8z"/>
</svg>
