<?xml version="1.0" encoding="utf-8"?>
<!-- Generator: Adobe Illustrator 21.0.2, SVG Export Plug-In . SVG Version: 6.00 Build 0)  -->
<svg version="1.1" id="Layer_1" xmlns="http://www.w3.org/2000/svg" xmlns:xlink="http://www.w3.org/1999/xlink" x="0px" y="0px"
	 viewBox="0 0 80 75" style="enable-background:new 0 0 80 75;" xml:space="preserve">
<style type="text/css">
	.st0{fill:#FFFFFF;}
</style>
<g>
	<g>
		<g>
			<path class="st0" d="M5,40v30c0,2.8,2.2,5,5,5h25V40H5z"/>
		</g>
	</g>
	<g>
		<g>
			<path class="st0" d="M75,20H59.2c1.1-0.8,2.1-1.5,2.8-2.2c4-4.1,4-10.7,0-14.7c-3.9-4-10.8-3.9-14.7,0c-2.2,2.2-7.9,11-7.1,16.9
				h-0.4c0.8-5.9-5-14.8-7.1-16.9C28.8-0.9,21.9-0.9,18,3c-4,4.1-4,10.7,0,14.7c0.7,0.7,1.7,1.5,2.8,2.2H5c-2.8,0-5,2.2-5,5v7.5
				C0,33.8,1.1,35,2.5,35H35V25h10v10h32.5c1.4,0,2.5-1.1,2.5-2.5V25C80,22.2,77.8,20,75,20z M34.7,19.8c0,0-0.2,0.2-0.9,0.2
				c-3.5,0-10-3.6-12.2-5.8c-2.1-2.1-2.1-5.6,0-7.7c1-1,2.4-1.6,3.8-1.6c1.4,0,2.8,0.6,3.8,1.6C32.5,9.9,35.9,18.6,34.7,19.8z
				 M46.2,20c-0.7,0-0.9-0.2-0.9-0.2c-1.2-1.2,2.2-9.9,5.6-13.3c2-2,5.5-2,7.6,0c2.1,2.1,2.1,5.6,0,7.7C56.3,16.4,49.7,20,46.2,20z"
				/>
		</g>
	</g>
	<g>
		<g>
			<path class="st0" d="M45,40v35h25c2.8,0,5-2.2,5-5V40H45z"/>
		</g>
	</g>
</g>
</svg>
