<?xml version="1.0" encoding="utf-8"?>
<!-- Generator: Adobe Illustrator 21.0.2, SVG Export Plug-In . SVG Version: 6.00 Build 0)  -->
<svg version="1.1" id="Layer_1" xmlns="http://www.w3.org/2000/svg" xmlns:xlink="http://www.w3.org/1999/xlink" x="0px" y="0px"
	 viewBox="0 0 290 42" style="enable-background:new 0 0 290 42;" xml:space="preserve">
<style type="text/css">
	.st0{fill:#0071CD;}
	.st1{fill:#FFFFFF;}
</style>
<polygon class="st0" points="0,0 15.6,21 0,42 272.3,42 290,21 272.1,0 "/>
<path class="st1" d="M160,29.7c0,0.5-0.2,0.8-0.5,1.3l-4.2,4.2c-0.2,0.2-0.5,0.3-0.7,0.5c-0.3,0.2-0.7,0.2-0.8,0.3h-0.2
	c-0.2,0-0.2,0-0.3,0c-0.3,0-1,0-2-0.2c-0.8-0.2-2-0.5-3.3-1c-1.5-0.7-3-1.3-4.7-2.5c-1.7-1-3.3-2.5-5.3-4.5
	c-1.5-1.5-2.7-2.8-3.7-4.2c-0.8-1.3-1.7-2.5-2.3-3.7c-0.5-1.2-1-2.2-1.3-3c-0.2-1-0.5-1.8-0.5-2.5c-0.2-0.7-0.2-1.2-0.2-1.5
	c0-0.3,0-0.7,0-0.7c0-0.3,0.2-0.7,0.3-0.8c0.2-0.3,0.3-0.5,0.5-0.7l4.2-4.2c0.3-0.5,0.7-0.7,1.2-0.7c0.3,0,0.5,0,0.7,0.2
	c0.2,0.2,0.3,0.3,0.5,0.7l3.3,6.5c0.3,0.3,0.3,0.7,0.3,1c-0.2,0.5-0.3,0.8-0.7,1.2l-1.5,1.5c0,0,0,0.2-0.2,0.2c0,0.2,0,0.2,0,0.2
	c0.2,0.5,0.3,1,0.5,1.5c0.3,0.5,0.7,1.2,1.2,1.8c0.7,0.8,1.3,1.7,2.3,2.7c1,1,1.8,1.7,2.5,2.3c0.7,0.5,1.3,1,1.8,1.2
	c0.5,0.3,0.8,0.3,1.2,0.5h0.3h0.2c0.2,0,0.2,0,0.2-0.2l1.8-1.8c0.3-0.3,0.8-0.5,1.3-0.5c0.3,0,0.7,0,0.8,0.2l0,0l6.2,3.7
	C159.7,28.8,159.8,29.3,160,29.7z"/>
<path class="st1" d="M274.4,20.6l-9.1-10.3c-0.3-0.3-0.8-0.3-1.3,0.1c-0.3,0.2-0.7,0.7-0.1,1.3l8.1,9.3l-8.1,9.3
	c-0.2,0.2-0.4,0.7,0.1,1.2c0.4,0.4,0.7,0.4,0.8,0.4c0.2,0,0.3-0.1,0.4-0.2l9.1-10.3C274.6,21.2,274.6,20.8,274.4,20.6L274.4,20.6z"
	/>
</svg>
