<?xml version="1.0" encoding="utf-8"?>
<!-- Generator: Adobe Illustrator 21.0.2, SVG Export Plug-In . SVG Version: 6.00 Build 0)  -->
<svg version="1.1" id="Layer_1" xmlns="http://www.w3.org/2000/svg" xmlns:xlink="http://www.w3.org/1999/xlink" x="0px" y="0px"
	 viewBox="0 0 14 14" style="enable-background:new 0 0 14 14;" xml:space="preserve">
<style type="text/css">
	.st0{fill:#0071CD;}
</style>
<path class="st0" d="M4.4,12.7c5.3,0,8.2-4.4,8.2-8.2c0-0.1,0-0.2,0-0.4c0.6-0.4,1-0.9,1.4-1.5c-0.5,0.2-1.1,0.4-1.6,0.5
	c0.6-0.4,1-0.9,1.3-1.6c-0.6,0.3-1.2,0.6-1.8,0.7c-0.5-0.6-1.3-0.9-2.1-0.9c-1.6,0-2.9,1.3-2.9,2.9c0,0.2,0,0.4,0.1,0.7
	C4.5,4.7,2.4,3.6,1,1.8C0.7,2.3,0.6,2.8,0.6,3.3c0,1,0.5,1.9,1.3,2.4C1.4,5.7,1,5.5,0.6,5.3c0,0,0,0,0,0c0,1.4,1,2.6,2.3,2.8
	C2.6,8.2,2.4,8.3,2.1,8.3c-0.2,0-0.4,0-0.5-0.1c0.4,1.1,1.4,2,2.7,2c-1,0.8-2.2,1.2-3.6,1.2c-0.2,0-0.5,0-0.7,0
	C1.3,12.2,2.8,12.7,4.4,12.7"/>
</svg>
