<?xml version="1.0" encoding="utf-8"?>
<!-- Generator: Adobe Illustrator 21.0.2, SVG Export Plug-In . SVG Version: 6.00 Build 0)  -->
<svg version="1.1" id="Layer_1" xmlns="http://www.w3.org/2000/svg" xmlns:xlink="http://www.w3.org/1999/xlink" x="0px" y="0px"
	 viewBox="0 0 45 45" style="enable-background:new 0 0 45 45;" xml:space="preserve">
<style type="text/css">
	.st0{fill:#FFFFFF;}
</style>
<path class="st0" d="M35.3,16.6c-0.1,2.5-1.9,5.9-5.2,10.2c-3.5,4.5-6.4,6.8-8.8,6.8c-1.5,0-2.8-1.4-3.8-4.1c-0.7-2.5-1.4-5-2.1-7.6
	c-0.8-2.8-1.6-4.1-2.5-4.1c-0.2,0-0.9,0.4-2,1.2l-1.2-1.5c1.3-1.1,2.5-2.2,3.7-3.3c1.7-1.5,2.9-2.2,3.8-2.3c2-0.2,3.2,1.2,3.7,4.1
	c0.5,3.1,0.8,5.1,1,5.9c0.6,2.6,1.2,3.9,1.9,3.9c0.5,0,1.3-0.8,2.4-2.5c1.1-1.7,1.6-3,1.7-3.9c0.2-1.5-0.4-2.2-1.7-2.2
	c-0.6,0-1.2,0.1-1.9,0.4c1.3-4.1,3.7-6.1,7.2-6C34.2,11.5,35.4,13.2,35.3,16.6"/>
</svg>
