<?xml version="1.0" encoding="utf-8"?>
<!-- Generator: Adobe Illustrator 21.0.2, SVG Export Plug-In . SVG Version: 6.00 Build 0)  -->
<svg version="1.1" id="Layer_1" xmlns="http://www.w3.org/2000/svg" xmlns:xlink="http://www.w3.org/1999/xlink" x="0px" y="0px"
	 viewBox="0 0 14 14" style="enable-background:new 0 0 14 14;" xml:space="preserve">
<style type="text/css">
	.st0{fill:#0071CD;}
</style>
<path class="st0" d="M13.8,3.8c-0.1,1.3-1,3.2-2.8,5.5c-1.9,2.4-3.4,3.6-4.7,3.6c-0.8,0-1.5-0.7-2-2.2C3.9,9.4,3.6,8,3.2,6.7
	C2.8,5.2,2.3,4.5,1.9,4.5c-0.1,0-0.5,0.2-1.1,0.6L0.2,4.3c0.7-0.6,1.3-1.2,2-1.8c0.9-0.8,1.6-1.2,2-1.2c1.1-0.1,1.7,0.6,2,2.2
	c0.3,1.7,0.4,2.7,0.6,3.1C7,8,7.3,8.7,7.7,8.7C8,8.7,8.4,8.2,9,7.3c0.6-0.9,0.9-1.6,0.9-2.1C10,4.5,9.7,4.1,9,4.1
	c-0.3,0-0.7,0.1-1,0.2c0.7-2.2,2-3.3,3.9-3.2C13.3,1.1,13.9,2,13.8,3.8"/>
</svg>
