<?xml version="1.0" encoding="utf-8"?>
<!-- Generator: Adobe Illustrator 21.0.2, SVG Export Plug-In . SVG Version: 6.00 Build 0)  -->
<svg version="1.1" id="Layer_1" xmlns="http://www.w3.org/2000/svg" xmlns:xlink="http://www.w3.org/1999/xlink" x="0px" y="0px"
	 viewBox="0 0 73 80" style="enable-background:new 0 0 73 80;" xml:space="preserve">
<style type="text/css">
	.st0{fill:#FFFFFF;}
</style>
<g>
	<circle class="st0" cx="24.5" cy="9.3" r="8.7"/>
	<path class="st0" d="M72.4,48.6c-0.9-0.9-2.2-0.9-3,0l-5.7,5.7H53.2l-4.5-4.5c0-0.4,0-0.9-0.1-1.3l-8.4-23.2l0,0
		c-0.6-1.7-2.3-2.9-4.1-2.9l0,0h-3h-5.9h-5.5h-5.9h-3l0,0c-1.7,0-3.5,1-4.1,2.9l0,0L0.2,48.4c-0.6,1.4,0.3,3.2,1.7,3.8
		c0.3,0.1,0.7,0.1,1,0.1c1.2,0,2.3-0.7,2.8-1.9l6.4-17.7l0,0c0.3-0.7,1.2-1.2,1.9-0.9c0.7,0.3,1.2,1.2,0.9,1.9l-9,24.8h9.9v16.8
		c0,2,1.6,3.6,3.6,3.6s3.6-1.6,3.6-3.6V58.3h2.9v16.8c0,2,1.6,3.6,3.6,3.6s3.6-1.6,3.6-3.6V58.3h9.9l-9-24.8
		c-0.3-0.7,0.1-1.6,0.9-1.9c0.7-0.3,1.6,0.1,1.9,0.9l0,0l6.4,17.7c0.3,0.9,1,1.4,1.7,1.7l7.7,7.7v8v5.9v3.8c0,1.2,1,2.2,2.2,2.2
		s2.2-1,2.2-2.2v-3.8v-2.8c0-0.9,0.6-1.4,1.4-1.4s1.4,0.6,1.4,1.4v2.8v3.8c0,1.2,1,2.2,2.2,2.2c1.2,0,2.2-1,2.2-2.2v-3.8v-5.9v-8
		l8.1-8.1C73.2,50.7,73.2,49.4,72.4,48.6z"/>
	<circle class="st0" cx="58.6" cy="44.9" r="6.4"/>
</g>
</svg>
