<?xml version="1.0" encoding="utf-8"?>
<!-- Generator: Adobe Illustrator 21.0.2, SVG Export Plug-In . SVG Version: 6.00 Build 0)  -->
<svg version="1.1" id="Layer_1" xmlns="http://www.w3.org/2000/svg" xmlns:xlink="http://www.w3.org/1999/xlink" x="0px" y="0px"
	 viewBox="0 0 45 45" style="enable-background:new 0 0 45 45;" xml:space="preserve">
<style type="text/css">
	.st0{fill:#FFFFFF;}
	.st1{fill:#59ABDF;}
</style>
<g>
	<path class="st0" d="M35.2,17.3c0,0-0.3-1.8-1-2.6c-1-1-2.1-1-2.6-1.1c-3.6-0.3-9.1-0.3-9.1-0.3h0c0,0-5.4,0-9.1,0.3
		c-0.5,0.1-1.6,0.1-2.6,1.1c-0.8,0.8-1,2.6-1,2.6s-0.3,2.1-0.3,4.2v2c0,2.1,0.3,4.2,0.3,4.2s0.3,1.8,1,2.6c1,1,2.3,1,2.9,1.1
		c2.1,0.2,8.8,0.3,8.8,0.3s5.4,0,9.1-0.3c0.5-0.1,1.6-0.1,2.6-1.1c0.8-0.8,1-2.6,1-2.6s0.3-2.1,0.3-4.2v-2
		C35.4,19.4,35.2,17.3,35.2,17.3"/>
	<polygon class="st1" points="19.8,25.9 26.8,22.2 19.8,18.6 	"/>
</g>
</svg>
