<?xml version="1.0" encoding="utf-8"?>
<!-- Generator: Adobe Illustrator 21.0.2, SVG Export Plug-In . SVG Version: 6.00 Build 0)  -->
<svg version="1.1" id="Layer_1" xmlns="http://www.w3.org/2000/svg" xmlns:xlink="http://www.w3.org/1999/xlink" x="0px" y="0px"
	 viewBox="0 0 14 14" style="enable-background:new 0 0 14 14;" xml:space="preserve">
<style type="text/css">
	.st0{fill:#0071CD;}
	.st1{fill:#FFFFFF;}
</style>
<g>
	<path class="st0" d="M13.8,4.2c0,0-0.1-1-0.6-1.4c-0.5-0.6-1.1-0.6-1.4-0.6C9.9,2.2,7,2.2,7,2.2l0,0c0,0-2.9,0-4.8,0.1
		c-0.3,0-0.9,0-1.4,0.6C0.4,3.3,0.2,4.2,0.2,4.2S0.1,5.3,0.1,6.5v1.1c0,1.1,0.1,2.3,0.1,2.3s0.1,1,0.6,1.4c0.5,0.6,1.2,0.5,1.5,0.6
		c1.2,0,4.7,0,4.7,0s2.9,0,4.8-0.1c0.3,0,0.9,0,1.4-0.6c0.4-0.4,0.6-1.4,0.6-1.4s0.1-1.1,0.1-2.3v-1C13.9,5.3,13.8,4.2,13.8,4.2"/>
	<polygon class="st1" points="5.6,8.8 9.3,6.9 5.6,4.9 	"/>
</g>
</svg>
